<svg width="48" height="48" viewBox="0 0 48 48" fill="none" xmlns="http://www.w3.org/2000/svg">
<path fill-rule="evenodd" clip-rule="evenodd" d="M44 23.5H35.9938L29.9969 33.887L34 40.8205C34.1827 40.715 34.3381 40.5623 34.4471 40.3734L43.8363 24.1107C43.9455 23.9218 44 23.7109 44 23.5Z" fill="#C09B4E"/>
<path fill-rule="evenodd" clip-rule="evenodd" d="M29.9969 33.887H18.0031L14 40.8205C14.1827 40.9259 14.3926 40.9841 14.6108 40.9841H33.3892C33.6074 40.9841 33.8173 40.9259 34 40.8205L29.9969 33.887Z" fill="#D0B171"/>
<path fill-rule="evenodd" clip-rule="evenodd" d="M18.0031 33.887L12.0062 23.5H4C4 23.7109 4.05453 23.9218 4.16367 24.1108L13.5529 40.3734C13.662 40.5624 13.8173 40.7151 14 40.8205L18.0031 33.887Z" fill="#C09B4E"/>
<path fill-rule="evenodd" clip-rule="evenodd" d="M18.0031 13.113L14 6.17944C13.8173 6.28491 13.662 6.43757 13.5529 6.62655L4.16367 22.8893C4.05453 23.0782 4 23.2891 4 23.5H12.0062L18.0031 13.113Z" fill="#D0B171"/>
<path fill-rule="evenodd" clip-rule="evenodd" d="M18.0031 13.113H29.9969L34 6.17942C33.8173 6.07395 33.6074 6.01575 33.3892 6.01575H14.6108C14.3926 6.01575 14.1827 6.07395 14 6.17942L18.0031 13.113Z" fill="#C09B4E"/>
<path fill-rule="evenodd" clip-rule="evenodd" d="M29.9969 13.113L35.9938 23.5H44C44 23.2891 43.9455 23.0782 43.8363 22.8893L34.4471 6.62655C34.3381 6.43757 34.1827 6.28491 34 6.17944L29.9969 13.113Z" fill="#D0B171"/>
<path fill-rule="evenodd" clip-rule="evenodd" d="M29.9969 13.113H18.003L12.0062 23.5L18.003 33.8869H29.9969L35.9938 23.5L29.9969 13.113Z" fill="#EDD5A3"/>
</svg>
