<svg width="20" height="23" viewBox="0 0 20 23" fill="none" xmlns="http://www.w3.org/2000/svg">
<path d="M7.975 18.0358C7.81667 18.0358 7.65833 17.9687 7.53333 17.825L2.475 12.0079C2.23333 11.73 2.23333 11.27 2.475 10.9921L7.53333 5.17499C7.775 4.89707 8.175 4.89707 8.41667 5.17499C8.65833 5.45291 8.65833 5.91291 8.41667 6.19082L3.8 11.5L8.41667 16.8092C8.65833 17.0871 8.65833 17.5471 8.41667 17.825C8.3 17.9687 8.13333 18.0358 7.975 18.0358Z" fill="#24313E"/>
<path d="M17.0833 12.2187H3.05833C2.71667 12.2187 2.43333 11.8929 2.43333 11.5C2.43333 11.1071 2.71667 10.7812 3.05833 10.7812H17.0833C17.425 10.7812 17.7083 11.1071 17.7083 11.5C17.7083 11.8929 17.425 12.2187 17.0833 12.2187Z" fill="#24313E"/>
</svg>
