<svg width="17" height="20" viewBox="0 0 17 20" fill="none" xmlns="http://www.w3.org/2000/svg">
<path d="M8.5 20C9.84026 20 10.9274 18.8809 10.9274 17.5H6.07257C6.07257 18.8809 7.15974 20 8.5 20ZM16.6733 14.152C15.9401 13.341 14.5684 12.1211 14.5684 8.125C14.5684 5.08984 12.5011 2.66016 9.71352 2.06406V1.25C9.71352 0.559766 9.17013 0 8.5 0C7.82987 0 7.28648 0.559766 7.28648 1.25V2.06406C4.49894 2.66016 2.43163 5.08984 2.43163 8.125C2.43163 12.1211 1.05987 13.341 0.326744 14.152C0.0990661 14.4039 -0.00187108 14.7051 2.62356e-05 15C0.00420033 15.6406 0.492569 16.25 1.2181 16.25H15.7819C16.5074 16.25 16.9962 15.6406 17 15C17.0019 14.7051 16.9009 14.4035 16.6733 14.152Z" fill="#222222"/>
<circle cx="13.5" cy="5.5" r="2.5" fill="#D5387B"/>
</svg>
