<svg width="14" height="18" viewBox="0 0 14 18" fill="none" xmlns="http://www.w3.org/2000/svg">
<path fill-rule="evenodd" clip-rule="evenodd" d="M0.408516 14.8626C0.874946 15.5721 1.67269 16.0001 2.52848 16H11.4711C12.3271 16.0003 13.1252 15.5721 13.5917 14.8623C14.0582 14.1525 14.1297 13.2575 13.7818 12.484L13.0668 10.894V8C13.0668 5.388 11.378 3.165 9.02179 2.341V2C9.02179 0.89543 8.11628 0 6.99927 0C5.88226 0 4.97675 0.89543 4.97675 2V2.341C2.5521 3.18933 0.931387 5.45671 0.9317 8V10.894L0.217749 12.485C-0.1297 13.2584 -0.0579146 14.1531 0.408516 14.8626ZM6.99927 18.0025C8.12037 18.0025 9.13528 17.3933 9.66122 16.4429C9.59822 16.4427 9.44284 16.4421 9.22287 16.4412C7.98665 16.4363 4.71041 16.4234 4.32772 16.4254C4.85085 17.3859 5.87131 18.0025 6.99927 18.0025Z" fill="#046A65"/>
</svg>
