<svg version="1.1" xmlns="http://www.w3.org/2000/svg" xmlns:xlink="http://www.w3.org/1999/xlink" width="48px" height="48px" viewBox="0,0,256,256"><g fill="none" fill-rule="nonzero" stroke="none" stroke-width="1" stroke-linecap="butt" stroke-linejoin="miter" stroke-miterlimit="10" stroke-dasharray="" stroke-dashoffset="0" text-anchor="none" style="mix-blend-mode: normal"><g transform="scale(5.33333,5.33333)"><path d="M6,36h36v6h-36z" fill="#8924aa"></path><path d="M16,32c0,-2.2 -1.8,-4 -4,-4c-2.2,0 -4,1.8 -4,4c0,2.2 1.8,4 4,4c2.2,0 4,-1.8 4,-4M38,33c0,1.7 -1.3,3 -3,3h-14c-1.7,0 -3,-1.3 -3,-3v-1c0,-1.7 1.3,-3 3,-3h14c1.7,0 3,1.3 3,3zM33.3,13.8c2.1,-0.7 3.2,-3 2.5,-5.1c-0.7,-2.1 -3,-3.2 -5.1,-2.5c-2.1,0.7 -3.2,3 -2.5,5.1c0.7,2.1 3,3.2 5.1,2.5" fill="#ffb74d"></path><path d="M15.9,42h-7.9c-1.1,0 -2,-0.9 -2,-2c0,-1.1 0.9,-2 2,-2h6.1l4.4,-5.3c0.7,-0.8 2,-1 2.8,-0.3c0.8,0.7 1,2 0.3,2.8z" fill="#ffb74d"></path><path d="M31,29h11v13h-11z" fill="#ce93d8"></path><path d="M25,29c-0.5,0 -0.9,-0.2 -1.3,-0.5c-0.8,-0.7 -0.9,-2 -0.2,-2.8l8,-9c0.7,-0.8 2.5,-1.5 3.7,-1.7c1.1,-0.1 0,3.5 -0.7,4.3l-8,9c-0.4,0.5 -0.9,0.7 -1.5,0.7z" fill="#1565c0"></path><path d="M34.6,29h7.4l-3.6,-12c-0.5,-1.6 -2.2,-2.4 -3.8,-1.9l-0.9,0.3c-1.6,0.5 -2.4,2.2 -1.9,3.8z" fill="#1565c0"></path></g></g></svg>