<svg width="115" height="115" viewBox="0 0 115 115" fill="none" xmlns="http://www.w3.org/2000/svg">
<path fill-rule="evenodd" clip-rule="evenodd" d="M57.5 100.625C33.6821 100.625 14.375 81.3179 14.375 57.5C14.375 33.6821 33.6821 14.375 57.5 14.375C81.3179 14.375 100.625 33.6821 100.625 57.5C100.625 81.3179 81.3179 100.625 57.5 100.625ZM71.0671 45.1921C71.9103 44.349 73.2772 44.349 74.1204 45.1921C74.9635 46.0353 74.9635 47.4022 74.1204 48.2454L52.5579 69.8079C52.1533 70.2134 51.6041 70.4414 51.0312 70.4414C50.4584 70.4414 49.9092 70.2134 49.5046 69.8079L40.8796 61.1829C40.0365 60.3397 40.0365 58.9728 40.8796 58.1296C41.7228 57.2865 43.0897 57.2865 43.9329 58.1296L51.0312 65.2323L71.0671 45.1921Z" fill="url(#paint0_linear_123_1196)"/>
<defs>
<linearGradient id="paint0_linear_123_1196" x1="14.375" y1="57.0813" x2="100.625" y2="57.0813" gradientUnits="userSpaceOnUse">
<stop stop-color="#D5387B"/>
<stop offset="1" stop-color="#F87480"/>
</linearGradient>
</defs>
</svg>
