<?xml version="1.0"?><svg version="1.2" baseProfile="tiny-ps" viewBox="0 0 300 300" xmlns="http://www.w3.org/2000/svg" xmlns:xlink="http://www.w3.org/1999/xlink"><title>close</title><g><g fill="#fffefe" transform="matrix(.1 0 0 -.1 0 300)"><path d="M1315 2736c-292-49-526-172-723-381-164-173-267-372-319-615l-18-85v-310l18-85c37-171 98-318 194-463l48-72 105-105 105-105 70-47c146-96 295-159 465-195l85-18h310l85 18c170 37 319 99 464 194l71 47 105 105 105 106 48 72c96 145 157 292 194 463l18 85v310l-18 85c-37 170-99 319-194 464l-47 71-105 106-106 105-71 47c-144 95-294 158-459 192l-80 17-135 4-135 3-80-13z"/></g><g fill="#e2767e" transform="matrix(.1 0 0 -.1 0 300)"><path d="M1315 2736c-292-49-526-172-723-381-164-173-267-372-319-615l-18-85v-310l18-85c37-171 98-318 194-463l48-72 105-105 105-105 70-47c146-96 295-159 465-195l85-18h310l85 18c170 37 319 99 464 194l71 47 105 105 105 106 48 72c96 145 157 292 194 463l18 85v310l-18 85c-37 170-99 319-194 464l-47 71-105 106-106 105-71 47c-144 95-294 158-459 192l-80 17-135 4-135 3-80-13zm-3-873 188-187 188 187 188 187h15c27 0 94-56 137-114l22-30-6-20-6-21-181-182-182-183 182-182 181-183 7-23 7-24-70-70-70-70-24 7-23 7-182 181-183 182-188-188-188-187h-33l-49 43c-53 46-92 95-92 117v14l187 188 187 188-187 188-187 188v15c0 16 31 62 64 95s79 64 95 64h15l188-187z"/></g><g fill="#f34954" transform="matrix(.1 0 0 -.1 0 300)"><path d="M1315 2736c-292-49-526-172-723-381-164-173-267-372-319-615l-18-85v-310l18-85c37-171 98-318 194-463l48-72 105-105 105-105 70-47c146-96 295-159 465-195l85-18h310l85 18c170 37 319 99 464 194l71 47 105 105 105 106 48 72c96 145 157 292 194 463l18 85v310l-18 85c-37 170-99 319-194 464l-47 71-105 106-106 105-71 47c-144 95-294 158-459 192l-80 17-135 4-135 3-80-13zm2-868 183-182 183 182 183 182h58l63-62 63-62v-60l-182-183-182-183 182-183 182-183v-58l-62-63-62-63h-59l-179 178c-99 97-181 179-184 181-2 3-87-77-187-177l-183-182h-58l-63 62-63 62v60l182 183 182 183-182 183-182 183v58l62 63 62 63h60l183-182z"/></g><g fill="#f0404d" transform="matrix(.1 0 0 -.1 0 300)"><path d="m1476 2411-308-308-47 5-48 4-29-15c-16-8-55-42-86-75l-57-59-7-27c-3-15-4-44-1-65l5-38-305-304-304-304 5-44c8-57 68-208 119-296 183-318 482-534 847-612l85-18h310l85 18c170 37 319 99 464 194l71 47 105 105 105 106 48 72c96 145 157 292 194 463l18 85v310l-18 85c-51 240-154 441-314 610-160 170-356 292-564 350l-66 18-307-307zm-159-543 183-182 183 182 183 182h58l63-62 63-62v-60l-182-183-182-183 182-183 182-183v-58l-62-63-62-63h-60l-183 182-183 182-183-182-183-182h-58l-63 62-63 62v60l182 183 182 183-182 183-182 183v64l60 60 60 60h64l183-182z"/></g><g fill="#ea3441" transform="matrix(.1 0 0 -.1 0 300)"><path d="m2200 2216-174-176-26 24c-49 46-106 59-153 35-12-6-95-84-184-172l-163-161-42 41c-24 22-70 66-103 97l-60 56h-29l-57 56-56 56-42 5-42 6-76-76-76-76 6-42 5-42 56-56 56-57v-30l48-49c27-28 70-74 97-103l49-53-161-162c-89-89-166-172-172-184-24-48-7-116 38-157l22-20-176-176-177-177 62-56c159-143 364-246 590-294l85-18h310l85 18c170 37 319 99 464 194l71 47 105 105 105 106 48 72c96 145 157 292 194 463l18 85v310l-18 85c-49 229-152 436-294 589l-58 62-175-175zm-882-349 182-182 183 183 182 182h63l61-61 61-62v-61l-182-183-182-183 182-183 182-183v-58l-62-63-62-63h-60l-183 182-183 182-183-182-183-182h-58l-63 62-63 62v61l182 182 183 183-181 183c-100 100-184 190-188 200l-6 18 14 27c16 30 90 103 121 120l20 11 20-5 20-6 183-181z"/></g><g fill="#e62837" transform="matrix(.1 0 0 -.1 0 300)"><path d="M1915 2058c55-30 145-135 145-169 0-7-84-98-187-201l-188-188 183-183 182-182v-65l-60-60-60-60h-64l-183 182-183 182-188-187c-104-103-194-187-201-187-34 0-139 90-169 145l-11 20-1-13c0-26 29-68 83-120l56-52h75l179 178 179 177 49-54c27-30 49-60 49-66 0-5 43-57 95-115l95-105-316-316-316-316 9-6c5-3 47-14 93-24l85-18h310l85 18c170 37 319 99 464 194l71 47 105 105 105 106 48 72c96 145 157 292 194 463l18 85v310l-18 85c-10 46-21 88-24 93l-6 9-316-316-317-316-89 82c-50 45-94 87-98 95-4 7-16 13-26 13h-17l-55 49-54 49 178 179 177 179v75l-52 56c-52 54-94 83-120 83l-13-1 20-11z"/></g></g></svg>