<?xml version="1.0"?><svg version="1.2" baseProfile="tiny-ps" viewBox="0 0 300 300" xmlns="http://www.w3.org/2000/svg" xmlns:xlink="http://www.w3.org/1999/xlink"><title>eat</title><g><g fill="#fdf3e8" transform="matrix(.1 0 0 -.1 0 300)"><path d="M1365 2900c-237-25-449-102-653-237l-84-56-95-90-95-91-63-84-64-85-55-107-55-106-35-105c-19-57-42-147-52-199l-17-95v-290l17-95c10-52 33-142 52-199l35-105 55-106 55-107 64-85 63-84 95-91 95-90 84-56c168-111 360-189 548-223l95-17h290l95 17c52 10 142 33 199 52l105 35 106 55 107 55 85 64 84 63 91 95 90 95 56 84c111 168 189 360 223 548l17 95v290l-17 95c-34 188-112 380-223 548l-56 84-90 95-91 95-84 63-85 64-107 55-106 55-105 35-104 35-90 15c-49 8-137 17-195 20l-105 4-80-8z"/></g><g fill="#d7def3" transform="matrix(.1 0 0 -.1 0 300)"><path d="M1365 2900c-237-25-449-102-653-237l-84-56-95-90-95-91-63-84-64-85-55-107-55-106-35-105c-19-57-42-147-52-199l-17-95v-290l17-95c10-52 33-142 52-199l35-105 55-106 55-107 64-85 63-84 95-91 95-90 84-56c168-111 360-189 548-223l95-17h290l95 17c52 10 142 33 199 52l105 35 106 55 107 55 85 64 84 63 91 95 90 95 56 84c111 168 189 360 223 548l17 95v290l-17 95c-34 188-112 380-223 548l-56 84-90 95-91 95-84 63-85 64-107 55-106 55-105 35-104 35-90 15c-49 8-137 17-195 20l-105 4-80-8zm385-116c524-106 927-509 1034-1034l15-75 7-125 7-125-24 22c-31 28-90 53-127 53h-29l-8 91-7 92-19 76c-41 158-114 313-205 431-54 71-183 195-211 204l-22 7-21-11-20-11v-58l46-37c155-128 283-339 336-554l21-85 1-140v-140l-17-75c-35-147-76-244-156-365l-45-70-81-80c-75-75-161-143-169-134-2 2-9 85-15 184s-14 201-17 226l-5 46 109 96 110 96 21 44 21 43v89l-60 300-59 300-26 23-26 22h-477l-24-28-24-28-57-290-57-289v-97l26-49 27-48 104-88 105-88-6-75c-3-41-13-178-21-304s-17-232-20-234c-3-3-44-9-92-13l-88-7-77 5c-42 3-82 10-90 14l-13 8-5 791-5 792-34 30-34 30-38-5-39-5-73-37c-39-20-96-55-125-77l-52-41-47-61c-54-71-86-137-108-221l-15-59v-627l14-27c21-40 43-55 133-93l83-34v-41c0-23-3-75-6-117l-7-76-46 32c-67 46-168 142-227 215l-51 63-50 97c-56 107-75 160-98 272l-15 75v254l19 83c62 263 184 452 391 610l65 50 101 49 100 49 100 24 99 24 80 6 80 6 80-9 80-9 23 14 22 14v23c0 12-4 28-9 36l-9 14-48 8c-27 4-90 8-141 8-229 2-443-61-633-184l-75-49-101-100-100-101-43-65c-61-93-116-214-146-316l-26-89-12-112-11-113h-67l-32-16c-18-9-39-23-48-31l-17-14-6 18-7 17 7 96c16 243 93 470 224 666l53 79 106 106 106 106 75 50c182 122 395 202 595 223l80 9 120-5 120-5 75-15zm96-240c-17-16-20-42-8-60 4-7 42-28 86-48l79-37 23 16 24 15v47l-17 16c-23 20-130 67-154 67-9 0-25-7-33-16z"/></g><g fill="#f8dba4" transform="matrix(.1 0 0 -.1 0 300)"><path d="M1365 2900c-237-25-449-102-653-237l-84-56-95-90-95-91-63-84-64-85-55-107-55-106-35-105c-19-57-42-147-52-199l-17-95v-290l17-95c10-52 33-142 52-199l35-105 55-106 55-107 64-85 63-84 95-91 95-90 84-56c168-111 360-189 548-223l95-17h290l95 17c52 10 142 33 199 52l105 35 106 55 107 55 85 64 84 63 91 95 90 95 56 84c111 168 189 360 223 548l17 95v290l-17 95c-34 188-112 380-223 548l-56 84-90 95-91 95-84 63-85 64-107 55-106 55-105 35-104 35-90 15c-49 8-137 17-195 20l-105 4-80-8zm385-116c524-106 927-509 1034-1034l15-75 7-125 7-125-24 22c-31 28-90 53-127 53h-29l-8 91-7 92-19 76c-38 149-113 310-192 416-76 101-212 225-246 225-16 0-41-30-41-51v-19l94-94c138-139 207-248 266-424l29-87 12-110 11-109-7-81c-16-186-69-340-174-500l-45-70-81-80c-75-75-161-143-169-134-2 2-9 85-15 184s-14 201-17 226l-5 46 109 96 110 96 21 44 21 43v41c0 22-25 165-55 318-30 154-55 287-55 298v19l-29 29-29 29h-480l-24-29-25-28-17-94c-10-52-34-173-54-269s-37-205-40-241l-4-67 21-40c24-47 50-74 160-167l81-68v-26c0-23-20-305-36-518l-6-72-31-7c-41-9-276-9-303 0l-22 7-7 132c-3 73-7 430-8 795l-2 664-34 30-34 30-38-5-39-5-73-37c-39-20-96-55-125-77l-52-41-47-61c-54-71-86-137-108-221l-15-59v-633l23-34 23-34 92-40 91-40 1-56c0-31-3-84-6-117l-7-61-46 31c-61 42-184 156-231 216-42 53-131 214-155 282-9 25-25 85-36 134l-19 90v255l19 83c62 263 184 452 391 610l65 50 101 49 100 49 100 24 99 24 80 6 80 6 80-9 80-9 23 14 22 14v23c0 12-4 28-9 36l-9 14-48 8c-27 4-90 8-141 8-229 2-443-61-633-184l-75-49-101-100-100-101-43-65c-61-93-116-214-146-316l-26-89-12-112-11-113h-67l-32-16c-18-9-39-23-48-31l-17-14-6 18-7 17 7 96c16 243 93 470 224 666l53 79 106 106 106 106 75 50c182 122 395 202 595 223l80 9 120-5 120-5 75-15zm-530-1334V870l-52 21c-29 11-89 34-133 51s-82 32-83 34c-2 1 6 12 17 23 25 25 26 30 5 59l-15 22H850v140h109l15 16c19 18 20 28 6 55l-11 19H850v140h110l16 25 16 25-16 25-16 25H847l7 61c3 33 8 65 12 70l5 9h98l11 19c14 27 13 37-6 55l-15 16h-49v9c0 15 75 105 121 145 43 37 151 96 177 96h12v-580zm510 298v-261l17-19c20-22 46-23 67-2l16 15v529h90v-529l16-15c20-21 43-20 66 1l18 16v527h25c14 0 25-2 25-4s25-126 55-275 55-285 55-302c0-16-7-43-15-58l-14-28-110-93-110-92-6-19c-4-11-5-38-3-62l3-42-48-3-47-3v120l-115 101-115 101-15 29c-8 16-15 40-15 53 0 12 25 146 55 297s55 275 55 277 11 3 25 3h25v-262zm116 796c-17-16-20-42-8-60 4-7 42-28 86-48l79-37 23 16 24 15v47l-17 16c-23 20-130 67-154 67-9 0-25-7-33-16z"/></g><g fill="#edd8c1" transform="matrix(.1 0 0 -.1 0 300)"><path d="M1365 2900c-237-25-449-102-653-237l-84-56-95-90-95-91-63-84-64-85-55-107-55-106-35-105c-19-57-42-147-52-199l-17-95v-290l17-95c10-52 33-142 52-199l35-105 55-106 55-107 64-85 63-84 95-91 95-90 84-56c168-111 360-189 548-223l95-17h290l95 17c52 10 142 33 199 52l105 35 106 55 107 55 85 64 84 63 91 95 90 95 56 84c111 168 189 360 223 548l17 95v290l-17 95c-34 188-112 380-223 548l-56 84-90 95-91 95-84 63-85 64-107 55-106 55-105 35-104 35-90 15c-49 8-137 17-195 20l-105 4-80-8zm385-116c524-106 927-509 1034-1034l15-75 7-125 7-125-24 22c-31 28-90 53-127 53h-29l-8 91-7 92-19 76c-38 149-113 310-192 416-76 101-212 225-246 225-16 0-41-30-41-51v-19l94-94c138-139 207-248 266-424l29-87 12-110 11-109-7-81c-16-186-69-340-174-500l-45-70-81-80c-75-75-161-143-169-134-2 2-9 85-15 184s-14 201-17 226l-5 46 109 96 110 96 21 44 21 43v41c0 22-25 165-55 318-30 154-55 287-55 298v19l-29 29-29 29h-480l-24-29-25-28-17-94c-10-52-34-173-54-269s-37-205-40-241l-4-67 21-40c24-47 50-74 160-167l81-68v-26c0-23-20-305-36-518l-6-72-31-7c-41-9-276-9-303 0l-22 7-7 132c-3 73-7 430-8 795l-2 664-34 30-34 30-38-5-39-5-73-37c-39-20-96-55-125-77l-52-41-47-61c-54-71-86-137-108-221l-15-59v-633l23-34 23-34 92-40 91-40 1-56c0-31-3-84-6-117l-7-61-46 31c-61 42-184 156-231 216-42 53-131 214-155 282-9 25-25 85-36 134l-19 90v255l19 83c62 263 184 452 391 610l65 50 101 49 100 49 100 24 99 24 80 6 80 6 80-9 80-9 23 14 22 14v23c0 12-4 28-9 36l-9 14-48 8c-27 4-90 8-141 8-229 2-443-61-633-184l-75-49-101-100-100-101-43-65c-61-93-116-214-146-316l-26-89-12-112-11-113h-67l-32-16c-18-9-39-23-48-31l-17-14-6 18-7 17 7 96c16 243 93 470 224 666l53 79 106 106 106 106 75 50c182 122 395 202 595 223l80 9 120-5 120-5 75-15zm-530-1334V870l-52 21c-29 11-89 34-133 51s-82 32-83 34c-2 1 6 12 17 23 25 25 26 30 5 59l-15 22H850v140h109l15 16c19 18 20 28 6 55l-11 19H850v140h110l16 25 16 25-16 25-16 25H847l7 61c3 33 8 65 12 70l5 9h98l11 19c14 27 13 37-6 55l-15 16h-49v9c0 15 75 105 121 145 43 37 151 96 177 96h12v-580zm510 298v-261l17-19c20-22 46-23 67-2l16 15v529h90v-529l16-15c20-21 43-20 66 1l18 16v527h25c14 0 25-2 25-4s25-126 55-275 55-285 55-302c0-16-7-43-15-58l-14-28-110-93-110-92-6-19c-4-11-5-38-3-62l3-42-48-3-47-3v120l-115 101-115 101-15 29c-8 16-15 40-15 53 0 12 25 146 55 297s55 275 55 277 11 3 25 3h25v-262zm198-823c6-5 33-427 35-544l2-104-65-22c-36-13-80-26-98-30l-33-7 5 59c4 32 13 171 21 308 9 138 18 274 21 304l6 53 51-6c28-4 53-9 55-11zm-772-139 59-24 2-19c6-54 23-516 19-520-6-6-168 35-177 45l-6 7 12 265c7 146 13 266 14 268 2 6 22 0 77-22zm690 1758c-17-16-20-42-8-60 4-7 42-28 86-48l79-37 23 16 24 15v47l-17 16c-23 20-130 67-154 67-9 0-25-7-33-16z"/></g><g fill="#baa4b9" transform="matrix(.1 0 0 -.1 0 300)"><path d="M1365 2900c-237-25-449-102-653-237l-84-56-95-90-95-91-63-84-64-85-55-107-55-106-35-105c-19-57-42-147-52-199l-17-95v-290l17-95c10-52 33-142 52-199l35-105 55-106 55-107 64-85 63-84 95-91 95-90 84-56c168-111 360-189 548-223l95-17h290l95 17c52 10 142 33 199 52l105 35 106 55 107 55 85 64 84 63 91 95 90 95 56 84c111 168 189 360 223 548l17 95v290l-17 95c-34 188-112 380-223 548l-56 84-90 95-91 95-84 63-85 64-107 55-106 55-105 35-104 35-90 15c-49 8-137 17-195 20l-105 4-80-8zm400-115c174-39 355-118 495-216l75-53 91-90 90-91 53-75c97-138 174-312 212-480l19-85 7-120 6-120-12-102c-15-130-51-263-103-381l-40-93-71-107-71-106-90-91-91-90-75-51c-41-28-101-66-132-84l-58-32v25c0 13-3 58-6 99l-7 74 79 56c112 78 185 147 259 247 137 182 209 372 230 606l6 70-10 105-11 105-22 80c-11 44-38 119-58 167l-37 86-59 89-58 88-89 88-88 87h-55l-12-12c-7-7-12-20-12-29v-16l108-109 107-109 47-80c55-96 91-182 120-290l22-80v-320l-22-88c-28-111-70-211-130-307l-46-75-76-79c-69-73-188-171-196-163-4 4-34 394-34 443v31l105 87 104 88 22 44c11 24 23 61 26 82l4 37-56 285c-31 157-61 300-66 318l-11 32-28 15-29 15h-448l-26-24c-31-28-23-1-92-345-59-297-61-313-43-375l12-41 61-61c33-33 87-83 119-110l59-51-20-302-20-303-13-8c-8-5-51-12-97-15l-83-7-84 7-84 7-6 56c-3 31-9 392-12 801l-6 744-25 25-24 24-50-4-50-5-77-39-77-39-71-70-71-70-36-66-37-66-20-78-20-78v-599l16-33 16-34 26-17c15-10 58-30 97-45l70-26 3-84c1-46-1-101-5-122l-8-37-51 34c-80 54-172 143-236 230l-59 79-45 92-44 91-27 100-26 99v310l26 99 27 100 45 92 45 92 60 80c102 136 232 241 385 313l86 40 97 27 97 26h177l177 1 11 11 12 12-4 23-3 23-24 12-24 12-102 7-101 7-115-17-114-16-87-29c-172-58-320-150-448-279l-76-76-57-86c-71-107-122-218-153-334l-24-90-11-108-12-109 12-104 12-105 25-87 25-87 49-100 48-100 61-82 61-81 67-61c36-34 104-87 150-118l83-57v-98c0-54-3-98-7-98-3 0-36 16-72 37-303 168-519 426-625 748-36 111-56 220-63 351l-6 111 12 96c31 247 121 462 276 662 182 234 469 411 760 468 125 25 131 26 300 22l160-4 70-16zm-545-1335V870l-52 21c-29 11-89 34-133 51s-82 32-83 34c-2 1 6 12 17 23 25 25 26 30 5 59l-15 22H850v140h109l15 16c19 18 20 28 6 55l-11 19H850v140h110l16 25 16 25-16 25-16 25H847l7 61c3 33 8 65 12 70l5 9h98l11 19c14 27 13 37-6 55l-15 16h-49v9c0 15 75 105 121 145 43 37 151 96 177 96h12v-580zm510 298v-261l17-19c20-22 46-23 67-2l16 15v529h90v-529l16-15c20-21 43-20 66 1l18 16v527h25c14 0 25-2 25-4s25-126 55-275 55-285 55-302c0-16-7-43-15-58l-14-28-110-93-110-92-6-19c-4-11-5-38-3-62l3-42-48-3-47-3v120l-115 101-115 101-15 29c-8 16-15 40-15 53 0 12 25 146 55 297s55 275 55 277 11 3 25 3h25v-262zm203-850c4-24 14-171 24-327l17-283-18-13c-17-13-175-59-181-53-2 2 41 691 45 716 0 1 24 2 54 2h54l5-42zm-760-117 44-19 7-143c3-79 9-201 13-271l6-128-19 1c-10 0-53 10-94 22l-75 22v20c0 79 17 467 22 493l6 34 22-6c13-3 43-14 68-25zm502-527-6-51-52-7c-67-8-138-8-215 0l-61 7-3 87-3 88 110-5 110-4 60 8 60 8 3-40c2-22 1-63-3-91zm172 2288c-35-39-19-61 79-106l62-29 25 7 26 6 6 19c3 10 2 26-1 36l-7 18-74 33c-86 39-94 40-116 16z"/></g><g fill="#906fa1" transform="matrix(.1 0 0 -.1 0 300)"><path d="M1365 2900c-237-25-449-102-653-237l-84-56-95-90-95-91-63-84-64-85-55-107-55-106-35-105c-19-57-42-147-52-199l-17-95v-290l17-95c10-52 33-142 52-199l35-105 55-106 55-107 64-85 63-84 95-91 95-90 84-56c168-111 360-189 548-223l95-17h290l95 17c52 10 142 33 199 52l105 35 106 55 107 55 85 64 84 63 91 95 90 95 56 84c111 168 189 360 223 548l17 95v290l-17 95c-34 188-112 380-223 548l-56 84-90 95-91 95-84 63-85 64-107 55-106 55-105 35-104 35-90 15c-49 8-137 17-195 20l-105 4-80-8zm366-105c219-36 439-141 627-299l73-61 71-85c39-47 86-107 103-135 89-139 163-327 192-489l16-91v-260l-17-95c-33-185-100-352-204-510l-56-85-86-89-85-89-78-59c-43-32-108-74-144-94l-65-37-9 14-9 14v65c0 36-3 75-6 86l-6 22 73 48c252 169 421 426 480 727l19 98v205l-16 95-16 94-30 85c-59 169-161 325-294 449l-76 71h-18c-20 0-50-25-50-41 0-6 40-49 88-97 49-48 110-117 135-153 60-85 130-232 156-330l21-75 10-100 9-99-10-98-10-97-25-88c-14-48-42-123-64-167l-38-80-61-81c-64-86-152-173-227-225l-46-31-7 8c-4 5-13 95-20 199-6 105-14 208-17 230l-4 40 111 93 111 94 19 41 19 42v103l-55 278c-31 154-58 287-61 297s-20 27-37 38l-32 19h-414l-25-10c-14-5-32-20-41-33l-15-24-60-302-60-301 11-47c5-26 19-61 29-78l19-31 106-90 106-89-5-45c-3-25-13-162-22-305l-16-260-10-10-9-10h-337l-8 8-8 8-7 122c-4 67-8 423-8 790l-1 669-30 30-31 31-39-6-39-5-73-35-73-36-51-43c-72-61-120-122-159-203l-34-70-16-77-15-77v-552l14-32c19-46 42-63 137-101l84-34-4-119c-2-65-5-120-8-123-16-17-181 118-267 220l-55 65-50 90c-59 108-94 204-115 315l-16 82v223l19 91 19 92 34 85 34 85 55 87 54 86 83 85 84 84 68 45c88 59 194 108 305 142l90 27 190 2 189 1 13 20 14 20-20 24-19 23-131 4-131 4-82-12c-227-33-443-138-611-299-174-166-281-363-328-604l-19-98v-216l15-84c42-239 156-452 333-621l78-75 83-54 83-54-7-95c-3-52-9-97-11-100-9-8-133 61-219 123l-84 59-88 92C456 695 392 783 328 909l-49 96-30 95c-16 52-36 136-44 185l-15 90v262l15 89c102 581 587 1028 1175 1084l85 8 90-5c50-2 129-11 176-18zm-511-1340V870h-8c-7 0-191 71-261 101l-25 10 25 12 24 13 3 19c1 11-2 26-7 34l-9 15-61 4-61 4v138h101l20 10 19 11v22c0 13-5 28-12 35l-12 12H839l3 73 3 72 59 5 59 5 11 17 11 18-11 17-11 18-59 5-59 5 1 35c0 19 4 52 8 73l7 37h95l12 12c7 7 12 22 12 35v22l-19 11c-11 5-29 10-41 10h-21l18 32c10 18 45 60 78 94l60 60 74 37c40 20 78 37 82 37h9v-585zm520 285 5-275 30-3 29-4 13 18 13 18v526h90v-526l13-18 13-18 29 4 30 3 5 275 5 275h59l59-294 59-294-16-42-16-41-115-98-115-97v-119h-113l6 53 5 52-11 15c-7 9-59 56-116 105l-103 90-14 27-14 27v38c0 33 92 533 105 571l5 13 27-3 28-3 5-275zm200-837c0-21 9-164 20-318s20-287 20-296v-16l-92-27c-51-15-99-29-105-32l-13-3v22c0 12 9 176 22 365l22 342h126v-37zm-789-109c35-14 65-27 67-29 4-4 31-549 27-554-4-3-187 47-193 54-3 2 1 111 7 242s11 255 11 276v37h8c5 0 37-12 73-26zm533-499-7-90-11-7-11-8h-290l-14 9-13 9-5 88-5 89h362l-6-90zm160 2241c-3-8-4-25-2-37l3-22 77-34 78-34 21 11 20 11-3 27-3 27-65 32-65 33h-56l-5-14z"/></g></g></svg>