<svg width="118" height="123" viewBox="0 0 118 123" fill="none" xmlns="http://www.w3.org/2000/svg">
<path d="M18.908 40.2795H91.0037C93.859 40.2795 96.1024 42.5284 96.1024 45.3906V91.0843C96.1024 93.9465 93.859 96.1954 91.0037 96.1954H18.908C16.0527 96.1954 13.8093 93.9465 13.8093 91.0843V45.3906C13.8093 42.5284 16.1547 40.2795 18.908 40.2795Z" fill="#B3B7BC"/>
<path d="M115.139 60.5537C116.719 59.1065 116.83 56.6494 115.386 55.0657C113.942 53.4821 111.491 53.3714 109.911 54.8187C108.331 56.2659 108.221 58.723 109.665 60.3067C111.109 61.8903 113.56 62.001 115.139 60.5537Z" fill="#B3B7BC"/>
<path d="M26.9439 27.4748C28.2828 27.0385 29.0155 25.5967 28.5803 24.2545C28.1451 22.9122 26.7068 22.1778 25.3679 22.6141C24.0289 23.0503 23.2962 24.4921 23.7314 25.8343C24.1666 27.1766 25.6049 27.911 26.9439 27.4748Z" fill="#B3B7BC"/>
<path d="M31.9605 19.2219C32.918 19.2219 33.6941 18.4438 33.6941 17.4841C33.6941 16.5243 32.918 15.7463 31.9605 15.7463C31.0031 15.7463 30.227 16.5243 30.227 17.4841C30.227 18.4438 31.0031 19.2219 31.9605 19.2219Z" fill="#E93126"/>
<path d="M114.356 43.5506C115.257 43.5506 115.988 42.8183 115.988 41.915C115.988 41.0117 115.257 40.2795 114.356 40.2795C113.455 40.2795 112.724 41.0117 112.724 41.915C112.724 42.8183 113.455 43.5506 114.356 43.5506Z" fill="#E93126"/>
<path d="M74.3389 19.3109C74.7962 18.892 74.8282 18.1808 74.4103 17.7223C73.9923 17.2639 73.2828 17.2319 72.8255 17.6508C72.3682 18.0697 72.3362 18.781 72.7541 19.2394C73.1721 19.6979 73.8816 19.7299 74.3389 19.3109Z" fill="#B3B7BC"/>
<path d="M97.5471 69.5978V92.0868C97.5471 94.9491 95.2018 97.4026 92.2445 97.4026H18.1094C15.2541 97.4026 12.8068 95.0513 12.8068 92.0868V67.6556" stroke="#2F7E79" stroke-width="3" stroke-linecap="round" stroke-linejoin="round"/>
<g filter="url(#filter0_d_931_1532)">
<path d="M91.1528 57.0004H67.8377C65.5688 57.0004 63.3782 57.7832 61.6569 59.1919L55.5543 64.2005C53.8331 65.6092 51.6425 66.3917 49.3736 66.3917H22.8506C20.1905 66.3917 17.9999 68.5831 17.9999 71.244C17.9999 71.4788 18 71.7135 18.0782 71.9483L22.9289 97.7744C23.3201 100.2 25.3543 102 27.7797 102H84.2678C86.6932 102 88.7273 100.279 89.1185 97.8527L95.9254 62.557C96.3948 59.8961 94.5953 57.4699 91.9352 57.0004C91.7004 57.0004 91.3875 57.0004 91.1528 57.0004Z" fill="white"/>
</g>
<path d="M101.728 50.0729H71.3395C68.3823 50.0729 65.5271 51.0955 63.2837 52.9355L55.3296 59.4776C53.0862 61.3177 50.231 62.3397 47.2738 62.3397H12.7044C9.23725 62.3397 6.38202 65.2021 6.38202 68.6777C6.38202 68.9844 6.38212 69.291 6.48409 69.5976L12.8064 103.331C13.3163 106.5 15.9676 108.851 19.1288 108.851H92.7541C95.9153 108.851 98.5666 106.602 99.0764 103.434L107.948 57.3309C108.56 53.8553 106.215 50.6863 102.748 50.0729C102.442 50.0729 102.034 50.0729 101.728 50.0729Z" fill="white"/>
<path d="M42.8886 85.0339C44.6908 85.0339 46.1517 83.5692 46.1517 81.7626C46.1517 79.956 44.6908 78.4918 42.8886 78.4918C41.0864 78.4918 39.6254 79.956 39.6254 81.7626C39.6254 83.5692 41.0864 85.0339 42.8886 85.0339Z" fill="#24313E"/>
<path d="M68.5867 84.9312C70.3889 84.9312 71.8498 83.467 71.8498 81.6604C71.8498 79.8538 70.3889 78.389 68.5867 78.389C66.7845 78.389 65.3235 79.8538 65.3235 81.6604C65.3235 83.467 66.7845 84.9312 68.5867 84.9312Z" fill="#24313E"/>
<path d="M106.637 106.511C106.229 108.249 105.617 109.986 104.903 111.52C102.966 115.2 100.008 118.164 96.3373 120.004C92.5643 121.946 88.0774 122.662 83.4886 121.742C72.8833 119.493 66.051 109.169 68.2944 98.5374C70.5379 87.9062 80.8373 81.0573 91.4426 83.3062C95.2156 84.1239 98.5808 85.9639 101.334 88.6217C106.025 93.324 107.962 100.071 106.637 106.511Z" fill="#2F7E79"/>
<path fill-rule="evenodd" clip-rule="evenodd" d="M77.1457 99.9662C77.1457 96.7572 79.7328 94.1545 82.9299 94.1545C84.5219 94.1545 85.959 94.8017 87.0002 95.8455C88.0434 94.8014 89.486 94.1545 91.0699 94.1545C94.2669 94.1545 96.854 96.7572 96.854 99.9662C96.854 103.403 95.2596 106.117 93.3562 108.067C91.4625 110.008 89.2214 111.238 87.7934 111.726C87.5419 111.814 87.254 111.846 86.9999 111.846C86.7457 111.846 86.4578 111.814 86.2063 111.726C84.7784 111.238 82.5372 110.008 80.6435 108.067C78.7401 106.117 77.1457 103.403 77.1457 99.9662Z" fill="white"/>
<path d="M51.7432 61.3374C48.1741 54.3862 47.3583 45.9017 49.7037 38.3372C52.0491 30.7727 57.4538 24.2305 64.286 20.5504C66.4275 19.426 68.7729 18.506 71.2203 18.4037C73.6677 18.3015 76.217 19.1193 77.8486 21.0615C79.4802 22.9016 79.7861 25.866 78.4604 27.9105C77.0328 29.8527 74.2795 30.5683 71.9341 30.0572C68.263 29.3416 65.2038 26.4794 64.286 23.0038C63.3683 19.5282 64.592 15.4393 67.3453 13.0882C69.1808 11.4526 71.6282 10.6348 73.9736 9.91925C85.1907 6.64811 97.3257 6.23922 108.747 8.69257" stroke="#81888F" stroke-miterlimit="10" stroke-dasharray="4 4"/>
<path d="M58.8815 88.529H52.6611V90.0623H58.8815V88.529Z" fill="#24313E"/>
<path d="M117.967 3.48263C117.765 6.10712 117.563 8.38168 115.342 8.90658C113.12 9.43147 112.11 7.68181 110.696 5.23229C109.282 2.95773 110.09 0.683168 112.514 0.158269C114.938 -0.366629 118.371 0.333236 117.967 3.48263Z" fill="#B3B7BC"/>
<path d="M115.508 15.9297C116.02 12.735 116.532 11.1376 114.826 10.2502C112.949 9.36277 111.754 10.9601 109.877 13.0899C108.171 15.0422 109.194 17.7045 110.901 18.5919C112.778 19.6568 114.996 18.5919 115.508 15.9297Z" fill="#B3B7BC"/>
<path d="M117.971 10.5954C117.78 11.8902 116.827 12.815 115.493 13C114.921 13 114.349 13 113.587 13C110.918 12.6301 108.821 10.9653 109.012 9.30061C109.203 7.63588 111.681 6.71103 114.54 7.08097C115.112 7.08097 115.684 7.26594 116.065 7.45091C117.399 7.82085 118.162 9.11564 117.971 10.5954C117.971 10.5954 117.971 10.4104 117.971 10.5954Z" fill="#24313E"/>
<path d="M-6.10352e-05 41.6722C-6.10352e-05 38.3406 -6.10352e-05 35.2051 2.35525 34.2252C4.90683 33.2453 6.28076 35.597 8.04724 38.7326C9.81373 41.6722 9.02862 44.6117 6.47704 45.5916C4.31801 46.5715 -6.10352e-05 45.9835 -6.10352e-05 41.6722Z" fill="#B3B7BC"/>
<path d="M1.34668 26.0622C0.95987 29.8745 0.379652 31.8714 2.89393 32.7791C5.40821 33.6868 6.76205 31.6899 9.08292 28.7853C11.017 26.2438 9.66314 23.1576 7.14886 22.2499C4.63458 21.3422 1.73349 22.9761 1.34668 26.0622Z" fill="#B3B7BC"/>
<path d="M-6.10352e-05 33.6185C-6.10352e-05 32.2886 1.03732 31.2911 2.2476 31.1249C2.76629 30.9586 3.45788 30.9586 4.14947 31.1249C6.91582 31.2911 9.16349 32.7873 8.99059 34.4497C8.81769 36.1121 6.57003 37.2758 3.80368 36.9433C3.28498 36.9433 2.76629 36.7771 2.2476 36.6108C0.864424 36.2784 -6.10352e-05 34.9484 -6.10352e-05 33.6185Z" fill="#24313E"/>
<path d="M9.83173 33.9416C20.3351 33.9416 39.7102 40.075 40.0161 62.4618" stroke="#81888F" stroke-miterlimit="10" stroke-dasharray="4 4"/>
<defs>
<filter id="filter0_d_931_1532" x="7.99988" y="38.0004" width="98" height="65" filterUnits="userSpaceOnUse" color-interpolation-filters="sRGB">
<feFlood flood-opacity="0" result="BackgroundImageFix"/>
<feColorMatrix in="SourceAlpha" type="matrix" values="0 0 0 0 0 0 0 0 0 0 0 0 0 0 0 0 0 0 127 0" result="hardAlpha"/>
<feOffset dy="-9"/>
<feGaussianBlur stdDeviation="5"/>
<feColorMatrix type="matrix" values="0 0 0 0 0.397708 0 0 0 0 0.47749 0 0 0 0 0.575 0 0 0 0.13 0"/>
<feBlend mode="normal" in2="BackgroundImageFix" result="effect1_dropShadow_931_1532"/>
<feBlend mode="normal" in="SourceGraphic" in2="effect1_dropShadow_931_1532" result="shape"/>
</filter>
</defs>
</svg>
