<?xml version="1.0"?><svg version="1.2" baseProfile="tiny-ps" viewBox="0 0 300 300" xmlns="http://www.w3.org/2000/svg" xmlns:xlink="http://www.w3.org/1999/xlink"><title>expenses</title><g><g fill="#fdf2e6" transform="matrix(.1 0 0 -.1 0 300)"><path d="m302 2650-32-20-12-25-11-25h-78l-32-14c-18-7-43-26-57-41l-25-27V502l25-27c14-15 39-34 57-41l32-14h1038l14-17c8-10 25-40 38-66l24-48 46-27 46-27h250l46 27 46 27 24 48c13 26 30 56 38 66l14 17h1038l32 14c18 7 43 26 57 41l25 27v1996l-25 27c-14 15-39 34-57 41l-32 14h-78l-11 25-12 25-32 20-33 20H1635l-42-20c-24-10-54-30-68-44l-25-25-25 25c-14 14-44 34-68 44l-42 20H335l-33-20z"/></g><g fill="#efdac1" transform="matrix(.1 0 0 -.1 0 300)"><path d="m302 2650-32-20-12-25-11-25h-78l-32-14c-18-7-43-26-57-41l-25-27V502l25-27c14-15 39-34 57-41l32-14h1038l14-17c8-10 25-40 38-66l24-48 46-27 46-27h250l46 27 46 27 24 48c13 26 30 56 38 66l14 17h1038l32 14c18 7 43 26 57 41l25 27v1996l-25 27c-14 15-39 34-57 41l-32 14h-78l-11 25-12 25-32 20-33 20H1635l-42-20c-24-10-54-30-68-44l-25-25-25 25c-14 14-44 34-68 44l-42 20H335l-33-20zm1071-92 28-11 22-31 22-31 5-650 5-650 23-10 22-10v-80l-22-10-23-10-3-122-3-121 26-20 25-20V619l-22 21c-13 12-41 31-63 43l-40 22-509 3-510 3-13 11-13 10v1817l19 13 19 13 488-3 489-3 28-11zm1287-7 10-20V749l-10-20-11-19h-869v1485l23 10 22 10v160l-22 10-23 10v175h869l11-19zM482 2378l-12-12v-142l12-12c7-7 22-12 33-12h22l16 18 17 19v114l-10 20-11 19h-55l-12-12zm230 0-12-12v-142l12-12c7-7 24-12 38-12s31 5 38 12l12 12v142l-12 12c-7 7-24 12-38 12s-31-5-38-12zm228-7-10-20v-118l18-16 19-17h42l15 22 16 22v48c0 25-4 58-10 72l-10 26h-69l-11-19zm242 7-12-12v-142l12-12c7-7 22-12 34-12h23l15 16 16 15v120l-10 20-11 19h-55l-12-12zm-657-378-19-21 10-27 9-27 124-3 123-3 14 12 14 11v47l-16 15-15 16H543l-18-20zm383 9-18-10v-55l12-12 12-12h373l16 18c22 24 21 45-1 65l-19 17h-179l-179-1-17-10zm-388-198c-15-28-12-46 8-64l19-17h222l15 16 16 15v23c0 12-5 27-12 34l-12 12H531l-11-19zm382 7-12-12v-55l20-11 20-11 112 3 112 3 15 27 15 27-18 20-19 21H914l-12-12zm-384-203-11-24 17-26 16-25h227l16 18c20 22 22 53 5 70l-12 12H530l-12-25zm384 13-12-12v-55l19-11 20-10h351l20 20c23 23 24 33 10 61l-11 19H914l-12-12zm0-280-12-12v-55l19-11 20-10h361l16 25 17 26-11 24-12 25H914l-12-12zm-382-287c-15-28-12-46 8-64l19-17h222l15 16 16 15v23c0 12-5 27-12 34l-12 12H531l-11-19zm382 7-12-12v-55l19-11 20-10h358l16 18c22 24 21 45-1 65l-19 17H914l-12-12zm1068 1296c-6-14-10-47-10-72v-48l16-22 15-22h46l16 18 17 19v114l-10 20-11 19h-69l-10-26zm242 14-12-12v-142l12-12c7-7 24-12 38-12s31 5 38 12l12 12v142l-12 12c-7 7-24 12-38 12s-31-5-38-12zm228-7-10-20v-118l18-16 19-17h42l15 22 16 22v48c0 25-4 58-10 72l-10 26h-69l-11-19zm-299-290-15-10-4-65-4-66h-79l-27-14c-31-16-74-61-91-93l-11-22v-182l14-27c16-31 61-74 93-91l22-11h206l35-18 35-17 18-35 18-35-4-56-5-56-17-26-16-26-31-10c-17-6-39-11-49-11h-19v229l-16 15c-21 22-40 20-58-6l-16-22v-219l-37 6-38 6-27 31-28 30v49l-16 15c-19 20-38 20-54 1l-13-15 5-45 6-45 26-35 27-35 39-20 39-20h71v-110l20-20c24-24 34-25 54-4l16 15v116l50 5 51 5 37 30c47 39 70 78 78 136l7 45-7 56-7 55-22 33c-13 18-38 43-56 55l-33 23-49 6-49 7v223l-12 12c-7 7-22 12-35 12h-22l-11-19-10-20v-211h-25c-13 0-36 5-50 12l-26 12-15 27-14 28v122l15 28 14 28 30 13 30 12 104-4 105-3 21-19 21-19 12-41c6-23 18-46 26-53l14-12 14 6c8 3 19 14 25 24l10 19-12 42c-14 52-39 86-87 115l-37 23h-85v129l-19 11c-24 12-32 12-50 1z"/></g><g fill="#cfcdc8" transform="matrix(.1 0 0 -.1 0 300)"><path d="m302 2650-32-20-12-25-11-25h-78l-32-14c-18-7-43-26-57-41l-25-27V502l25-27c14-15 39-34 57-41l32-14h1038l14-17c8-10 25-40 38-66l24-48 46-27 46-27h250l46 27 46 27 24 48c13 26 30 56 38 66l14 17h1038l32 14c18 7 43 26 57 41l25 27v1996l-25 27c-14 15-39 34-57 41l-32 14h-78l-11 25-12 25-32 20-33 20H1635l-42-20c-24-10-54-30-68-44l-25-25-25 25c-14 14-44 34-68 44l-42 20H335l-33-20zm1078-95 35-21 17-34 18-35V1201l16-15 15-16h48l11 19 10 20v1256l18 35 17 34 35 21 35 20 483 4 482 3 25-16 25-16V732l-13-10-13-11-510-3-509-3-35-19c-19-10-47-30-62-44l-27-25-35 31-36 31-52 16-52 15H354l-12 12-12 12v1815l23 16 22 16 485-3 485-3 35-20zm-899-179-12-14 3-73 3-74 29-10 28-10 19 24 19 23v104l-16 22-15 22h-47l-11-14zm229-5-10-20v-118l18-16c24-22 45-21 65 1l17 19v114l-10 20-11 19h-58l-11-19zm236-3-16-22v-104l19-23 19-24 28 10 29 10 3 74 3 73-12 14-11 14h-47l-15-22zm236 10-12-12v-135l16-15c21-21 47-20 67 2l17 19v114l-10 20-11 19h-55l-12-12zm558-7-10-20v-120l16-15c20-20 48-20 68 0l16 15v135l-12 12-12 12h-55l-11-19zm241 5-12-14 3-73 3-74 29-10 28-10 19 24 19 23v104l-16 22-15 22h-47l-11-14zm229-5-10-20v-118l18-16c24-22 45-21 65 1l17 19v114l-10 20-11 19h-58l-11-19zm236-3-16-22v-104l19-23 19-24 28 10 29 10 3 74 3 73-12 14-11 14h-47l-15-22zm-304-290-12-12v-124l-55-4-55-5-37-29c-20-16-44-45-55-64l-19-35 3-97 3-96 30-38c17-20 46-45 65-55l35-19h207l33-16 33-16 16-33 16-33v-93l-14-34-14-34-31-15c-16-9-41-16-56-16h-25v227l-19 17-19 18-21-12-21-11v-239h-30c-16 0-41 5-55 12l-26 12-15 27c-8 16-14 37-14 47v19l-21 19-20 18-17-10-17-11-3-36-3-36 21-40 20-41 40-26 40-27 50-5 50-5v-126l18-10 19-10 21 15 22 15v119h30c63 0 137 45 166 102l14 27 6 60 7 59-13 52-13 53-38 38-38 38-61 13-60 12v212l-13 18-13 18-25-4-24-3-3-122-3-123h-81l-29 29-29 29v164l29 29 29 29h229l27-21 26-20 13-47 14-47 23-3 24-4 12 17 13 17-6 32c-17 91-92 156-179 156h-34v119l-16 15c-19 19-36 20-52 4zm-1612-78c-25-25-25-42-2-63l19-17h222l15 16c21 21 20 47-2 67l-19 17H550l-20-20zm378 9-18-10v-55l12-12 12-12h375l15 21 14 21-5 17c-3 9-13 22-21 29l-16 12h-175l-176-1-17-10zm-381-197c-22-24-21-38 3-62l20-20h217l16 18c21 23 22 46 1 66l-15 16H543l-16-18zm375 6c-7-7-12-22-12-34v-23l16-15 15-16h210l20 10 19 11v55l-12 12-12 12H914l-12-12zm-376-193c-21-22-20-41 4-65l20-20h208l23 19 24 19-10 28-10 29-122 3-121 3-16-16zm376 3c-7-7-12-22-12-34v-23l22-15 22-16h342l16 13c8 6 18 19 21 28l5 17-14 21-15 21H914l-12-12zm0-280c-7-7-12-22-12-34v-23l16-15 15-16h355l16 13c8 6 18 19 21 28l5 17-14 21-15 21H914l-12-12zm-375-286c-22-24-21-38 3-62l20-20h217l16 18c21 23 22 46 1 66l-15 16H543l-16-18zm375 6c-7-7-12-22-12-34v-23l16-15 15-16h355l16 13c8 6 18 19 21 28l5 17-14 21-15 21H914l-12-12zm563-4-16-16 3-116 3-116 27-15 27-15 20 18 21 19v218l-10 20-11 19h-48l-16-16z"/></g><g fill="#caa0a9" transform="matrix(.1 0 0 -.1 0 300)"><path d="m302 2650-32-20-12-25-11-25h-78l-32-14c-18-7-43-26-57-41l-25-27V502l25-27c14-15 39-34 57-41l32-14h1038l14-17c8-10 25-40 38-66l24-48 46-27 46-27h250l46 27 46 27 24 48c13 26 30 56 38 66l14 17h1038l32 14c18 7 43 26 57 41l25 27v1996l-25 27c-14 15-39 34-57 41l-32 14h-78l-11 25-12 25-32 20-33 20H1635l-42-20c-24-10-54-30-68-44l-25-25-25 25c-14 14-44 34-68 44l-42 20H335l-33-20zm1061-84c18-7 43-26 57-41l25-27 5-647 5-648 14-16c17-22 39-21 63 0l18 16v1272l20 32c10 18 31 40 47 50l27 18 497 3 497 3 16-16 16-16V731l-16-16-17-16-501 2-501 2-35-15c-19-8-50-27-67-42l-33-27-33 25c-18 14-50 32-70 41l-36 15H361l-15 16-16 15v1828l18 10 17 10 483 1h483l32-14zm-881-188-12-12v-135l16-15c18-19 28-20 55-6l19 11v145l-12 12c-7 7-21 12-33 12s-26-5-33-12zm234-4-16-15v-119l20-20c11-11 25-20 30-20 6 0 19 9 30 20l20 20v119l-16 15c-8 9-24 16-34 16s-26-7-34-16zm236 4-12-12v-145l19-11c27-14 37-13 55 6l16 15v135l-12 12c-7 7-21 12-33 12s-26-5-33-12zm234-4-16-15v-128l22-15c29-20 34-20 58 4l20 20v106l-16 22-15 22h-19c-10 0-26-7-34-16zm560 0-16-15v-117l19-23 20-24 28 15 28 16 3 66 3 66-16 16c-21 20-49 20-69 0zm236 4-12-12v-135l16-15c18-19 28-20 55-6l19 11v145l-12 12c-7 7-21 12-33 12s-26-5-33-12zm234-4-16-15v-119l20-20c11-11 25-20 30-20 6 0 19 9 30 20l20 20v119l-16 15c-20 20-48 20-68 0zm236 4-12-12v-145l19-11c27-14 37-13 55 6l16 15v135l-12 12c-7 7-21 12-33 12s-26-5-33-12zm-316-313c-3-9-6-41-6-71v-54h-65l-40-19-41-18-26-31c-14-17-32-48-38-68l-12-37 4-73 5-73 23-34c13-19 39-45 58-58l35-23 129-6 130-5 29-33 29-32v-142l-17-28c-20-34-52-50-98-50h-35v241l-16 6-17 6-16-10-16-10-3-117-3-116h-81l-28 29-29 28-6 29c-4 16-8 35-11 42l-3 12h-19c-11 0-25-7-32-15l-12-15 6-34c8-41 41-92 79-120l28-21 52-5 52-5 3-60 3-59 11-14 11-13 21 3 21 3 5 70 5 70 35 3c60 4 79 11 116 44l37 33 13 32 14 32v156l-19 35c-10 19-34 48-54 64l-37 29-55 5-55 4v236l-16 13-16 13-16-11-17-10-3-122-3-121h-25c-14 0-41 7-59 16l-33 16-16 33-16 33v104l16 33 16 33 33 16 33 16h173l34-14 33-14 13-24c7-12 15-36 18-52l6-29 17-10 16-11 16 13 16 13v27c0 14-9 45-19 68l-19 42-40 26-39 26-51 6-51 6-3 66-3 66-26 3-26 3-7-16zm-1598-56-18-10v-58l19-11 20-10h210l15 22c20 29 20 34-4 58l-20 20H658l-103-1-17-10zm375-4-23-16v-18c0-10 8-25 18-34l19-17h344l20 10 19 11v22c0 12-5 29-10 37l-9 15-178 3-178 3-22-16zm-375-186-18-10v-58l19-11 20-10h201l20 20c24 24 24 29 4 58l-15 22H662l-107-1-17-10zm369-7c-10-10-17-26-17-35v-17l25-16 24-16 106 4 106 3 9 15c5 8 10 25 10 37v22l-19 11-20 10H923l-16-18zm-375-184c-15-15-15-51 0-66l12-12h235l11 19c14 27 13 37-6 55l-15 16H544l-12-12zm374-4c-19-18-21-45-4-62l12-12h372l12 12c15 15 15 51 0 66l-12 12H921l-15-16zm0-280c-19-18-21-45-4-62l12-12h372l12 12c15 15 15 51 0 66l-12 12H921l-15-16zm-368-275-18-10v-58l19-11 20-10h201l20 20c24 24 24 29 4 58l-15 22H662l-107-1-17-10zm369-7c-10-10-17-26-17-35v-17l24-15 24-16 177 3 176 3 9 15c5 8 10 25 10 37v22l-19 11-20 10H923l-16-18zm559-4-16-22V839l10-20 11-19h58l11 19 10 20v208l-18 16c-10 10-26 17-35 17h-16l-15-22z"/></g><g fill="#60be9f" transform="matrix(.1 0 0 -.1 0 300)"><path d="m302 2650-32-20-12-25-11-25h-78l-32-14c-18-7-43-26-57-41l-25-27V502l25-27c14-15 39-34 57-41l32-14h1038l14-17c8-10 25-40 38-66l24-48 46-27 46-27h250l46 27 46 27 24 48c13 26 30 56 38 66l14 17h1038l32 14c18 7 43 26 57 41l25 27v1996l-25 27c-14 15-39 34-57 41l-32 14h-78l-11 25-12 25-32 20-33 20H1635l-42-20c-24-10-54-30-68-44l-25-25-25 25c-14 14-44 34-68 44l-42 20H335l-33-20zm1078-89 35-18 20-34 20-34 3-642 3-643 19-10 20-11 20 11 19 10 3 643 3 642 20 34 20 34 35 18 35 19h991l12-12 12-12V721l-19-11-20-10h-976l-38-11-38-10-40-36-40-36-32 31-32 31-44 16-44 15H369l-20 10-19 11v1835l12 12 12 12h991l35-19zM232 1598l3-883 20-35 21-35 34-17 35-18h996l22-11c12-6 34-23 49-37l28-26 6-35c3-20 13-46 20-58l14-23h40l14 23c7 12 17 38 20 58l6 35 28 26c15 14 37 31 49 37l22 11h996l35 18 34 17 21 35 20 35 3 883 2 882h66l12-12 12-12V542l-13-10-13-11-530-3-529-3-37-23-37-23-26-54-25-54-22-15-22-16h-212l-22 16-22 15-25 54-26 54-37 23-37 23-529 3-530 3-13 11-13 10v1914l12 12 12 12h66l2-882zm254 776-16-15v-125l12-12c7-7 21-12 33-12s26 5 33 12l12 12v125l-16 15c-8 9-22 16-29 16s-21-7-29-16zm235 2-12-14 3-74 3-73h70l3 73 3 74-12 14c-6 8-19 14-29 14s-23-6-29-14zm235-2-16-15v-125l12-12c7-7 21-12 33-12s26 5 33 12l12 12v125l-16 15c-8 9-22 16-29 16s-21-7-29-16zm230-6-16-22v-102l13-18 13-18 29 4 30 3 3 75 3 75-17 12c-25 19-41 16-58-9zm570 9-17-12 3-75 3-75 30-3 29-4 13 18 13 18v102l-16 22c-17 25-33 28-58 9zm230-3-16-15v-125l12-12c7-7 21-12 33-12s26 5 33 12l12 12v125l-16 15c-8 9-22 16-29 16s-21-7-29-16zm235 2-12-14 3-74 3-73h70l3 73 3 74-12 14c-6 8-19 14-29 14s-23-6-29-14zm235-2-16-15v-125l12-12c7-7 21-12 33-12s26 5 33 12l12 12v125l-16 15c-8 9-22 16-29 16s-21-7-29-16zm-320-309c-3-9-6-41-6-71v-54h-65l-40-19-41-18-26-31c-14-17-32-48-38-68l-12-37 4-73 5-73 23-34c13-19 39-45 58-58l35-23 129-6 130-5 29-33 29-32v-142l-17-28c-20-34-52-50-98-50h-35v241l-16 6-17 6-16-10-16-10-3-117-3-116h-81l-28 29-29 28-6 29c-4 16-8 35-11 42l-3 12h-19c-11 0-25-7-32-15l-12-15 6-34c8-41 41-92 79-120l28-21 52-5 52-5 3-60 3-59 11-14 11-13 21 3 21 3 5 70 5 70 35 3c60 4 79 11 116 44l37 33 13 32 14 32v156l-19 35c-10 19-34 48-54 64l-37 29-55 5-55 4v236l-16 13-16 13-16-11-17-10-3-122-3-121h-25c-14 0-41 7-59 16l-33 16-16 33-16 33v104l16 33 16 33 33 16 33 16h173l34-14 33-14 13-24c7-12 15-36 18-52l6-29 17-10 16-11 16 13 16 13v27c0 14-9 45-19 68l-19 42-40 26-39 26-51 6-51 6-3 66-3 66-26 3-26 3-7-16zm-1606-70-12-15 6-24 6-24 22-6c13-3 64-6 114-6h90l18 13 18 13-4 29-3 30-121 3-121 3-13-16zm370-4-10-20 6-16c4-8 15-20 25-25l18-10h327l22 16 22 15v18c0 9-5 22-12 29l-12 12H911l-11-19zm-352-168-18-4-6-25-6-24 12-15 13-16 121 3 121 3 3 30 4 29-18 13-18 13-95-1c-53-1-104-3-113-6zm374 0c-7-2-17-13-22-24l-11-19 11-20 11-20h235l12 12c7 7 12 20 12 29v18l-22 15-22 16-96-1c-52 0-101-3-108-6zm-384-194-18-10v-22c0-13 5-28 12-35l12-12h222l12 12c15 15 15 51 0 66l-12 12H660l-105-1-17-10zm369-7c-21-23-21-36-1-56l15-16h365l12 12c17 17 15 44-4 62l-15 16H923l-16-18zm-2-282-18-20 11-25 12-25h376l12 12c17 17 15 44-4 62l-15 16H923l-18-20zm-357-267-18-4-6-25-6-24 12-15 13-16 121 3 121 3 3 30 4 29-18 13-18 13-95-1c-53-1-104-3-113-6zm374 0c-7-2-17-13-22-24l-11-19 11-20 11-20h375l12 12c7 7 12 20 12 29v18l-22 15-22 16-166-1c-91 0-171-3-178-6zm555-6-18-12 3-119 3-119 18-11 17-11 18 11 17 11 3 119 3 119-18 12c-9 7-20 13-23 13s-14-6-23-13z"/></g><g fill="#9271a1" transform="matrix(.1 0 0 -.1 0 300)"><path d="m302 2650-32-20-12-25-11-25h-78l-32-14c-18-7-43-26-57-41l-25-27V502l25-27c14-15 39-34 57-41l32-14h1038l14-17c8-10 25-40 38-66l24-48 46-27 46-27h250l46 27 46 27 24 48c13 26 30 56 38 66l14 17h1038l32 14c18 7 43 26 57 41l25 27v1996l-25 27c-14 15-39 34-57 41l-32 14h-78l-11 25-12 25-32 20-33 20H1635l-42-20c-24-10-54-30-68-44l-25-25-25 25c-14 14-44 34-68 44l-42 20H335l-33-20zm1078-89 35-18 20-34 20-34 3-642 3-643 19-10 20-11 20 11 19 10 3 643 3 642 20 34 20 34 35 18 35 19h991l12-12 12-12V721l-19-11-20-10h-976l-38-11-38-10-40-36-40-36-32 31-32 31-44 16-44 15H369l-20 10-19 11v1835l12 12 12 12h991l35-19zM232 1598l3-883 20-35 21-35 34-17 35-18h996l22-11c12-6 34-23 49-37l28-26 6-35c3-20 13-46 20-58l14-23h40l14 23c7 12 17 38 20 58l6 35 28 26c15 14 37 31 49 37l22 11h996l35 18 34 17 21 35 20 35 3 883 2 882h66l12-12 12-12V542l-13-10-13-11-530-3-529-3-37-23-37-23-26-54-25-54-22-15-22-16h-212l-22 16-22 15-25 54-26 54-37 23-37 23-529 3-530 3-13 11-13 10v1914l12 12 12 12h66l2-882zm254 776-16-15v-125l12-12c7-7 21-12 33-12s26 5 33 12l12 12v125l-16 15c-8 9-22 16-29 16s-21-7-29-16zm235 2-12-14 3-74 3-73h70l3 73 3 74-12 14c-6 8-19 14-29 14s-23-6-29-14zm235-2-16-15v-125l12-12c7-7 21-12 33-12s26 5 33 12l12 12v125l-16 15c-8 9-22 16-29 16s-21-7-29-16zm230-6-16-22v-102l13-18 13-18 29 4 30 3 3 75 3 75-17 12c-25 19-41 16-58-9zm570 9-17-12 3-75 3-75 30-3 29-4 13 18 13 18v102l-16 22c-17 25-33 28-58 9zm230-3-16-15v-125l12-12c7-7 21-12 33-12s26 5 33 12l12 12v125l-16 15c-8 9-22 16-29 16s-21-7-29-16zm235 2-12-14 3-74 3-73h70l3 73 3 74-12 14c-6 8-19 14-29 14s-23-6-29-14zm235-2-16-15v-125l12-12c7-7 21-12 33-12s26 5 33 12l12 12v125l-16 15c-8 9-22 16-29 16s-21-7-29-16zM530 1995l-12-15 6-24 6-24 22-6c13-3 64-6 114-6h90l18 13 18 13-4 29-3 30-121 3-121 3-13-16zm370-4-10-20 6-16c4-8 15-20 25-25l18-10h327l22 16 22 15v18c0 9-5 22-12 29l-12 12H911l-11-19zm-352-168-18-4-6-25-6-24 12-15 13-16 121 3 121 3 3 30 4 29-18 13-18 13-95-1c-53-1-104-3-113-6zm374 0c-7-2-17-13-22-24l-11-19 11-20 11-20h235l12 12c7 7 12 20 12 29v18l-22 15-22 16-96-1c-52 0-101-3-108-6zm-384-194-18-10v-22c0-13 5-28 12-35l12-12h222l12 12c15 15 15 51 0 66l-12 12H660l-105-1-17-10zm369-7c-21-23-21-36-1-56l15-16h365l12 12c17 17 15 44-4 62l-15 16H923l-16-18zm-2-282-18-20 11-25 12-25h376l12 12c17 17 15 44-4 62l-15 16H923l-18-20zm-357-267-18-4-6-25-6-24 12-15 13-16 121 3 121 3 3 30 4 29-18 13-18 13-95-1c-53-1-104-3-113-6zm374 0c-7-2-17-13-22-24l-11-19 11-20 11-20h375l12 12c7 7 12 20 12 29v18l-22 15-22 16-166-1c-91 0-171-3-178-6zm555-6-18-12 3-119 3-119 18-11 17-11 18 11 17 11 3 119 3 119-18 12c-9 7-20 13-23 13s-14-6-23-13z"/></g></g></svg>