<svg version="1.1" xmlns="http://www.w3.org/2000/svg" xmlns:xlink="http://www.w3.org/1999/xlink" width="100px" height="100px" viewBox="0,0,256,256"><g fill="none" fill-rule="nonzero" stroke="none" stroke-width="1" stroke-linecap="butt" stroke-linejoin="miter" stroke-miterlimit="10" stroke-dasharray="" stroke-dashoffset="0"  text-anchor="none" style="mix-blend-mode: normal"><g transform="scale(2.56,2.56)"><circle cx="13" cy="29" r="2" fill-opacity="0.96863" fill="#ee3e54"></circle><circle cx="77" cy="13" r="1" fill="#f1bc19"></circle><circle cx="50" cy="50" r="37" fill="#fce0a2"></circle><circle cx="83" cy="15" r="4" fill="#f1bc19"></circle><circle cx="87" cy="24" r="2" fill-opacity="0.96863" fill="#ee3e54"></circle><circle cx="81" cy="76" r="2" fill="#fbcd59"></circle><circle cx="15" cy="63" r="4" fill="#fbcd59"></circle><circle cx="25" cy="87" r="2" fill-opacity="0.96863" fill="#ee3e54"></circle><circle cx="18.5" cy="48.5" r="2.5" fill="#ffffff"></circle><circle cx="21" cy="67" r="1" fill="#f1bc19"></circle><g fill="#9f8066"><path d="M81.086,51.494c-0.28,-0.602 -0.995,-0.862 -1.597,-0.582l-0.027,0.012c-2.198,1.024 -4.607,1.517 -6.988,1.2c-1.577,-0.167 -3.116,-0.651 -4.6,-1.319c0.328,-0.076 0.655,-0.153 0.98,-0.247c1.481,-0.439 2.944,-0.959 4.322,-1.69c1.376,-0.726 2.683,-1.596 3.832,-2.659c0.571,-0.535 1.117,-1.097 1.593,-1.726c0.488,-0.641 0.902,-1.242 1.282,-2.083c0.197,-0.435 0.045,-0.958 -0.371,-1.217c-0.453,-0.281 -1.048,-0.142 -1.329,0.311l-0.066,0.106c-0.274,0.441 -0.728,1 -1.176,1.446c-0.452,0.47 -5.42,4.371 -14.085,4.805c-0.162,-0.106 -0.321,-0.212 -0.49,-0.319l-0.959,-0.579c0.724,-0.424 1.425,-0.882 2.086,-1.398c1.382,-1.009 2.616,-2.199 3.717,-3.478c1.109,-1.274 2.064,-2.666 2.863,-4.131c0.806,-1.48 1.455,-2.958 1.924,-4.661c0.137,-0.504 -0.124,-1.045 -0.622,-1.24c-0.533,-0.208 -1.133,0.056 -1.341,0.588l-0.032,0.081c-0.509,1.305 -1.266,2.683 -2.109,3.896c-0.845,1.233 -1.815,2.374 -2.893,3.381c-1.071,1.012 -2.228,1.922 -3.486,2.653c-1.229,0.778 -2.579,1.326 -3.925,1.832l-0.104,0.039c-0.059,0.022 -0.117,0.047 -0.175,0.076c-0.1,0.049 -0.19,0.11 -0.277,0.172c-0.661,-0.268 -1.332,-0.514 -2.014,-0.734c0.427,-0.407 0.838,-0.827 1.21,-1.284c0.539,-0.577 0.961,-1.244 1.424,-1.87c0.399,-0.671 0.824,-1.322 1.147,-2.024c0.689,-1.38 1.219,-2.821 1.584,-4.291c0.361,-1.486 0.585,-2.929 0.614,-4.523c0.01,-0.499 -0.355,-0.938 -0.862,-1.007c-0.546,-0.075 -1.05,0.307 -1.125,0.853l-0.011,0.082c-0.172,1.25 -0.535,2.619 -1.004,3.859c-0.473,1.257 -1.084,2.45 -1.804,3.547c-0.34,0.563 -0.766,1.061 -1.155,1.578c-0.45,0.468 -0.849,0.976 -1.345,1.387c-0.916,0.898 -2.004,1.579 -3.086,2.22l-0.109,0.064c-0.062,0.037 -0.122,0.077 -0.18,0.121c-0.076,0.057 -0.14,0.125 -0.206,0.19c-0.66,-0.089 -1.322,-0.153 -1.986,-0.187c0.138,-0.312 0.261,-0.626 0.37,-0.939c0.433,-1.25 0.664,-2.499 0.796,-3.723c0.264,-2.442 0.104,-4.837 -0.041,-7.08l-0.002,-0.032c-0.043,-0.627 -0.551,-1.135 -1.193,-1.163c-0.69,-0.03 -1.274,0.505 -1.305,1.195c-0.101,2.313 -0.209,4.502 -0.669,6.571c-0.441,2.045 -2.065,4.663 -2.826,5.392c-1.541,0.213 -3.064,0.548 -4.548,1.005c0.327,-0.901 0.573,-1.833 0.775,-2.768c0.239,-1.241 0.346,-2.505 0.308,-3.766c-0.052,-1.284 -0.192,-2.46 -0.646,-3.817c-0.189,-0.568 -0.777,-0.918 -1.378,-0.796c-0.65,0.132 -1.07,0.767 -0.938,1.417l0.029,0.142c0.174,0.854 0.22,1.992 0.126,2.998c-0.09,1.034 -0.298,2.056 -0.61,3.042c-0.34,0.98 -0.724,1.941 -1.251,2.839c-0.496,0.91 -2.004,2.986 -2.042,3.074c-0.704,0.375 -1.398,0.768 -2.075,1.188c0.037,-0.228 0.075,-0.456 0.106,-0.683c0.15,-1.274 0.113,-2.563 -0.077,-3.816c-0.207,-1.275 -0.518,-2.43 -1.159,-3.689c-0.248,-0.49 -0.827,-0.732 -1.36,-0.547c-0.581,0.203 -0.888,0.838 -0.685,1.418l0.045,0.128c0.292,0.836 0.481,1.948 0.495,2.949c0.02,1.025 -0.083,2.046 -0.332,3.03c-0.271,0.978 -0.594,1.937 -1.096,2.824c-0.205,0.459 -0.526,0.872 -0.779,1.306c-0.224,0.376 -0.881,1.401 -1.192,1.666c-0.218,0.198 -0.442,0.39 -0.656,0.593c-1.011,0.968 -1.936,1.908 -2.897,3.076c-0.009,0.011 -0.024,0.029 -0.032,0.04c-0.68,0.871 -0.525,2.128 0.346,2.808c0.871,0.68 2.128,0.524 2.808,-0.346l0.044,-0.056c0.69,-0.883 1.58,-1.856 2.452,-2.727c0.305,-0.305 0.623,-0.598 0.938,-0.893c0.111,-0.084 0.213,-0.182 0.306,-0.291c0.503,-0.46 1.016,-0.91 1.54,-1.344c1.939,-1.591 4.027,-2.992 6.243,-4.118c4.417,-2.25 9.41,-3.351 14.303,-2.665c2.325,0.304 4.607,0.977 6.794,1.918c0.15,0.09 0.311,0.157 0.479,0.206l1.549,0.749l1.633,0.93c1.063,0.627 2.21,1.438 3.417,2.091c2.412,1.325 5.098,2.398 7.973,2.635c2.863,0.308 5.806,-0.37 8.327,-1.64c0.576,-0.291 0.823,-0.991 0.548,-1.581z"></path></g><g fill="#472b29"><path d="M62.856,48.352c-0.098,0 -0.194,-0.029 -0.276,-0.083c-0.19,-0.127 -0.331,-0.22 -0.481,-0.314l-0.949,-0.573c-0.151,-0.091 -0.243,-0.255 -0.242,-0.431c0.001,-0.177 0.096,-0.34 0.247,-0.429c0.77,-0.449 1.434,-0.895 2.031,-1.361c0.66,-0.481 1.305,-1.019 1.929,-1.606c0.201,-0.19 0.519,-0.181 0.706,0.021c0.189,0.2 0.181,0.517 -0.021,0.706c-0.653,0.617 -1.331,1.182 -2.012,1.679c-0.431,0.336 -0.899,0.664 -1.416,0.992l0.252,0.152c0.132,0.083 0.252,0.161 0.371,0.24c8.909,-0.494 13.546,-4.604 13.586,-4.645c0.426,-0.424 0.859,-0.956 1.111,-1.363l0.065,-0.105c0.206,-0.333 0.53,-0.564 0.911,-0.654c0.379,-0.087 0.773,-0.025 1.106,0.183c0.622,0.386 0.864,1.18 0.563,1.847c-0.114,0.254 -0.413,0.364 -0.661,0.251c-0.252,-0.113 -0.364,-0.41 -0.251,-0.661c0.096,-0.212 0.019,-0.465 -0.179,-0.587c-0.217,-0.133 -0.505,-0.068 -0.641,0.149l-0.065,0.105c-0.294,0.474 -0.771,1.063 -1.248,1.537c-0.842,0.875 -6.079,4.532 -14.412,4.95c-0.007,0 -0.015,0 -0.024,0z"></path><path d="M73.586,55.287c-0.482,0 -0.959,-0.024 -1.43,-0.075c-2.572,-0.212 -5.245,-1.094 -8.159,-2.693c-0.738,-0.4 -1.447,-0.854 -2.133,-1.291c-0.445,-0.284 -0.878,-0.561 -1.298,-0.809l-1.626,-0.926l-1.52,-0.734c-0.135,-0.031 -0.337,-0.117 -0.519,-0.227c-2.179,-0.933 -4.42,-1.565 -6.602,-1.851c-4.56,-0.643 -9.4,0.264 -14.012,2.613c-2.106,1.071 -4.177,2.438 -6.152,4.061c-0.517,0.427 -1.023,0.872 -1.52,1.326c-0.205,0.186 -0.521,0.172 -0.707,-0.031c-0.187,-0.204 -0.172,-0.521 0.031,-0.707c0.51,-0.466 1.028,-0.921 1.56,-1.36c2.033,-1.669 4.164,-3.075 6.335,-4.179c4.795,-2.443 9.842,-3.383 14.599,-2.714c2.269,0.296 4.6,0.954 6.923,1.954c0.167,0.095 0.287,0.146 0.418,0.184l1.63,0.78l1.662,0.945c0.437,0.258 0.88,0.54 1.335,0.831c0.671,0.429 1.364,0.871 2.073,1.256c2.791,1.532 5.334,2.374 7.775,2.576c2.618,0.276 5.474,-0.284 8.062,-1.588c0.34,-0.172 0.48,-0.578 0.32,-0.924c-0.163,-0.35 -0.579,-0.5 -0.933,-0.34c-2.438,1.137 -4.954,1.566 -7.291,1.256c-1.512,-0.161 -3.066,-0.606 -4.74,-1.359c-0.195,-0.088 -0.313,-0.291 -0.293,-0.505c0.021,-0.213 0.176,-0.39 0.385,-0.438c0.319,-0.074 0.639,-0.148 0.955,-0.24c1.723,-0.512 3.067,-1.036 4.226,-1.651c1.44,-0.76 2.694,-1.629 3.727,-2.585c0.204,-0.188 0.521,-0.174 0.707,0.027c0.188,0.203 0.175,0.52 -0.027,0.707c-1.097,1.015 -2.422,1.935 -3.938,2.734c-1.114,0.592 -2.384,1.102 -3.964,1.592c1.065,0.38 2.083,0.619 3.082,0.726c2.17,0.29 4.485,-0.113 6.725,-1.156c0.878,-0.409 1.892,-0.038 2.287,0.812c0.39,0.838 0.049,1.82 -0.776,2.238c-2.294,1.156 -4.794,1.765 -7.177,1.765z"></path><path d="M22.943,59.543c-0.534,0 -1.069,-0.172 -1.52,-0.523c-0.526,-0.411 -0.861,-1.003 -0.943,-1.665c-0.082,-0.663 0.1,-1.318 0.51,-1.845c1.091,-1.327 2.073,-2.304 2.979,-3.17c0.14,-0.133 0.282,-0.26 0.425,-0.386l0.239,-0.216c0.222,-0.188 0.796,-1.041 1.1,-1.551c0.093,-0.159 0.197,-0.32 0.302,-0.481c0.173,-0.266 0.336,-0.516 0.451,-0.773c0.536,-0.952 0.84,-1.923 1.07,-2.753c0.228,-0.897 0.334,-1.872 0.313,-2.888c-0.012,-0.935 -0.19,-2.004 -0.466,-2.793l-0.045,-0.13c-0.143,-0.406 -0.117,-0.844 0.07,-1.232c0.187,-0.388 0.516,-0.681 0.923,-0.822c0.762,-0.266 1.606,0.076 1.97,0.794c0.601,1.181 0.962,2.328 1.206,3.835c0.186,1.228 0.225,2.441 0.116,3.615c0.345,-0.198 0.706,-0.399 1.087,-0.604c0.056,-0.083 0.145,-0.21 0.291,-0.42c0.463,-0.662 1.324,-1.896 1.66,-2.513c0.563,-0.959 0.946,-1.98 1.218,-2.765c0.091,-0.26 0.375,-0.398 0.637,-0.309c0.261,0.091 0.398,0.376 0.309,0.637c-0.287,0.827 -0.693,1.908 -1.292,2.929c-0.355,0.652 -1.204,1.867 -1.712,2.594c-0.169,0.243 -0.292,0.417 -0.325,0.472c-0.045,0.105 -0.099,0.143 -0.2,0.196c-0.752,0.401 -1.422,0.784 -2.048,1.171c-0.166,0.105 -0.377,0.1 -0.54,-0.009c-0.163,-0.109 -0.248,-0.303 -0.216,-0.496c0.045,-0.274 0.077,-0.474 0.104,-0.671c0.138,-1.181 0.113,-2.42 -0.076,-3.674c-0.227,-1.393 -0.559,-2.452 -1.11,-3.537c-0.138,-0.272 -0.464,-0.399 -0.749,-0.302c-0.155,0.055 -0.28,0.165 -0.352,0.313c-0.071,0.147 -0.081,0.313 -0.027,0.469l0.045,0.129c0.314,0.897 0.509,2.059 0.522,3.106c0.022,1.101 -0.095,2.165 -0.348,3.159c-0.233,0.848 -0.573,1.938 -1.146,2.947c-0.125,0.287 -0.317,0.583 -0.503,0.868c-0.096,0.147 -0.191,0.294 -0.278,0.444c-0.012,0.019 -0.847,1.408 -1.302,1.794l-0.235,0.212c-0.134,0.119 -0.269,0.238 -0.398,0.362c-0.882,0.844 -1.839,1.795 -2.856,3.031c-0.271,0.347 -0.379,0.739 -0.33,1.137c0.049,0.398 0.25,0.753 0.566,0.999c0.65,0.509 1.596,0.393 2.106,-0.259c0.694,-0.89 1.58,-1.875 2.536,-2.829c0.195,-0.195 0.512,-0.195 0.707,0c0.195,0.196 0.195,0.513 0,0.707c-0.929,0.927 -1.785,1.879 -2.411,2.681c-0.522,0.671 -1.279,1.015 -2.034,1.015z"></path><path d="M38.707,44.469c-0.135,0 -0.267,-0.055 -0.362,-0.155c-0.131,-0.138 -0.173,-0.337 -0.107,-0.516c0.286,-0.789 0.533,-1.673 0.755,-2.702c0.232,-1.206 0.334,-2.437 0.298,-3.646c-0.043,-1.071 -0.148,-2.263 -0.62,-3.672c-0.112,-0.336 -0.454,-0.539 -0.806,-0.466c-0.378,0.077 -0.624,0.448 -0.547,0.827l0.028,0.14c0.184,0.903 0.234,2.078 0.135,3.146c-0.025,0.274 -0.254,0.476 -0.545,0.451c-0.274,-0.025 -0.477,-0.27 -0.451,-0.545c0.09,-0.96 0.045,-2.053 -0.118,-2.852l-0.028,-0.14c-0.188,-0.921 0.409,-1.82 1.328,-2.009c0.841,-0.165 1.681,0.316 1.952,1.129c0.512,1.528 0.625,2.804 0.672,3.954c0.037,1.288 -0.069,2.592 -0.317,3.881c-0.151,0.703 -0.314,1.341 -0.492,1.928c1.157,-0.314 2.343,-0.561 3.536,-0.732c0.728,-0.789 2.171,-3.147 2.576,-5.025c0.465,-2.093 0.563,-4.327 0.657,-6.487c0.043,-0.965 0.881,-1.7 1.826,-1.674c0.892,0.04 1.609,0.74 1.671,1.629l0.009,0.138c0.146,2.269 0.298,4.615 0.032,7.063c-0.155,1.43 -0.424,2.684 -0.821,3.832c-0.037,0.108 -0.076,0.216 -0.117,0.324c0.363,0.029 0.728,0.067 1.09,0.113c0.026,-0.023 0.054,-0.045 0.082,-0.066c0.067,-0.052 0.146,-0.104 0.227,-0.15l0.103,-0.062c1.026,-0.608 2.102,-1.274 2.991,-2.148c0.198,-0.191 0.514,-0.188 0.708,0.007c0.193,0.197 0.189,0.515 -0.007,0.708c-0.971,0.951 -2.104,1.654 -3.182,2.293l-0.107,0.064c-0.05,0.028 -0.091,0.057 -0.132,0.088c-0.054,0.04 -0.091,0.079 -0.129,0.118c-0.11,0.111 -0.295,0.202 -0.449,0.17c-0.646,-0.087 -1.3,-0.149 -1.945,-0.184c-0.164,-0.009 -0.313,-0.098 -0.399,-0.237c-0.086,-0.139 -0.098,-0.313 -0.031,-0.464c0.132,-0.299 0.25,-0.601 0.354,-0.9c0.373,-1.078 0.626,-2.26 0.772,-3.613c0.256,-2.362 0.107,-4.664 -0.036,-6.891l-0.007,-0.104c-0.028,-0.411 -0.336,-0.711 -0.719,-0.728c-0.378,-0.05 -0.764,0.303 -0.782,0.717c-0.093,2.102 -0.197,4.483 -0.681,6.658c-0.473,2.189 -2.19,4.899 -2.969,5.645c-0.076,0.072 -0.173,0.119 -0.277,0.134c-1.517,0.21 -3.021,0.542 -4.469,0.988c-0.051,0.016 -0.101,0.023 -0.15,0.023z"></path><path d="M57.034,45.264c-0.063,0 -0.127,-0.012 -0.188,-0.036c-0.676,-0.273 -1.342,-0.517 -1.979,-0.723c-0.168,-0.054 -0.295,-0.192 -0.334,-0.364c-0.039,-0.172 0.015,-0.352 0.143,-0.473c0.484,-0.463 0.855,-0.857 1.167,-1.239c0.388,-0.417 0.696,-0.853 1.023,-1.314c0.128,-0.18 0.256,-0.36 0.386,-0.536l0.242,-0.406c0.315,-0.52 0.613,-1.01 0.854,-1.531c0.677,-1.357 1.197,-2.767 1.553,-4.201c0.383,-1.578 0.573,-2.98 0.599,-4.412c0.005,-0.253 -0.18,-0.469 -0.43,-0.503c-0.131,-0.013 -0.263,0.017 -0.369,0.096c-0.106,0.081 -0.175,0.198 -0.193,0.33c-0.185,1.341 -0.551,2.75 -1.043,4.05c-0.479,1.274 -1.104,2.501 -1.854,3.645c-0.252,0.417 -0.557,0.808 -0.852,1.185l-0.322,0.419c-0.165,0.222 -0.481,0.266 -0.7,0.099c-0.221,-0.166 -0.265,-0.479 -0.099,-0.7l0.333,-0.433c0.289,-0.37 0.563,-0.721 0.794,-1.103c0.72,-1.098 1.31,-2.258 1.764,-3.464c0.466,-1.233 0.813,-2.565 0.978,-3.752c0.065,-0.479 0.271,-0.831 0.591,-1.072c0.319,-0.242 0.711,-0.348 1.11,-0.289c0.751,0.103 1.307,0.753 1.292,1.512c-0.026,1.506 -0.227,2.978 -0.627,4.632c-0.374,1.508 -0.92,2.986 -1.623,4.396c-0.258,0.559 -0.584,1.097 -0.899,1.617l-0.266,0.44c-0.154,0.213 -0.278,0.387 -0.401,0.562c-0.332,0.469 -0.675,0.952 -1.087,1.393c-0.186,0.229 -0.399,0.471 -0.649,0.73c0.339,0.12 0.685,0.25 1.032,0.388c0.036,-0.021 0.074,-0.042 0.113,-0.062c0.073,-0.036 0.149,-0.068 0.226,-0.097l0.097,-0.036c1.207,-0.454 2.597,-1.003 3.834,-1.787c1.168,-0.679 2.278,-1.523 3.409,-2.593c1.039,-0.972 1.989,-2.081 2.825,-3.301c0.848,-1.222 1.576,-2.568 2.055,-3.795c0.339,-0.867 1.229,-1.265 2.02,-0.954c0.732,0.287 1.129,1.077 0.923,1.837c-0.439,1.596 -1.064,3.11 -1.967,4.769c-0.833,1.527 -1.817,2.947 -2.926,4.22c-0.182,0.209 -0.498,0.229 -0.705,0.049c-0.209,-0.182 -0.23,-0.497 -0.049,-0.705c1.061,-1.218 2.003,-2.578 2.801,-4.042c0.865,-1.589 1.463,-3.036 1.881,-4.554c0.072,-0.265 -0.066,-0.542 -0.322,-0.642c-0.269,-0.106 -0.584,0.031 -0.692,0.305c-0.537,1.378 -1.306,2.799 -2.194,4.081c-0.876,1.277 -1.873,2.442 -2.963,3.461c-1.187,1.121 -2.356,2.012 -3.576,2.72c-1.301,0.824 -2.747,1.396 -4,1.867l-0.103,0.039c-0.05,0.018 -0.091,0.036 -0.132,0.056c-0.075,0.037 -0.143,0.085 -0.208,0.132c-0.089,0.057 -0.19,0.089 -0.293,0.089z"></path></g><g fill="#472b29"><path d="M72.888,60.017c-0.516,0 -1.035,-0.024 -1.561,-0.073c-0.274,-0.026 -0.477,-0.27 -0.451,-0.545c0.025,-0.274 0.273,-0.465 0.545,-0.451c2.272,0.218 4.456,-0.066 6.485,-0.832c0.261,-0.095 0.547,0.032 0.645,0.291c0.098,0.259 -0.033,0.547 -0.291,0.645c-1.703,0.641 -3.504,0.965 -5.372,0.965z"></path></g><g fill="#472b29"><path d="M68.178,59.348c-0.044,0 -0.089,-0.006 -0.134,-0.019c-3.264,-0.906 -5.925,-2.496 -7.583,-3.671c-7.621,-5.26 -15.105,-6.246 -22.235,-2.933c-0.247,0.119 -0.548,0.01 -0.664,-0.242c-0.116,-0.251 -0.008,-0.548 0.242,-0.664c7.478,-3.475 15.292,-2.46 23.23,3.02c1.598,1.132 4.152,2.659 7.277,3.527c0.266,0.073 0.422,0.35 0.348,0.615c-0.061,0.222 -0.262,0.367 -0.481,0.367z"></path></g><g fill="#472b29"><path d="M27.313,61.813c-0.096,0 -0.191,-0.027 -0.276,-0.084c-0.23,-0.152 -0.293,-0.463 -0.14,-0.692c0.109,-0.165 2.734,-4.072 7.454,-7.256c0.226,-0.156 0.54,-0.096 0.693,0.135c0.155,0.229 0.095,0.539 -0.135,0.693c-4.557,3.074 -7.154,6.942 -7.181,6.98c-0.095,0.145 -0.254,0.224 -0.415,0.224z"></path></g><g fill="#472b29"><path d="M78.118,45.531c-0.122,0 -0.244,-0.044 -0.341,-0.134c-0.202,-0.188 -0.213,-0.505 -0.025,-0.707c0.007,-0.007 0.635,-0.685 0.936,-1.172c0.146,-0.234 0.454,-0.306 0.688,-0.163c0.235,0.146 0.308,0.453 0.163,0.688c-0.354,0.571 -1.026,1.297 -1.055,1.328c-0.098,0.107 -0.232,0.16 -0.366,0.16z"></path></g></g></g></svg>