<svg version="1.1" xmlns="http://www.w3.org/2000/svg" xmlns:xlink="http://www.w3.org/1999/xlink" width="64px" height="64px" viewBox="0,0,256,256"><defs><radialGradient cx="32.375" cy="35.569" r="49.78" gradientUnits="userSpaceOnUse" id="color-1"><stop offset="0" stop-color="#afeeff" stop-opacity="0.96078"></stop><stop offset="0.193" stop-color="#bbf1ff"></stop><stop offset="0.703" stop-color="#d7f8ff"></stop><stop offset="1" stop-color="#e1faff"></stop></radialGradient><linearGradient x1="35" y1="57" x2="35" y2="13" gradientUnits="userSpaceOnUse" id="color-2"><stop offset="0" stop-color="#ff9757"></stop><stop offset="1" stop-color="#ffb65b"></stop><stop offset="1" stop-color="#ffb65b"></stop></linearGradient><linearGradient x1="32" y1="54" x2="32" y2="10" gradientUnits="userSpaceOnUse" id="color-3"><stop offset="0" stop-color="#ffce76"></stop><stop offset="0.004" stop-color="#ffce76"></stop><stop offset="0.605" stop-color="#ffcd92"></stop><stop offset="1" stop-color="#ffcca0"></stop><stop offset="1" stop-color="#ffcca0"></stop></linearGradient><linearGradient x1="29" y1="51" x2="29" y2="7" gradientUnits="userSpaceOnUse" id="color-4"><stop offset="0" stop-color="#ffce76"></stop><stop offset="0.004" stop-color="#ffce76"></stop><stop offset="0.605" stop-color="#ffcd92"></stop><stop offset="1" stop-color="#ffcca0"></stop><stop offset="1" stop-color="#ffcca0"></stop></linearGradient><linearGradient x1="29" y1="51" x2="29" y2="7" gradientUnits="userSpaceOnUse" id="color-5"><stop offset="0" stop-color="#ff9757"></stop><stop offset="1" stop-color="#ffb65b"></stop><stop offset="1" stop-color="#ffb65b"></stop></linearGradient><linearGradient x1="29" y1="28.471" x2="29" y2="2.471" gradientUnits="userSpaceOnUse" id="color-6"><stop offset="0" stop-color="#ff9757"></stop><stop offset="1" stop-color="#ffb65b"></stop><stop offset="1" stop-color="#ffb65b"></stop></linearGradient></defs><g fill="none" fill-rule="nonzero" stroke="none" stroke-width="1" stroke-linecap="butt" stroke-linejoin="miter" stroke-miterlimit="10" stroke-dasharray="" stroke-dashoffset="0" text-anchor="none" style="mix-blend-mode: normal"><g transform="scale(4,4)"><path d="M60,44h-15l-2.6,-1h6.012c1.138,0 2.202,-0.721 2.497,-1.821c0.446,-1.663 -0.813,-3.179 -2.409,-3.179c-0.828,0 -1.5,-0.672 -1.5,-1.5c0,-0.828 0.672,-1.5 1.5,-1.5h2.912c1.139,0 2.202,-0.721 2.497,-1.821c0.446,-1.663 -0.813,-4.179 -2.409,-4.179h-0.5c-1.105,0 -2,-0.895 -2,-2c0,-1.105 0.895,-2 2,-2h8.412c1.139,0 2.202,-0.721 2.497,-1.821c0.446,-1.663 -0.813,-3.179 -2.409,-3.179h-0.5c-1.105,0 -2,-0.895 -2,-2c0,-1.105 0.895,-2 2,-2h2c1.848,0 3.319,-1.693 2.94,-3.605c-0.283,-1.423 -1.62,-2.395 -3.071,-2.395h-10.369c-0.828,0 -1.5,-0.672 -1.5,-1.5c0,-0.828 0.672,-1.5 1.5,-1.5h5.912c1.139,0 2.202,-0.721 2.497,-1.821c0.446,-1.663 -0.813,-3.179 -2.409,-3.179h-45.912c-1.139,0 -2.202,0.721 -2.497,1.821c-0.446,1.663 0.813,3.179 2.409,3.179v0c1.381,0 2.5,1.119 2.5,2.5c0,1.381 -1.119,2.5 -2.5,2.5h-0.912h-2.588c-1.65,0 -3,1.35 -3,3c0,1.65 1.35,3 3,3h19c0.352,0 0.685,-0.073 1,-0.185v11.185h-7.412c-1.139,0 -2.202,1.721 -2.497,2.821c-0.219,0.817 -0.024,1.595 0.418,2.179h-14.009c-1.381,0 -2.5,1.119 -2.5,2.5c0,1.381 1.119,2.5 2.5,2.5h1c1.381,0 2.5,1.119 2.5,2.5c0,1.381 -1.119,2.5 -2.5,2.5h-0.5c-1.657,0 -3,1.343 -3,3c0,1.657 1.343,3 3,3h5.5c1.381,0 2.5,1.119 2.5,2.5c0,1.381 -1.119,2.5 -2.5,2.5h-1.5c-1.657,0 -3,1.343 -3,3c0,1.657 1.343,3 3,3h48c1.657,0 3,-1.343 3,-3c0,-1.657 -1.343,-3 -3,-3h-0.5c-1.381,0 -2.5,-1.119 -2.5,-2.5c0,-1.381 1.119,-2.5 2.5,-2.5h4.5c1.657,0 3,-1.343 3,-3c0,-1.657 -1.343,-3 -3,-3z" fill="url(#color-1)"></path><path d="M57,35c0,12.148 -9.852,22 -22,22c-12.148,0 -22,-9.852 -22,-22c0,-12.148 9.852,-22 22,-22c12.148,0 22,9.852 22,22z" fill="url(#color-2)"></path><path d="M54,32c0,12.148 -9.852,22 -22,22c-12.148,0 -22,-9.852 -22,-22c0,-12.148 9.852,-22 22,-22c12.148,0 22,9.852 22,22z" fill="url(#color-3)"></path><path d="M51,29c0,12.148 -9.852,22 -22,22c-12.148,0 -22,-9.852 -22,-22c0,-12.148 9.852,-22 22,-22c12.148,0 22,9.852 22,22z" fill="url(#color-4)"></path><path d="M29,7c-12.131,0 -22,9.869 -22,22c0,12.131 9.869,22 22,22c12.131,0 22,-9.869 22,-22c0,-12.131 -9.869,-22 -22,-22zM43.724,41.002c-0.085,-0.148 -0.184,-0.29 -0.31,-0.416c-0.781,-0.781 -2.047,-0.781 -2.828,0c-0.781,0.781 -0.781,2.047 0,2.828c0.126,0.126 0.268,0.225 0.416,0.31c-0.939,0.766 -1.951,1.444 -3.026,2.021c-0.021,-0.167 -0.057,-0.333 -0.123,-0.496c-0.415,-1.024 -1.581,-1.517 -2.605,-1.103c-1.024,0.415 -1.517,1.581 -1.103,2.605c0.068,0.169 0.163,0.317 0.268,0.455c-1.104,0.328 -2.247,0.566 -3.425,0.688c-0.054,-1.054 -0.92,-1.894 -1.988,-1.894c-1.068,0 -1.934,0.84 -1.989,1.895c-1.178,-0.123 -2.32,-0.36 -3.424,-0.688c0.105,-0.138 0.2,-0.286 0.268,-0.455c0.415,-1.024 -0.079,-2.19 -1.103,-2.605c-1.024,-0.415 -2.19,0.079 -2.605,1.103c-0.066,0.163 -0.101,0.33 -0.123,0.497c-1.075,-0.578 -2.088,-1.256 -3.027,-2.022c0.148,-0.085 0.29,-0.184 0.416,-0.31c0.781,-0.781 0.781,-2.047 0,-2.828c-0.781,-0.781 -2.047,-0.781 -2.828,0c-0.126,0.126 -0.225,0.268 -0.31,0.416c-0.766,-0.939 -1.444,-1.951 -2.021,-3.026c0.177,-0.023 0.354,-0.061 0.526,-0.134c1.017,-0.431 1.493,-1.604 1.062,-2.621c-0.431,-1.017 -1.604,-1.493 -2.621,-1.062c-0.158,0.067 -0.297,0.156 -0.427,0.255c-0.328,-1.104 -0.566,-2.247 -0.688,-3.425c1.054,-0.056 1.894,-0.922 1.894,-1.99c0,-1.069 -0.84,-1.934 -1.895,-1.989c0.123,-1.178 0.36,-2.32 0.688,-3.424c0.13,0.099 0.27,0.189 0.428,0.256c1.017,0.431 2.191,-0.045 2.621,-1.062c0.431,-1.017 -0.045,-2.191 -1.062,-2.621c-0.172,-0.073 -0.349,-0.111 -0.526,-0.134c0.578,-1.075 1.256,-2.088 2.022,-3.027c0.085,0.148 0.184,0.29 0.31,0.416c0.781,0.781 2.047,0.781 2.828,0c0.781,-0.781 0.781,-2.047 0,-2.828c-0.126,-0.126 -0.268,-0.225 -0.416,-0.31c0.939,-0.766 1.951,-1.444 3.027,-2.022c0.021,0.167 0.057,0.334 0.123,0.498c0.415,1.024 1.581,1.517 2.605,1.103c1.024,-0.415 1.517,-1.581 1.103,-2.605c-0.068,-0.169 -0.164,-0.318 -0.269,-0.456c1.104,-0.328 2.247,-0.566 3.424,-0.688c0.055,1.053 0.921,1.893 1.989,1.893c1.068,0 1.934,-0.84 1.989,-1.895c1.178,0.123 2.321,0.36 3.425,0.688c-0.105,0.138 -0.2,0.287 -0.269,0.456c-0.415,1.024 0.079,2.19 1.103,2.605c1.024,0.415 2.19,-0.079 2.605,-1.103c0.066,-0.163 0.101,-0.33 0.123,-0.497c1.075,0.578 2.087,1.255 3.026,2.021c-0.148,0.085 -0.289,0.184 -0.416,0.31c-0.781,0.781 -0.781,2.047 0,2.828c0.781,0.781 2.047,0.781 2.828,0c0.126,-0.126 0.225,-0.268 0.31,-0.416c0.766,0.939 1.444,1.951 2.022,3.027c-0.177,0.023 -0.353,0.061 -0.525,0.133c-1.017,0.431 -1.493,1.604 -1.062,2.621c0.431,1.017 1.604,1.493 2.621,1.062c0.157,-0.067 0.297,-0.156 0.427,-0.255c0.328,1.104 0.565,2.246 0.688,3.423c-1.055,0.058 -1.895,0.923 -1.895,1.992c0,1.068 0.84,1.934 1.895,1.989c-0.123,1.178 -0.36,2.32 -0.688,3.424c-0.13,-0.099 -0.269,-0.188 -0.427,-0.255c-1.017,-0.431 -2.191,0.045 -2.621,1.062c-0.431,1.017 0.045,2.191 1.062,2.621c0.172,0.073 0.348,0.111 0.525,0.133c-0.578,1.077 -1.256,2.089 -2.022,3.028z" fill="url(#color-5)"></path><path d="M31.845,28.186l-3.9,-1.95c-0.648,-0.323 -1.022,-1.01 -0.931,-1.746c0.107,-0.874 0.926,-1.49 1.806,-1.49h0.18c0.882,0 1.735,0.574 2,1.368c0.133,0.398 0.548,0.632 0.967,0.632h2.033c0.612,0 1.108,-0.55 0.991,-1.15c-0.409,-2.101 -1.98,-3.807 -3.992,-4.505v-1.845c0,-0.828 -0.672,-1.5 -1.5,-1.5c-0.828,0 -1.499,0.672 -1.499,1.5v1.547c-3.088,0.384 -5.419,3.241 -4.937,6.522c0.278,1.888 1.563,3.48 3.27,4.334l3.722,1.861c0.648,0.323 1.022,1.01 0.931,1.746c-0.107,0.874 -0.926,1.49 -1.806,1.49h-0.18c-0.882,0 -1.735,-0.574 -2,-1.368c-0.132,-0.395 -0.537,-0.632 -0.953,-0.632h-2.047c-0.613,0 -1.108,0.551 -0.991,1.152c0.41,2.1 1.981,3.805 3.991,4.503v1.845c0,0.828 0.672,1.5 1.5,1.5c0.828,0 1.5,-0.672 1.5,-1.5v-1.579c2.468,-0.374 4.556,-2.227 4.933,-4.741c0.379,-2.52 -0.88,-4.89 -3.088,-5.994z" fill="url(#color-6)"></path></g></g></svg>