<svg version="1.1" xmlns="http://www.w3.org/2000/svg" xmlns:xlink="http://www.w3.org/1999/xlink" width="48px" height="48px" viewBox="0,0,256,256"><g fill="none" fill-rule="nonzero" stroke="none" stroke-width="1" stroke-linecap="butt" stroke-linejoin="miter" stroke-miterlimit="10" stroke-dasharray="" stroke-dashoffset="0" text-anchor="none" style="mix-blend-mode: normal"><g transform="scale(5.33333,5.33333)"><path d="M42,35c0,8 -8.1,8 -18,8c-9.9,0 -18,0 -18,-8c0,-8 8.1,-18 18,-18c9.9,0 18,10 18,18z" fill-opacity="0.98824" fill="#43a047"></path><path d="M30,8.6c-1.9,2.1 -1,-4.4 -5,0c-1.9,2.1 -1,-4.4 -5,0c-1.7,1.9 -1.2,-3.1 -3.9,-1.1l2.9,10.5h10l3,-11c-0.5,0.2 -1.1,0.6 -2,1.6z" fill-opacity="0.98824" fill="#43a047"></path><path d="M25.5,33.7c0,-0.5 -0.1,-0.9 -0.4,-1.1c-0.3,-0.3 -0.7,-0.5 -1.4,-0.8c-0.6,-0.2 -1.2,-0.5 -1.7,-0.7c-0.5,-0.2 -0.9,-0.5 -1.2,-0.8c-0.3,-0.3 -0.6,-0.7 -0.8,-1.1c-0.2,-0.4 -0.3,-0.9 -0.3,-1.5c0,-1 0.3,-1.8 0.9,-2.4c0.6,-0.6 1.5,-1 2.5,-1.1v-1.9h1.4v1.9c1,0.1 1.8,0.6 2.4,1.3c0.6,0.7 0.9,1.6 0.9,2.8h-2.5c0,-0.7 -0.1,-1.2 -0.4,-1.6c-0.3,-0.4 -0.7,-0.5 -1.2,-0.5c-0.5,0 -0.9,0.1 -1.1,0.4c-0.3,0.3 -0.4,0.6 -0.4,1.1c0,0.4 0.1,0.8 0.4,1.1c0.3,0.3 0.7,0.5 1.4,0.8c0.7,0.3 1.3,0.5 1.7,0.8c0.5,0.2 0.8,0.5 1.1,0.8c0.3,0.3 0.5,0.7 0.7,1.1c0.2,0.4 0.2,0.9 0.2,1.4c0,1 -0.3,1.8 -0.9,2.4c-0.6,0.6 -1.5,1 -2.6,1.1v1.8h-1.4v-1.7c-1.2,-0.1 -2.1,-0.6 -2.8,-1.3c-0.7,-0.7 -1,-1.7 -1,-2.9h2.5c0,0.7 0.2,1.2 0.5,1.6c0.3,0.4 0.8,0.6 1.4,0.6c0.5,0 0.9,-0.1 1.2,-0.4c0.7,-0.3 0.9,-0.7 0.9,-1.2z" fill="#ffffff"></path><path d="M14,40c-0.5,0 -0.9,-0.3 -1,-0.8c-0.5,-2.3 -0.5,-4.7 -0.2,-7.1c0.6,-4.8 2.2,-9.4 4.6,-12.9c0.1,-0.1 0.1,-0.2 0.2,-0.3c0.3,-0.5 0.6,-1 1.1,-1.3c0.6,-0.4 1.1,-0.3 1.5,-0.2h0.2c0.8,0.2 1.5,0.3 2.2,0.4c2.2,0.3 4.4,0 6.2,-0.7c0.5,-0.2 1.1,0 1.3,0.6c0.2,0.5 0,1.1 -0.6,1.3c-2.1,0.9 -4.6,1.1 -7.2,0.8c-0.7,-0.1 -1.5,-0.2 -2.4,-0.5h-0.1c-0.1,0.2 -0.3,0.4 -0.4,0.6c-0.1,0.2 -0.2,0.3 -0.3,0.4c-2.2,3.2 -3.7,7.5 -4.3,12c-0.3,2.2 -0.2,4.3 0.2,6.4c0.1,0.5 -0.2,1.1 -0.8,1.2c-0.1,0.1 -0.1,0.1 -0.2,0.1z" fill="#fdd835"></path><path d="M11,30c-0.6,0 -1,-0.4 -1,-1c0,-3.4 4.1,-11 8.8,-12c0.5,-0.1 1.1,0.2 1.2,0.8c0.1,0.5 -0.2,1.1 -0.8,1.2c-3.6,0.7 -7.2,7.3 -7.2,10c0,0.6 -0.4,1 -1,1z" fill="#fdd835"></path></g></g></svg>