<svg width="36" height="36" viewBox="0 0 36 36" fill="none" xmlns="http://www.w3.org/2000/svg">
<path d="M29.7084 30V13.698L18.125 6.49795L6.54171 13.698V30H12.3334V25.875C12.3334 24.2837 12.9436 22.7575 14.0297 21.6323C15.1159 20.5071 16.589 19.875 18.125 19.875C19.6611 19.875 21.1342 20.5071 22.2204 21.6323C23.3065 22.7575 23.9167 24.2837 23.9167 25.875V30H29.7084ZM21.0209 33V25.875C21.0209 25.0793 20.7158 24.3162 20.1727 23.7536C19.6296 23.191 18.8931 22.875 18.125 22.875C17.357 22.875 16.6205 23.191 16.0774 23.7536C15.5343 24.3162 15.2292 25.0793 15.2292 25.875V33H6.54171C5.77368 33 5.03712 32.6839 4.49404 32.1213C3.95097 31.5587 3.64587 30.7956 3.64587 30V13.698C3.64587 13.1799 3.77536 12.6707 4.02174 12.2198C4.26812 11.769 4.623 11.392 5.0518 11.1255L16.6351 3.92545C17.0852 3.6457 17.6002 3.49792 18.125 3.49792C18.6499 3.49792 19.1649 3.6457 19.6149 3.92545L31.1983 11.1255C31.6271 11.392 31.982 11.769 32.2283 12.2198C32.4747 12.6707 32.6042 13.1799 32.6042 13.698V30C32.6042 30.7956 32.2991 31.5587 31.756 32.1213C31.213 32.6839 30.4764 33 29.7084 33H21.0209Z" fill="#AAAAAA"/>
</svg>
