
<svg width="30" height="31" viewBox="0 0 30 31" fill="none" xmlns="http://www.w3.org/2000/svg">
<path d="M19.5 30.0975V22.5975C19.5 21.404 19.0259 20.2594 18.182 19.4155C17.3381 18.5716 16.1935 18.0975 15 18.0975C13.8065 18.0975 12.6619 18.5716 11.818 19.4155C10.9741 20.2594 10.5 21.404 10.5 22.5975V30.0975H3C2.20435 30.0975 1.44129 29.7814 0.87868 29.2188C0.316071 28.6562 1.38884e-10 27.8931 1.38884e-10 27.0975V10.7955C-4.98411e-06 10.2774 0.134146 9.7682 0.38939 9.31738C0.644633 8.86657 1.01227 8.48953 1.4565 8.22299L13.4565 1.02299C13.9227 0.743235 14.4563 0.595459 15 0.595459C15.5437 0.595459 16.0773 0.743235 16.5435 1.02299L28.5435 8.22299C28.9877 8.48953 29.3554 8.86657 29.6106 9.31738C29.8659 9.7682 30 10.2774 30 10.7955V27.0975C30 27.8931 29.6839 28.6562 29.1213 29.2188C28.5587 29.7814 27.7957 30.0975 27 30.0975H19.5Z" fill="url(#paint0_linear_1_490)"/>
<defs>
<linearGradient id="paint0_linear_1_490" x1="15" y1="0.595459" x2="15" y2="30.0975" gradientUnits="userSpaceOnUse">

<svg width="36" height="36" viewBox="0 0 36 36" fill="none" xmlns="http://www.w3.org/2000/svg">
<path d="M22.5 33.0975V25.5975C22.5 24.404 22.0259 23.2594 21.182 22.4155C20.3381 21.5716 19.1935 21.0975 18 21.0975C16.8065 21.0975 15.6619 21.5716 14.818 22.4155C13.9741 23.2594 13.5 24.404 13.5 25.5975V33.0975H6C5.20435 33.0975 4.44129 32.7814 3.87868 32.2188C3.31607 31.6562 3 30.8931 3 30.0975V13.7955C3 13.2774 3.13415 12.7682 3.38939 12.3174C3.64463 11.8666 4.01227 11.4895 4.4565 11.223L16.4565 4.02299C16.9227 3.74324 17.4563 3.59546 18 3.59546C18.5437 3.59546 19.0773 3.74324 19.5435 4.02299L31.5435 11.223C31.9877 11.4895 32.3554 11.8666 32.6106 12.3174C32.8659 12.7682 33 13.2774 33 13.7955V30.0975C33 30.8931 32.6839 31.6562 32.1213 32.2188C31.5587 32.7814 30.7957 33.0975 30 33.0975H22.5Z" fill="url(#paint0_linear_1_489)"/>
<defs>
<linearGradient id="paint0_linear_1_489" x1="18" y1="3.59546" x2="18" y2="33.0975" gradientUnits="userSpaceOnUse">

<stop stop-color="#549994"/>
<stop offset="1" stop-color="#408782"/>
</linearGradient>
</defs>
</svg>
