<svg version="1.1" xmlns="http://www.w3.org/2000/svg" xmlns:xlink="http://www.w3.org/1999/xlink" width="256px" height="256px" viewBox="0,0,256,256"><g fill="none" fill-rule="nonzero" stroke="none" stroke-width="1" stroke-linecap="butt" stroke-linejoin="miter" stroke-miterlimit="10" stroke-dasharray="" stroke-dashoffset="0"  text-anchor="none" style="mix-blend-mode: normal"><g><path d="M19.956,176.035v68.585c0,2.616 2.115,4.732 4.732,4.732h16.665c2.616,0 4.732,-2.116 4.732,-4.732v-68.585c0,-2.608 -2.115,-4.732 -4.732,-4.732h-16.665c-2.616,0 -4.732,2.124 -4.732,4.732z" fill="#5fcdff"></path><path d="M19.956,176.035v68.585c0,2.616 2.115,4.732 4.732,4.732h3.713c2.616,0 4.732,-2.116 4.732,-4.732v-68.585c0,-2.608 -2.115,-4.732 -4.732,-4.732h-3.713c-2.616,0 -4.732,2.124 -4.732,4.732z" fill="#30b6ff"></path><path d="M146.221,192.453c-0.294,6.239 -5.668,11.04 -11.915,11.04h-10.537l8.056,3.929c6.136,2.993 13.246,3.278 19.602,0.788l56.297,-27.221c8.328,-2.835 16.975,3.356 16.975,12.153c0,5.339 -3.305,10.122 -8.3,12.009l-29.471,15.048c-9.381,4.79 -19.221,8.656 -29.415,11.31c-15.573,4.054 -31.625,6.116 -47.772,6.116h-5.052c-12.998,0 -25.966,-0.898 -38.926,-1.898c-3.132,-0.242 -6.266,-0.098 -9.328,0.414c-3.575,0.596 -7.055,1.693 -10.348,3.272v-54.719c5.697,-2.195 11.644,-3.575 17.665,-4.129c1.299,-0.117 2.604,-0.184 3.909,-0.225v-0.047h66.972c6.593,-0.001 11.901,5.498 11.588,12.16z" fill="#ffbb98"></path><path d="M216.401,188.84l-29.474,15.047c-9.383,4.795 -19.222,8.665 -29.409,11.318c-15.58,4.044 -31.627,6.11 -47.771,6.11h-5.055c-13.003,0 -25.973,-0.891 -38.932,-1.892c-3.131,-0.25 -6.262,-0.098 -9.328,0.413c-3.566,0.587 -7.056,1.685 -10.339,3.272v16.308c3.283,-1.587 6.773,-2.685 10.339,-3.272c3.066,-0.511 6.197,-0.663 9.328,-0.413c12.96,1 25.93,1.892 38.932,1.892h5.055c16.145,0 32.192,-2.066 47.771,-6.11c10.187,-2.653 20.026,-6.523 29.409,-11.318l29.474,-15.047c4.99,-1.881 8.295,-6.664 8.295,-12.003c0,-3.153 -1.109,-5.98 -2.924,-8.165c-1.392,1.696 -3.219,3.044 -5.371,3.86z" fill="#ffcaa6"></path><g><path d="M215.773,151.623v10.535c0,3.791 -3.071,6.87 -6.87,6.87l-81.975,-0.306c-3.784,0 -6.863,-3.079 -6.863,-6.87v-10.236c0,-9.482 7.69,-17.172 17.172,-17.156c3.454,0 5.537,0.008 11.611,0.015h49.769c9.474,0 17.156,7.674 17.156,17.148z" fill="#ff4a73"></path><path d="M209.707,168.983c-0.268,0.031 -0.536,0.046 -0.804,0.046l-81.975,-0.306c-3.784,0 -6.863,-3.079 -6.863,-6.87v-10.236c0,-9.482 7.69,-17.172 17.172,-17.156c3.316,0 5.369,0.008 10.899,0.015c-9.206,0.291 -16.582,7.858 -16.582,17.141v10.236c0,3.791 3.079,6.87 6.863,6.87z" fill="#f973a3"></path><path d="M198.617,134.475h-11.489c9.474,0 17.156,7.674 17.156,17.149v10.535c0,3.523 -2.65,6.426 -6.066,6.824l10.684,0.046c3.799,0 6.87,-3.079 6.87,-6.87v-10.535c0.001,-9.475 -7.681,-17.149 -17.155,-17.149z" fill="#ea2a6a"></path><path d="M169.513,134.475h-12.201c0.199,-0.015 0.391,-0.015 0.59,-0.015c3.454,0 5.537,0.007 11.611,0.015z" fill="#ffcaa6"></path><path d="M158.021,109.352v26.191c0,2.544 0.991,4.988 2.764,6.813c3.733,3.843 9.863,3.966 13.747,0.276c2.276,-2.163 3.287,-4.652 3.287,-7.32v-25.96z" fill="#ffbb98"></path><path d="M167.92,119.391v0c-16.874,0 -30.68,-13.806 -30.68,-30.68v-38.987c0,-3.786 3.069,-6.854 6.854,-6.854h15.312c2.044,0 3.972,0.948 5.22,2.567c1.824,2.367 3.263,4.843 6.973,4.843h20.145c3.786,0 6.854,3.069 6.854,6.854v31.576c0.001,16.875 -13.804,30.681 -30.678,30.681z" fill="#ffbb98"></path><path d="M198.6,57.136v31.571c0,16.876 -13.805,30.68 -30.68,30.68c-1.748,0 -3.468,-0.151 -5.141,-0.439c14.449,-2.461 25.54,-15.114 25.54,-30.242v-31.837c0,-3.64 -2.954,-6.587 -6.594,-6.587h10.021c3.785,0 6.854,3.068 6.854,6.854z" fill="#ffaa80"></path><path d="M173.06,118.949c-1.672,0.288 -3.393,0.439 -5.141,0.439c-16.876,0 -30.68,-13.805 -30.68,-30.674v-38.988c0,-3.786 3.069,-6.854 6.854,-6.854h10.021c-3.64,0 -6.594,2.947 -6.594,6.587v39.255c0.001,15.121 11.091,27.774 25.54,30.235z" fill="#ffcaa6"></path><g fill="#a4a4a5"><path d="M113.6,70.143c-0.003,-0.004 -0.005,-0.007 -0.007,-0.011c-0.024,0.012 -0.018,0.014 0.007,0.011z"></path></g><path d="M176.032,9.128c-7.974,-3.694 -17.349,-3.305 -24.723,1.475c-13.228,8.576 -5.404,20.636 -5.404,20.636c-44.678,20.239 -8.666,45.725 -8.666,45.725c5.586,-18.937 30.68,-24.855 30.68,-24.855c0,0 23.209,7.93 30.532,29.908c-0.032,-0.155 38.217,-44.795 -22.419,-72.889z" fill="#ffe2e2"></path><path d="M170.215,7.203c-2.897,0.611 -5.695,1.74 -8.252,3.402c-13.23,8.571 -5.404,20.637 -5.404,20.637c-30.153,13.663 -23.549,29.713 -16.064,38.696c-1.371,2.109 -2.493,4.446 -3.252,7.024c0,0 -36.012,-25.48 8.664,-45.72c0,0 -7.826,-12.066 5.404,-20.637c5.638,-3.658 12.441,-4.744 18.904,-3.402z" fill="#ffefee"></path><path d="M198.451,82.018c-1.172,-3.508 -2.748,-6.661 -4.566,-9.48c7.627,-14.651 14.949,-43.277 -28.506,-63.41c-1.875,-0.867 -3.828,-1.513 -5.809,-1.924c5.447,-1.158 11.256,-0.49 16.461,1.924c60.64,28.093 22.391,72.734 22.42,72.89z" fill="#ffcfcf"></path></g><g fill="#5f266d"><path d="M205.982,177.385c-60.388,29.201 -57.715,28.8 -64.441,28.474c14.729,-7.315 9.508,-29.567 -6.908,-29.567c-63.7,0 -70.285,-1.354 -84.554,2.834v-3.086c0,-4.82 -3.91,-8.74 -8.73,-8.74h-16.659c-4.82,0 -8.73,3.92 -8.73,8.74v68.58c0,4.81 3.91,8.73 8.73,8.73h16.66c4.82,0 8.73,-3.92 8.73,-8.73v-2.587c17.672,-6.97 55.587,7.112 108.451,-6.656c18.681,-4.868 28.819,-10.906 59.504,-26.573c6.389,-2.516 10.664,-8.777 10.664,-15.659c0,-13.01 -13.945,-19.999 -22.717,-15.76zM42.08,244.62c0,0.41 -0.32,0.73 -0.73,0.73h-16.66c-0.41,0 -0.73,-0.32 -0.73,-0.73v-68.58c0,-0.41 0.32,-0.74 0.73,-0.74h16.66c0.41,0 0.73,0.33 0.73,0.74zM214.989,201.404c-6.784,2.532 -34.244,19.918 -58.475,26.23c-50.416,13.133 -87.223,-0.08 -106.43,5.918v-46.054c12.375,-4.15 13.93,-3.207 84.549,-3.207c4.191,0 7.601,3.409 7.601,7.601c0,4.19 -3.409,7.6 -7.601,7.6h-40.958c-2.209,0 -4,1.791 -4,4c0,2.209 1.791,4 4,4h29.166c5.088,2.481 17.788,10.32 30.326,4.318c59.842,-28.937 56.126,-27.515 58.71,-27.515c9.764,0.001 12.245,13.662 3.112,17.109z"></path><path d="M67.66,215.05c-2.21,0 -4,1.79 -4,4v1.97c0,2.21 1.79,4 4,4c2.21,0 4,-1.79 4,-4v-1.97c0,-2.21 -1.79,-4 -4,-4z"></path><path d="M67.66,191.05c-2.21,0 -4,1.79 -4,4v9c0,2.21 1.79,4 4,4c2.21,0 4,-1.79 4,-4v-9c0,-2.21 -1.79,-4 -4,-4z"></path><path d="M126.913,172.723c88.997,0.332 84.168,1.107 88.105,-1.584c2.868,-1.959 4.756,-5.253 4.756,-8.981v-10.535c0,-0.022 -0.006,-0.043 -0.007,-0.065c-0.034,-11.631 -9.508,-21.088 -21.147,-21.088h-16.8v-10c3.9,-1.7 7.49,-4.15 10.6,-7.26c6.56,-6.57 10.18,-15.27 10.18,-24.5v-5.55c4.54,-6.15 15.13,-23.05 10.63,-41.61c-3.56,-14.65 -15.51,-26.78 -35.52,-36.05c-18.823,-8.724 -39.184,3.776 -38.05,18.93c0.13,1.85 0.53,3.51 1,4.89c-26.269,13.333 -27.335,33.255 -7.42,49.6v9.79c0,14.18 8.56,26.4 20.78,31.77v9.99c-10.461,0 -16.78,-0.01 -16.78,-0.01h-0.03c-11.662,0 -21.097,9.416 -21.136,21.087c0,0.026 -0.008,0.05 -0.008,0.076v10.229c0,5.995 4.873,10.871 10.847,10.871zM127.83,57.79c8.574,0.696 16.392,-1.758 22.59,-7.15c1.11,-0.97 1.55,-2.42 1.3,-3.77c-0.578,-2.979 -4.213,-4.311 -6.57,-2.25c-3.95,3.44 -8.27,4.77 -11.91,5.17c-1.7,0.18 -3.24,0.16 -4.53,0.07c2.83,-6.11 10.31,-10.9 17.14,-14.18c11.428,5.41 25.913,8.669 38.28,5.89c2.16,-0.48 3.51,-2.62 3.03,-4.77c-0.48,-2.16 -2.62,-3.52 -4.78,-3.03c-14.1,3.15 -29.59,-3.63 -33.59,-5.56c-6.066,-12.085 11.643,-21.9 25.56,-15.45c18.28,8.463 34.016,21.647 31.76,41.84c-3.673,-0.507 -6.862,-2.714 -9.21,-5.82c-1.33,-1.76 -3.84,-2.12 -5.6,-0.79c-1.77,1.33 -2.12,3.84 -0.79,5.6c3.489,4.656 8.145,7.844 13.93,8.84c-1.191,3.725 -2.839,7.438 -5.18,11.34c-6.781,-12.777 -20.019,-21.963 -30.05,-25.45c-3.485,-1.163 -25.619,6.766 -33.57,21.99c-3.403,-3.314 -6.822,-7.831 -7.81,-12.52zM141.24,88.71v-11.1c4.47,-13.97 21.85,-19.94 26.47,-21.3c4.42,1.81 21.08,9.65 26.89,26.8c0,6.029 0.97,15.613 -7.84,24.44c-16.94,16.939 -45.52,4.638 -45.52,-18.84zM162.02,122.89c3.856,0.662 7.873,0.671 11.8,0c0,13.756 0.56,14.301 -2.04,16.84c-3.618,3.428 -9.76,0.966 -9.76,-4.19c0,-4.396 0,-8.242 0,-12.65zM124.07,151.62c0,-3.52 1.37,-6.83 3.86,-9.32c4.944,-4.944 9.222,-3.84 26.4,-3.84c1.321,6.115 6.752,10.84 13.46,10.84c6.959,0 12.326,-5.103 13.67,-10.83h17.16c7.25,0 13.15,5.9 13.15,13.15v10.54c0,1.545 -1.284,2.868 -2.852,2.868c-40.072,-0.149 -18.548,-0.068 -81.988,-0.308c-1.58,0 -2.86,-1.28 -2.86,-2.87z"></path><path d="M160.752,75.216c-2.209,0 -4,1.791 -4,4c0,2.117 -3.204,2.116 -3.204,0c0,-2.209 -1.791,-4 -4,-4c-7.169,0 -4.258,13.602 5.602,13.602c9.871,-0.001 12.765,-13.602 5.602,-13.602z"></path><path d="M180.689,88.817c9.875,0 12.762,-13.602 5.602,-13.602c-2.209,0 -4,1.791 -4,4c0,2.116 -3.203,2.116 -3.203,0c0,-2.209 -1.791,-4 -4,-4c-7.169,0.001 -4.258,13.602 5.601,13.602z"></path><path d="M176.405,91.509c-2.209,0 -4,1.791 -4,4c0,2.474 -2.012,4.485 -4.485,4.485c-2.473,0 -4.486,-2.012 -4.486,-4.485c0,-2.209 -1.791,-4 -4,-4c-7.784,0 -3.773,16.485 8.486,16.485c12.294,0 16.249,-16.485 8.485,-16.485z"></path><path d="M94.254,39.772h3.099v3.1c0,2.209 1.791,4 4,4c2.209,0 4,-1.791 4,-4v-3.1h3.099c2.209,0 4,-1.791 4,-4c0,-2.209 -1.791,-4 -4,-4h-3.099v-3.099c0,-2.209 -1.791,-4 -4,-4c-2.209,0 -4,1.791 -4,4v3.099h-3.099c-2.209,0 -4,1.791 -4,4c0,2.209 1.791,4 4,4z"></path><path d="M80.056,69.793h3.099v3.1c0,2.209 1.791,4 4,4c2.209,0 4,-1.791 4,-4v-3.1h3.1c2.209,0 4,-1.791 4,-4c0,-2.209 -1.791,-4 -4,-4h-3.1v-3.1c0,-2.209 -1.791,-4 -4,-4c-2.209,0 -4,1.791 -4,4v3.1h-3.099c-2.209,0 -4,1.791 -4,4c0,2.209 1.791,4 4,4z"></path><path d="M236.044,92.424h-3.1v-3.099c0,-2.209 -1.791,-4 -4,-4c-2.209,0 -4,1.791 -4,4v3.099h-3.1c-2.209,0 -4,1.791 -4,4c0,2.209 1.791,4 4,4h3.1v3.1c0,2.209 1.791,4 4,4c2.209,0 4,-1.791 4,-4v-3.1h3.1c2.209,0 4,-1.791 4,-4c0,-2.209 -1.791,-4 -4,-4z"></path></g></g></g></svg>