<?xml version="1.0"?><svg version="1.2" baseProfile="tiny-ps" viewBox="0 0 160 160" xmlns="http://www.w3.org/2000/svg" xmlns:xlink="http://www.w3.org/1999/xlink"><title>ic_spa</title><g><g fill="#eee676" transform="matrix(.1 0 0 -.1 0 160)"><path d="m861 1383-54-16-38-37-39-37v-76l17-19 17-19-14-9c-8-4-31-18-51-30l-36-22-16-28-17-28v-84l31-29 31-29-17-7-18-6-21 13c-11 8-41 25-65 39l-44 24-54-28c-30-15-63-39-73-53l-20-25v-72l25-54 26-54-50 46-49 46-26 7c-41 10-70-2-124-51l-51-46 5-32c4-18 10-49 16-71l9-38 25-25 26-25 78 4 78 5-46-25c-26-13-57-35-69-48l-23-25v-75l28-55 27-54 27-3 28-3 19-28 20-28 53-24 53-23 220-4 220-4 170 11 170 10 58 17 58 17 40 36 40 36 10 43 9 42-14 69-15 69-26 40c-15 22-34 43-42 46l-15 6 27 22 27 21 14 33c8 19 14 48 14 66v33l-19 41-18 40-39 32c-21 18-57 39-80 48l-41 15 34 34 33 33v105l-47 47c-27 26-55 49-63 52l-15 6 13 13 12 13v79l-39 37-38 37-60 16-59 17-55-1-54-1-54-15z"/></g><g fill="#81dfea" transform="matrix(.1 0 0 -.1 0 160)"><path d="m861 1383-54-16-38-37-39-37v-76l17-19 17-19-14-9c-8-4-31-18-51-30l-36-22-16-28-17-28v-84l31-29 31-29-17-7-18-6-21 13c-11 8-41 25-65 39l-44 24-54-28c-30-15-63-39-73-53l-20-25v-72l25-54 26-54-50 46-49 46-26 7c-41 10-70-2-124-51l-51-46 5-32c4-18 10-49 16-71l9-38 25-25 26-25 78 4 78 5-46-25c-26-13-57-35-69-48l-23-25v-75l28-55 27-54 27-3 28-3 19-28 20-28 53-24 53-23 220-4 220-4 170 11 170 10 58 17 58 17 40 36 40 36 10 43 9 42-14 69-15 69-26 40c-15 22-34 43-42 46l-15 6 27 22 27 21 14 33c8 19 14 48 14 66v33l-19 41-18 40-39 32c-21 18-57 39-80 48l-41 15 34 34 33 33v105l-47 47c-27 26-55 49-63 52l-15 6 13 13 12 13v79l-39 37-38 37-60 16-59 17-55-1-54-1-54-15zM576 640c3 0 21 7 42 16l37 15-40-40-39-41 29-1c17 0 39-4 50-8l20-8-39-7-38-7 19-22c11-12 24-28 28-36l9-15-36 22c-19 12-40 22-45 22h-10l7-42c10-54 6-59-15-19-8 17-17 31-19 31s-14-15-25-32l-22-33 7 48 7 49-43-22-43-22 22 30 21 30-16 6c-9 3-25 6-37 6h-22l15 10c8 5 27 10 43 10 35 0 34 7-5 48l-33 34 37-15 37-16 3 37 3 37 21-38 20-39 20 44 19 43 3-38c2-20 5-37 8-37z"/></g><g fill="#79cfd9" transform="matrix(.1 0 0 -.1 0 160)"><path d="m861 1383-54-16-38-37-39-37v-76l17-19 17-19-14-9c-8-4-31-18-51-30l-36-22-16-28-17-28v-84l32-30 31-29-22-6-22-6 7-16c4-9 9-30 11-46l5-30-35-68c-20-37-33-67-31-67 3 0 19 16 36 35 17 20 50 47 74 61l44 26 34-12c19-6 40-18 48-27l13-16-34 18-34 17-36-11-36-10-58-52c-58-52-68-71-25-48l23 12-19-21-19-22 54 30c30 16 76 34 103 40l49 11 44-7 43-6v-22c0-12-7-45-15-74l-15-51-28-22-27-21-65 7c-36 4-76 8-90 9l-25 1 1-18 2-17-37 22-36 22 63-58 63-59 24-41 24-41 7-44 7-43-14-9-14-9H609l-18 10c-23 12-41 55-56 133l-11 62-8-55c-5-30-15-72-23-93l-15-38-19-9c-10-6-30-10-46-9l-28 1 31 9 32 9 15 24c16 24 41 105 51 166l6 35-15-19-15-20v15c0 8-16-15-35-50-42-78-66-105-125-139l-45-27 27-3 28-3 19-28 20-28 53-24 53-23 220-4 220-4 170 11 170 10 58 17 58 17 40 36 40 36 10 43 9 42-14 69-15 69-26 40c-15 22-34 43-42 46l-15 6 27 22 27 21 14 33c8 19 14 48 14 66v33l-19 41-18 40-39 32c-21 18-57 39-80 48l-41 15 34 34 33 33v105l-47 47c-27 26-55 49-63 52l-15 6 13 13 12 13v79l-39 37-38 37-60 16-59 17-55-1-54-1-54-15zM739 481c24-15 53-39 64-53l20-27-10-43-10-43v43l-1 43-28 31c-16 16-51 43-79 60l-50 29 25-6c14-4 45-19 69-34zM472 950l-41-30-17-31-16-32 5-34c3-19 21-66 39-105l33-71 6 32 7 32-8 62-7 62 9 38c5 22 16 53 24 69 9 16 14 32 11 34-2 2-22-9-45-26zM145 644c7-25 21-56 30-70l16-25 27-10 27-11 83 5 82 6 18 10 17 10-30 1h-30l15 10 15 10h-36c-19 0-60 7-90 16l-54 16-52 39-52 39 14-46z"/></g><g fill="#587380" transform="matrix(.1 0 0 -.1 0 160)"><path d="m861 1383-54-16-38-37-39-37v-76l17-19 17-19-14-9c-8-4-31-18-51-30l-36-22-16-28-17-28v-84l32-30 31-29-21-6-22-5 10-18c6-10 10-34 10-52v-33l-25-54-26-54 50 46 49 46 26 7c41 10 70-2 124-51l51-46-5-32c-3-18-13-54-21-80l-15-48-24-16-25-16-77 6-76 6 54-30c30-16 63-39 73-50l17-21v-74l-27-55-28-54-53-8-53-9-36 9-36 8-19 25-18 25-14 65c-8 36-15 57-15 48-1-9-6-40-12-68l-11-51-21-25-22-25-52-6-52-6 10-19 11-20 56-26 57-27 220-3 220-4 170 11 170 10 58 17 58 17 40 36 40 36 10 43 9 42-14 69-15 69-26 40c-15 22-34 43-42 46l-15 6 27 22 27 21 14 33c8 19 14 48 14 66v33l-19 41-18 40-39 32c-21 18-57 39-80 48l-41 15 34 34 33 33v105l-47 47c-27 26-55 49-63 52l-15 6 13 13 12 13v79l-39 37-38 37-60 16-59 17-55-1-54-1-54-15z"/></g><g fill="#425762" transform="matrix(.1 0 0 -.1 0 160)"><path d="m1160 1172-35-15-125-4-125-4-55 14-54 15-36-19c-45-24-62-38-83-69l-17-24v-88l30-28 30-28 48-17 47-16 109-10 109-9 100 10 99 10 34 16c19 9 45 30 59 46l25 30v98l-37 41c-20 22-48 46-62 53l-26 13-35-15zM675 824c-4-21-14-52-22-69l-15-30 28 26c16 14 39 33 51 41l23 15-29 27-29 27-7-37zm670-44v-59l-30-31-29-31-51-14-50-14-103-6-104-7-28 27-29 27-11-43c-6-24-16-56-21-70l-10-26-26-14-26-14-61 2-61 1 36-18c20-11 49-34 64-51l27-32-7-36c-3-20-17-59-29-87l-24-51-32-7c-18-3-52-6-77-6h-44l-28 15-29 14-16 48c-9 25-17 58-17 72l-2 26-4-25c-2-14-11-46-19-73l-16-47-28-15-29-15h-82l12-21 11-21 56-26 57-27 220-3 220-4 170 11 170 10 58 17 58 17 40 36 40 36 10 43 9 42-14 69-15 69-26 40c-15 22-33 43-41 46l-14 6-58-14c-31-8-97-17-147-21l-90-6-20 15-20 15 100 1h101l57 15c32 8 68 22 81 30l24 16 13 31 13 32-1 39-2 38-21 35c-12 19-29 38-39 43l-17 9 1-58z"/></g><g fill="#36474f" transform="matrix(.1 0 0 -.1 0 160)"><path d="m1196 1118 6-44-27-32-27-32-56-16-57-17-140 1H755l-45 11c-50 11-59 8-40-14 23-27 70-47 149-61l76-13 96-1h95l60 11c32 6 74 18 92 26l33 16 14 28c8 15 15 39 15 52v24l-22 32c-13 18-38 42-55 53l-33 20 6-44zm196-641 10-42-5-49-4-50-36-32-35-33-39-10c-21-6-69-16-108-21l-70-10-335-5c-184-2-348-4-364-5h-28l13-16c7-8 25-22 41-30l28-15 88-7 87-8 300 7 300 7 56 14c31 8 73 25 93 37l36 23 17 31 16 31-6 63-6 64-20 43c-10 24-23 46-29 50l-10 6 10-43z"/></g></g></svg>