<svg width="20" height="20" viewBox="0 0 20 20" fill="none" xmlns="http://www.w3.org/2000/svg">
<path d="M17.1834 7.04134C16.3084 3.19134 12.95 1.45801 10 1.45801C10 1.45801 10 1.45801 9.99168 1.45801C7.05002 1.45801 3.68335 3.18301 2.80835 7.03301C1.83335 11.333 4.46669 14.9747 6.85002 17.2663C7.73335 18.1163 8.86668 18.5413 10 18.5413C11.1334 18.5413 12.2667 18.1163 13.1417 17.2663C15.525 14.9747 18.1584 11.3413 17.1834 7.04134ZM10 11.2163C8.55002 11.2163 7.37502 10.0413 7.37502 8.59134C7.37502 7.14134 8.55002 5.96634 10 5.96634C11.45 5.96634 12.625 7.14134 12.625 8.59134C12.625 10.0413 11.45 11.2163 10 11.2163Z" fill="#D5387B"/>
</svg>
