<svg width="29" height="26" viewBox="0 0 29 26" fill="none" xmlns="http://www.w3.org/2000/svg">
<path d="M25.875 5.125H3.375C3.07663 5.125 2.79048 5.00647 2.5795 4.7955C2.36853 4.58452 2.25 4.29837 2.25 4C2.25 3.70163 2.36853 3.41548 2.5795 3.2045C2.79048 2.99353 3.07663 2.875 3.375 2.875H22.5C22.7984 2.875 23.0845 2.75647 23.2955 2.54549C23.5065 2.33452 23.625 2.04837 23.625 1.75C23.625 1.45163 23.5065 1.16548 23.2955 0.954505C23.0845 0.743527 22.7984 0.625 22.5 0.625H3.375C2.48103 0.628702 1.62474 0.98547 0.992605 1.6176C0.36047 2.24974 0.00370177 3.10603 0 4V22C0.00370177 22.894 0.36047 23.7503 0.992605 24.3824C1.62474 25.0145 2.48103 25.3713 3.375 25.375H25.875C26.4717 25.375 27.044 25.1379 27.466 24.716C27.8879 24.294 28.125 23.7217 28.125 23.125V7.375C28.125 6.77826 27.8879 6.20597 27.466 5.78401C27.044 5.36205 26.4717 5.125 25.875 5.125ZM20.8125 16.9375C20.4787 16.9375 20.1525 16.8385 19.875 16.6531C19.5975 16.4677 19.3812 16.2041 19.2535 15.8958C19.1257 15.5874 19.0923 15.2481 19.1574 14.9208C19.2225 14.5934 19.3833 14.2928 19.6193 14.0568C19.8553 13.8208 20.1559 13.66 20.4833 13.5949C20.8106 13.5298 21.1499 13.5632 21.4583 13.691C21.7666 13.8187 22.0302 14.035 22.2156 14.3125C22.401 14.59 22.5 14.9162 22.5 15.25C22.5 15.6976 22.3222 16.1268 22.0057 16.4432C21.6893 16.7597 21.2601 16.9375 20.8125 16.9375Z" fill="url(#paint0_linear_1_2712)"/>
<defs>
<linearGradient id="paint0_linear_1_2712" x1="14.0625" y1="0.625" x2="14.0625" y2="25.375" gradientUnits="userSpaceOnUse">
<stop stop-color="#549994"/>
<stop offset="1" stop-color="#408782"/>
</linearGradient>
</defs>
</svg>
