<svg version="1.1" xmlns="http://www.w3.org/2000/svg" xmlns:xlink="http://www.w3.org/1999/xlink" width="48px" height="48px" viewBox="0,0,256,256"><g fill="none" fill-rule="nonzero" stroke-miterlimit="10" stroke-dasharray="" stroke-dashoffset="0" text-anchor="none" style="mix-blend-mode: normal"><g transform="scale(5.33333,5.33333)"><path d="M34.067,43.9c0,0 -5.494,-1.783 -10.073,-1.783c-4.579,0 -10.073,1.783 -10.073,1.783v-10.7h20.146z" fill-opacity="0.98824" fill="#bf360c" stroke="none" stroke-width="1" stroke-linecap="butt" stroke-linejoin="miter"></path><path d="M14.994,29.6c0,1.988 -1.612,3.6 -3.6,3.6c-1.988,0 -3.6,-1.612 -3.6,-3.6c0,-1.988 1.612,-3.6 3.6,-3.6c1.988,0 3.6,1.612 3.6,3.6M40.194,29.6c0,1.988 -1.612,3.6 -3.6,3.6c-1.988,0 -3.6,-1.612 -3.6,-3.6c0,-1.988 1.612,-3.6 3.6,-3.6c1.988,0 3.6,1.612 3.6,3.6" fill="#ffa726" stroke="none" stroke-width="1" stroke-linecap="butt" stroke-linejoin="miter"></path><path d="M36.594,20.6c0,-11.453 -25.2,-7.456 -25.2,0v8.1c0,7.456 5.642,13.5 12.6,13.5c6.958,0 12.6,-6.044 12.6,-13.5z" fill="#ffb74d" stroke="none" stroke-width="1" stroke-linecap="butt" stroke-linejoin="miter"></path><path d="M23.994,8c-7.631,0 -18.841,4.5 -18.954,28.8l8.96,7.2v-18l15.153,-8.1l4.847,6.288l0.011,19.694l8.824,-7.081c0,-10.8 -0.487,-26.1 -13.458,-26.1l-1.794,-2.701z" fill="#ff5722" stroke="none" stroke-width="1" stroke-linecap="butt" stroke-linejoin="miter"></path><path d="M10.351,16.41l3.15,3.15" fill="none" stroke="#5d4037" stroke-width="2" stroke-linecap="round" stroke-linejoin="round"></path><path d="M13.501,13.26l3.149,3.15" fill="none" stroke="#5d4037" stroke-width="2" stroke-linecap="round" stroke-linejoin="round"></path><path d="M16.65,10.111l3.15,3.15" fill="none" stroke="#5d4037" stroke-width="2" stroke-linecap="round" stroke-linejoin="round"></path><path d="M19.8,6.961l3.15,3.15" fill="none" stroke="#5d4037" stroke-width="2" stroke-linecap="round" stroke-linejoin="round"></path><path d="M11.15,7.737c-3.134,3.134 -4.437,7.149 -3.492,9.965c0.345,1.027 1.698,1.277 2.464,0.511l11.498,-11.497c0.815,-0.815 0.444,-2.186 -0.659,-2.52c-2.806,-0.848 -6.733,0.464 -9.811,3.541z" fill="#ffb300" stroke="none" stroke-width="1" stroke-linecap="butt" stroke-linejoin="miter"></path><path d="M1.086,20.999v0c-0.781,-0.781 -0.781,-2.047 0,-2.828l9.986,-10.355l0.542,5.484l-7.7,7.7c-0.781,0.78 -2.047,0.78 -2.828,-0.001z" fill="#ffb300" stroke="none" stroke-width="1" stroke-linecap="butt" stroke-linejoin="miter"></path><circle cx="19.5" cy="27.5" r="1.5" fill="#784719" stroke="none" stroke-width="1" stroke-linecap="butt" stroke-linejoin="miter"></circle><circle cx="28.5" cy="27.5" r="1.5" fill="#784719" stroke="none" stroke-width="1" stroke-linecap="butt" stroke-linejoin="miter"></circle><path d="M19.714,36h8.571c0,0 -1.714,2.571 -4.286,2.571c-2.572,0 -4.285,-2.571 -4.285,-2.571z" fill="#fb8c00" stroke="none" stroke-width="1" stroke-linecap="butt" stroke-linejoin="miter"></path></g></g></svg>