<svg version="1.1" xmlns="http://www.w3.org/2000/svg" xmlns:xlink="http://www.w3.org/1999/xlink" width="64" height="64" viewBox="0,0,256,256"><defs><radialGradient cx="32.5" cy="32" r="30.759" gradientUnits="userSpaceOnUse" id="color-1"><stop offset="0" stop-color="#aff1ff"></stop><stop offset="0.193" stop-color="#bbf1ff"></stop><stop offset="0.703" stop-color="#d7f8ff"></stop><stop offset="1" stop-color="#e1faff"></stop></radialGradient><linearGradient x1="32" y1="61.498" x2="32" y2="26.288" gradientUnits="userSpaceOnUse" id="color-2"><stop offset="0" stop-color="#ff8b67"></stop><stop offset="0.847" stop-color="#ffa76a"></stop><stop offset="1" stop-color="#ffad6b"></stop><stop offset="1" stop-color="#ffad6b"></stop></linearGradient><linearGradient x1="32" y1="43" x2="32" y2="4" gradientUnits="userSpaceOnUse" id="color-3"><stop offset="0" stop-color="#ff5840"></stop><stop offset="0.007" stop-color="#ff5840"></stop><stop offset="0.989" stop-color="#fa528c"></stop><stop offset="1" stop-color="#fa528c"></stop></linearGradient><linearGradient x1="29.35" y1="42.718" x2="29.35" y2="17.52" gradientUnits="userSpaceOnUse" id="color-4"><stop offset="0" stop-color="#ff6655"></stop><stop offset="0.989" stop-color="#fb6895"></stop></linearGradient></defs><g fill="none" fill-rule="nonzero" stroke="none" stroke-width="1" stroke-linecap="butt" stroke-linejoin="miter" stroke-miterlimit="10" stroke-dasharray="" stroke-dashoffset="0" text-anchor="none" style="mix-blend-mode: normal"><g transform="scale(4,4)"><path d="M59.107,20h1.393c2.168,0 3.892,-1.998 3.422,-4.243c-0.343,-1.635 -1.861,-2.757 -3.531,-2.757h-10.678c-1.608,0 -2.528,-0.682 -2.686,-1.666c-0.202,-1.252 0.759,-2.334 1.973,-2.334h3.384c1.67,0 3.195,-1.122 3.538,-2.757c0.47,-2.245 -1.254,-4.243 -3.422,-4.243h-18.494h-1.506h-26.884c-1.671,0 -3.196,1.122 -3.538,2.757c-0.47,2.245 1.254,4.243 3.422,4.243h9.393c0.997,0 1.922,0.682 2.08,1.666c0.202,1.252 -0.759,2.334 -1.973,2.334h-2.384c-1.67,0 -3.195,1.122 -3.538,2.757c-0.47,2.245 1.254,4.243 3.422,4.243l-0.449,-0.007c1.076,-0.001 1.949,0.871 1.949,1.947v0.05c0,1.117 -0.893,2.014 -2,2.013c-0.907,-0.001 -1.999,-0.002 -3.002,-0.002c-1.656,-0.001 -2.998,1.342 -2.998,2.999v0c0,1.657 1.343,3 3,3h0.5c0.828,0 1.5,0.672 1.5,1.5v0c0,0.828 -0.672,1.5 -1.5,1.5h-4.884c-1.67,0 -3.195,1.122 -3.538,2.757c-0.47,2.245 1.254,4.243 3.422,4.243h0.393c0.997,0 1.922,0.682 2.08,1.666c0.202,1.252 -0.759,2.334 -1.973,2.334h-0.5c-2.168,0 -3.892,1.998 -3.422,4.243c0.343,1.635 1.868,2.757 3.538,2.757h4.783c1.494,0 2.414,0.681 2.574,1.664c0.203,1.253 -0.758,2.336 -1.973,2.336h-1.384c-1.67,0 -3.195,1.122 -3.538,2.757c-0.47,2.245 1.254,4.243 3.422,4.243h22.494h1.506h27.886c1.67,0 3.196,-1.122 3.537,-2.757c0.469,-2.245 -1.255,-4.243 -3.423,-4.243h-0.393c-0.997,0 -1.922,-0.682 -2.08,-1.666c-0.202,-1.252 0.759,-2.334 1.973,-2.334h0.385c1.67,0 3.195,-1.123 3.537,-2.758c0.47,-2.246 -1.254,-4.242 -3.422,-4.242h-13.5v-3h9c1.657,0 3,-1.343 3,-3v0c0,-1.657 -1.343,-3 -3,-3h-2c-1.105,0 -2,-0.895 -2,-2v0c0,-1.105 0.895,-2 2,-2h5.384c1.67,0 3.195,-1.122 3.538,-2.757c0.47,-2.245 -1.254,-4.243 -3.422,-4.243h-0.5c-1.214,0 -2.175,-1.082 -1.973,-2.334c0.158,-0.984 1.083,-1.666 2.08,-1.666z" fill="url(#color-1)"></path><path d="M34,19h-4c-8.837,0 -16,7.163 -16,16v25c0,1.105 0.895,2 2,2h32c1.105,0 2,-0.895 2,-2v-25c0,-8.837 -7.163,-16 -16,-16z" fill="url(#color-2)"></path><path d="M44,10v23c0,3.9 -2.23,7.28 -5.49,8.92c-1.35,0.69 -2.89,1.08 -4.51,1.08h-4c-5.52,0 -10,-4.48 -10,-10v-23c0,-3.31 2.69,-6 6,-6h12c3.31,0 6,2.69 6,6z" fill="url(#color-3)"></path><path d="M38.7,41.07c0,0.31 -0.07,0.59 -0.19,0.85c-1.35,0.69 -2.89,1.08 -4.51,1.08h-4c-5.52,0 -10,-4.48 -10,-10v-13.93h3.7c0.55,0 1.05,0.22 1.41,0.59c0.47,0.47 0.71,1.16 0.52,1.9c-0.23,0.91 -1.11,1.51 -2.04,1.51h-0.39c-0.83,0 -1.5,0.67 -1.5,1.5c0,0.83 0.67,1.5 1.5,1.5h4.5c0.55,0 1.05,0.22 1.41,0.59c0.47,0.47 0.71,1.16 0.52,1.9c-0.23,0.91 -1.11,1.51 -2.04,1.51h-1.39c-0.83,0 -1.5,0.67 -1.5,1.5c0,0.83 0.67,1.5 1.5,1.5h5.5c0.55,0 1.05,0.22 1.41,0.59c0.41,0.4 0.64,0.97 0.58,1.59c-0.05,0.52 -0.31,0.98 -0.69,1.3c-0.38,0.33 -0.88,0.52 -1.41,0.52c-0.49,0 -0.89,0.4 -0.89,0.89v0.22c0,0.49 0.4,0.89 0.89,0.89h5.11c0.55,0 1.05,0.22 1.41,0.59c0.37,0.36 0.59,0.86 0.59,1.41z" fill="url(#color-4)"></path></g></g></svg>