<svg version="1.1" xmlns="http://www.w3.org/2000/svg" xmlns:xlink="http://www.w3.org/1999/xlink" width="48px" height="48px" viewBox="0,0,256,256"><defs><radialGradient cx="30.39646" cy="30.4529" r="8.59123" gradientUnits="userSpaceOnUse" id="color-1"><stop offset="0.021" stop-color="#d9813f"></stop><stop offset="0.283" stop-color="#c57036"></stop><stop offset="0.74" stop-color="#a75729"></stop><stop offset="1" stop-color="#9c4d24"></stop></radialGradient><radialGradient cx="16.659" cy="26.611" r="5.781" gradientUnits="userSpaceOnUse" id="color-2"><stop offset="0.117" stop-color="#adf5ff"></stop><stop offset="0.247" stop-color="#a7f2ff"></stop><stop offset="0.427" stop-color="#95eaff"></stop><stop offset="0.636" stop-color="#77ddff"></stop><stop offset="0.867" stop-color="#4ecbff"></stop><stop offset="1" stop-color="#33bfff"></stop></radialGradient><linearGradient x1="30.381" y1="37.604" x2="30.381" y2="39.261" gradientUnits="userSpaceOnUse" id="color-3"><stop offset="0" stop-color="#d1cbc2"></stop><stop offset="0.165" stop-color="#c8c2b9"></stop><stop offset="0.432" stop-color="#b0aba2"></stop><stop offset="0.767" stop-color="#89857c"></stop><stop offset="1" stop-color="#6a665e"></stop></linearGradient><linearGradient x1="30.364" y1="38.828" x2="30.364" y2="40.485" gradientUnits="userSpaceOnUse" id="color-4"><stop offset="0" stop-color="#d1cbc2"></stop><stop offset="0.165" stop-color="#c8c2b9"></stop><stop offset="0.432" stop-color="#b0aba2"></stop><stop offset="0.767" stop-color="#89857c"></stop><stop offset="1" stop-color="#6a665e"></stop></linearGradient><linearGradient x1="23.971" y1="39.946" x2="23.971" y2="42.055" gradientUnits="userSpaceOnUse" id="color-5"><stop offset="0" stop-color="#d1cbc2"></stop><stop offset="0.165" stop-color="#c8c2b9"></stop><stop offset="0.432" stop-color="#b0aba2"></stop><stop offset="0.767" stop-color="#89857c"></stop><stop offset="1" stop-color="#6a665e"></stop></linearGradient><radialGradient cx="33.077" cy="30.375" r="0.675" gradientUnits="userSpaceOnUse" id="color-6"><stop offset="0" stop-color="#ff9e00"></stop><stop offset="1" stop-color="#9e4f00"></stop></radialGradient><linearGradient x1="24" y1="6.757" x2="24" y2="25.404" gradientUnits="userSpaceOnUse" id="color-7"><stop offset="0" stop-color="#aba59e"></stop><stop offset="0.944" stop-color="#ada7a0"></stop></linearGradient><linearGradient x1="13.839" y1="9.016" x2="13.839" y2="10.252" gradientUnits="userSpaceOnUse" id="color-8"><stop offset="0" stop-color="#aba59e"></stop><stop offset="0.944" stop-color="#ada7a0"></stop></linearGradient></defs><g fill="none" fill-rule="nonzero" stroke="none" stroke-width="1" stroke-linecap="butt" stroke-linejoin="miter" stroke-miterlimit="10" stroke-dasharray="" stroke-dashoffset="0" text-anchor="none" style="mix-blend-mode: normal"><g transform="scale(5.33333,5.33333)"><path d="M38.953,42h-29.905v-21.044l14.952,-10.97l14.953,10.97z" fill-opacity="0.98039" fill="#d9d9d9"></path><rect x="11.167" y="9.307" width="5.342" height="9.794" fill-opacity="0.98039" fill="#d9d9d9"></rect><rect x="25.759" y="22.462" width="9.274" height="15.976" fill="url(#color-1)"></rect><path d="M35.424,38.884h-10.056v-16.867h10.056zM26.15,37.993h8.493v-15.085h-8.493z" fill="#754d33"></path><rect x="10.277" y="6.636" width="7.123" height="2.671" fill="#eb4b1a"></rect><rect x="12.51" y="22.462" width="8.296" height="8.296" fill="url(#color-2)"></rect><path d="M21.252,31.204h-9.187v-9.187h9.187zM12.956,30.314h7.406v-7.406h-7.406z" fill="#754d33"></path><rect x="16.213" y="22.441" width="0.89" height="8.318" fill="#754d33"></rect><rect x="12.499" y="26.155" width="8.318" height="0.89" fill="#754d33"></rect><rect x="11.4" y="30.27" width="10.51" height="1.224" fill="#754d33"></rect><rect x="24.365" y="37.993" width="12.031" height="1.224" fill="url(#color-3)"></rect><rect x="23.193" y="39.218" width="14.343" height="1.224" fill="url(#color-4)"></rect><rect x="7.858" y="40.442" width="32.227" height="1.558" fill="url(#color-5)"></rect><g fill="#7a3d1c" opacity="0.5"><path d="M27.1,28.828h2.787v-4.921h-2.787zM27.545,24.353h1.897v4.03h-1.897z"></path><path d="M30.91,36.842h2.787v-4.922h-2.787zM31.356,32.366h1.897v4.03h-1.897z"></path><path d="M27.1,36.842h2.787v-4.922h-2.787zM27.545,32.366h1.897v4.03h-1.897z"></path><path d="M30.91,23.907v4.921h2.787v-4.921zM33.252,28.383h-1.897v-4.03h1.897z"></path></g><circle cx="33.077" cy="30.374" r="0.675" fill="url(#color-6)"></circle><path d="M9.048,20.956v2.114l14.952,-11.086v0.004l0.003,-0.002l0.003,0.002v-0.004l14.947,11.082v-2.11l-14.953,-10.97z" fill="url(#color-7)"></path><path d="M24.006,6.407l-0.003,0.002l-0.003,-0.002l-19.089,13.944l1.901,3.012l17.188,-12.744v0.004l0.003,-0.002l0.003,0.002v-0.004l17.188,12.744l1.901,-3.012z" fill="#eb4b1a"></path><rect x="11.167" y="9.307" width="5.342" height="0.913" fill="url(#color-8)"></rect></g></g></svg>