<svg version="1.1" xmlns="http://www.w3.org/2000/svg" xmlns:xlink="http://www.w3.org/1999/xlink" width="50px" height="50px" viewBox="0,0,256,256"><g fill="#82a188" fill-rule="nonzero" stroke="none" stroke-width="1" stroke-linecap="butt" stroke-linejoin="miter" stroke-miterlimit="10" stroke-dasharray="" stroke-dashoffset="0" text-anchor="none" style="mix-blend-mode: normal"><g transform="scale(5.12,5.12)"><path d="M13,4c-4.95852,0 -9,4.04148 -9,9v24c0,4.95852 4.04148,9 9,9h24c4.95852,0 9,-4.04148 9,-9v-24c0,-4.95852 -4.04148,-9 -9,-9zM13,6h24c1.13114,0 2.1948,0.27146 3.13867,0.74414l-1.80078,2.9375v1.41406c1.01103,0.91344 3.78759,2.71723 5.66211,3.49414v1.87695c-1.52837,-0.5213 -4.40872,-1.95732 -6.3457,-3.73242c-1.08278,1.81771 -2.91096,4.9341 -4.63477,8.26563h-19.01953c-0.36064,-0.0051 -0.69608,0.18438 -0.87789,0.49587c-0.18181,0.3115 -0.18181,0.69676 0,1.00825c0.18181,0.3115 0.51725,0.50097 0.87789,0.49587h18.0332c-0.66418,1.3599 -1.2912,2.70989 -1.81055,4h-16.22266c-0.36064,-0.0051 -0.69608,0.18438 -0.87789,0.49587c-0.18181,0.3115 -0.18181,0.69676 0,1.00825c0.18181,0.3115 0.51725,0.50097 0.87789,0.49587h15.47852c-0.57088,1.72148 -0.87392,3.21921 -0.73828,4.28125l-0.0918,0.18359c-0.69864,1.00161 -2.51294,1.51771 -3.63867,1.52344c-0.9818,0.0047 -1.43809,-0.3195 -2.10547,-0.80078c-0.66738,-0.48128 -1.57096,-1.1875 -2.9043,-1.1875c-1.33333,0 -2.23158,0.673 -3.01367,1.14258c-0.78209,0.46958 -1.51705,0.85742 -2.98633,0.85742c-0.36064,-0.0051 -0.69608,0.18438 -0.87789,0.49587c-0.18181,0.3115 -0.18181,0.69676 0,1.00825c0.18181,0.3115 0.51725,0.50097 0.87789,0.49587c1.86872,0 3.13221,-0.61216 4.01563,-1.14258c0.88341,-0.53042 1.31771,-0.85742 1.98438,-0.85742c0.66667,0 1.01925,0.29483 1.73438,0.81055c0.71512,0.51572 1.76895,1.18502 3.28516,1.17773c0.77327,-0.00393 1.72402,-0.12504 2.64844,-0.45508c0.19548,0.30034 0.53671,0.47314 0.8945,0.45297c0.35779,-0.02017 0.67744,-0.23022 0.83792,-0.55063l0.87891,-1.75977c3.76379,-1.13217 12.82053,-16.0264 13.7207,-17.51758v19.8418c0,3.87748 -3.12252,7 -7,7h-24c-3.87748,0 -7,-3.12252 -7,-7v-24c0,-3.87748 3.12252,-7 7,-7zM14,15c-0.36064,-0.0051 -0.69608,0.18438 -0.87789,0.49587c-0.18181,0.3115 -0.18181,0.69676 0,1.00825c0.18181,0.3115 0.51725,0.50097 0.87789,0.49587h18c0.36064,0.0051 0.69608,-0.18438 0.87789,-0.49587c0.18181,-0.3115 0.18181,-0.69676 0,-1.00825c-0.18181,-0.3115 -0.51725,-0.50097 -0.87789,-0.49587z"></path></g></g></svg>