<svg width="30" height="30" viewBox="0 0 30 30" fill="none" xmlns="http://www.w3.org/2000/svg">
<g clip-path="url(#clip0_1_716)">
<path d="M27.1758 24.8438C25.4265 21.8303 22.6265 19.5686 19.3125 18.4922C20.901 17.5476 22.1354 16.1076 22.8261 14.3935C23.5168 12.6793 23.6256 10.7858 23.1358 9.00382C22.646 7.22182 21.5847 5.64993 20.1149 4.52961C18.6451 3.4093 16.8481 2.80254 15 2.80254C13.1519 2.80254 11.355 3.4093 9.88517 4.52961C8.41538 5.64993 7.35405 7.22182 6.86425 9.00382C6.37445 10.7858 6.48326 12.6793 7.17396 14.3935C7.86467 16.1076 9.09907 17.5476 10.6875 18.4922C7.37357 19.5686 4.57354 21.8303 2.82424 24.8438C2.73835 24.985 2.69293 25.1472 2.69293 25.3125C2.69293 25.4778 2.73835 25.64 2.82424 25.7813C2.90437 25.9249 3.02178 26.0443 3.16409 26.1268C3.30641 26.2093 3.46835 26.2519 3.63283 26.25H26.3672C26.5317 26.2519 26.6936 26.2093 26.8359 26.1268C26.9783 26.0443 27.0957 25.9249 27.1758 25.7813C27.2617 25.64 27.3071 25.4778 27.3071 25.3125C27.3071 25.1472 27.2617 24.985 27.1758 24.8438Z" fill="#666666"/>
</g>
<defs>
<clipPath id="clip0_1_716">
<rect width="30" height="30" fill="white"/>
</clipPath>
</defs>
</svg>
