<svg width="30" height="30" viewBox="0 0 30 30" fill="none" xmlns="http://www.w3.org/2000/svg">
<g clip-path="url(#clip0_1_723)">
<path d="M24.375 4.6875H5.625C5.12772 4.6875 4.65081 4.88504 4.29917 5.23667C3.94754 5.58831 3.75 6.06522 3.75 6.5625V13.4414C3.75 23.918 12.6328 27.3984 14.4141 27.9844C14.7947 28.1096 15.2053 28.1096 15.5859 27.9844C17.3672 27.3984 26.25 23.918 26.25 13.4414V6.5625C26.25 6.06522 26.0525 5.58831 25.7008 5.23667C25.3492 4.88504 24.8723 4.6875 24.375 4.6875ZM15 26.2031C13.5117 25.7109 6.52734 22.9688 5.70703 15H15V6.5625H24.375V13.4414C24.3778 13.9621 24.3504 14.4825 24.293 15H15V26.2031Z" fill="#666666"/>
</g>
<defs>
<clipPath id="clip0_1_723">
<rect width="30" height="30" fill="white"/>
</clipPath>
</defs>
</svg>
