<?xml version="1.0"?><svg version="1.2" baseProfile="tiny-ps" viewBox="0 0 48 48" xmlns="http://www.w3.org/2000/svg" xmlns:xlink="http://www.w3.org/1999/xlink"><title>seeAllNotification</title><g><g transform="matrix(.1 0 0 -.1 0 48)"><path d="m125 400-29-30-16 15c-21 19-40 19-40 2 0-15 41-57 56-57 14 0 84 73 84 88v12h-13c-7 0-26-13-42-30zm75-25v-15h240v30H200v-15zm-75-115-29-30-16 15c-18 16-40 20-40 7 0-12 44-52 56-52 11 0 84 72 84 83 0 17-28 5-55-23zm75-19c0-16 30-21 120-21s120 5 120 21v9H200v-9zm-75-111-29-30-16 15c-21 19-40 19-40 2 0-15 41-57 56-57 14 0 84 73 84 88v12h-13c-7 0-26-13-42-30zm75-25V90h240v30H200v-15z"/></g></g></svg>