<svg width="20" height="20" viewBox="0 0 20 20" fill="none" xmlns="http://www.w3.org/2000/svg">
<path d="M18.9014 12.4032L17.1836 11.4113C17.357 10.4758 17.357 9.51613 17.1836 8.58065L18.9014 7.58872C19.099 7.47582 19.1877 7.24195 19.1232 7.0242C18.6756 5.58873 17.9135 4.29034 16.9175 3.2097C16.7643 3.04438 16.5143 3.00406 16.3207 3.11696L14.603 4.10889C13.8812 3.48793 13.0506 3.00809 12.1514 2.69358V0.713745C12.1514 0.487939 11.9942 0.290359 11.7724 0.241972C10.2925 -0.0886716 8.77642 -0.0725426 7.36917 0.241972C7.1474 0.290359 6.99014 0.487939 6.99014 0.713745V2.69761C6.09498 3.01616 5.26434 3.49599 4.53854 4.11293L2.82483 3.12099C2.62725 3.00809 2.38129 3.04438 2.22806 3.21374C1.2321 4.29034 0.470003 5.58873 0.0224241 7.02824C-0.046124 7.24598 0.0466175 7.47985 0.244197 7.59275L1.96193 8.58468C1.78855 9.52016 1.78855 10.4798 1.96193 11.4153L0.244197 12.4072C0.0466175 12.5202 -0.0420918 12.754 0.0224241 12.9718C0.470003 14.4072 1.2321 15.7056 2.22806 16.7863C2.38129 16.9516 2.63128 16.9919 2.82483 16.879L4.54257 15.8871C5.26434 16.508 6.09498 16.9879 6.99417 17.3024V19.2863C6.99417 19.5121 7.15143 19.7096 7.3732 19.758C8.85304 20.0887 10.3692 20.0725 11.7764 19.758C11.9982 19.7096 12.1554 19.5121 12.1554 19.2863V17.3024C13.0506 16.9838 13.8812 16.504 14.607 15.8871L16.3248 16.879C16.5224 16.9919 16.7683 16.9556 16.9216 16.7863C17.9175 15.7097 18.6796 14.4113 19.1272 12.9718C19.1877 12.75 19.099 12.5161 18.9014 12.4032ZM9.57078 13.2218C7.79256 13.2218 6.34498 11.7742 6.34498 9.99597C6.34498 8.21775 7.79256 6.77017 9.57078 6.77017C11.349 6.77017 12.7966 8.21775 12.7966 9.99597C12.7966 11.7742 11.349 13.2218 9.57078 13.2218Z" fill="#222222"/>
</svg>
