<?xml version="1.0"?><svg version="1.2" baseProfile="tiny-ps" viewBox="0 0 300 300" xmlns="http://www.w3.org/2000/svg" xmlns:xlink="http://www.w3.org/1999/xlink"><title>spaMask</title><g><g fill="#d5e3e3" transform="matrix(.1 0 0 -.1 0 300)"><path d="M1331 2974c-30-8-81-29-115-46l-61-33-95-95-95-95-61-90c-162-238-253-456-304-723-11-53-29-124-40-157-12-33-28-93-36-133l-14-74v-163l15-63c20-84 54-150 135-257l67-90 7-65c18-162 75-328 163-468l47-77 75-78 75-78 81-54 80-54 80-32 80-33h80l80 1 45 19c25 10 83 39 130 64l85 45 105 105 105 105 37 70 36 70 66 190c36 105 70 209 76 233s26 67 44 95c54 84 125 232 156 326l29 87 10 84 9 85-8 76c-11 100-33 180-75 280-63 151-165 299-239 349l-36 25v35c0 20-7 62-15 94l-15 58-30 43-30 43-61 41c-34 23-67 41-75 41h-13l-19 43-19 43-72 65c-39 35-98 80-131 100l-59 36-57 11c-75 16-156 14-223-4z"/></g><g fill="#fabd94" transform="matrix(.1 0 0 -.1 0 300)"><path d="M1331 2974c-30-8-81-29-115-46l-61-33-95-95-95-95-61-90c-162-238-253-456-304-723-11-53-29-124-40-157-12-33-28-93-36-133l-14-74v-163l15-63c20-84 54-150 135-257l67-90 7-65c18-162 75-328 163-468l47-77 75-78 75-78 81-54 80-54 80-32 80-33h80l80 1 45 19c25 10 83 39 130 64l85 45 105 105 105 105 37 70 36 70 66 190c36 105 70 209 76 233s26 67 44 95c54 84 125 232 156 326l29 87 10 84 9 85-8 76c-11 100-33 180-75 280-63 151-165 299-239 349l-36 25v35c0 20-7 62-15 94l-15 58-30 43-30 43-61 41c-34 23-67 41-75 41h-13l-19 43-19 43-72 65c-39 35-98 80-131 100l-59 36-57 11c-75 16-156 14-223-4zm310-1310c271-110 390-212 480-410 36-79 79-235 79-286v-38l-60-177-60-178-46-95-47-95-86-86-86-86-74-43c-41-23-100-53-132-66l-59-24h-109l-65 24c-36 13-98 43-138 66l-72 43-77 76-76 76-48 73c-25 40-62 108-82 150l-35 77-25 95-24 95v85l-1 85 17 80 17 80 32 70 33 70 47 58 47 57 67 51c37 28 99 66 137 84l70 34 140 39c77 22 147 40 156 41 8 1 44-11 80-25zm149-401c-14-2-35-6-48-9l-23-5-46-42-46-42-18-40-19-40v-39c0-21 5-56 12-77l11-39 33-39 33-38 53-23 52-22 63 5 62 5 53 29 53 30 29 41 29 41 5 50c2 27 2 65-2 84l-6 35-40 44-39 45-48 20c-52 22-113 32-153 26zm-788-28-53-27-23-32c-13-17-29-49-36-70l-13-39 6-55 6-56 28-40 29-41 49-30 48-30h184l49 30 48 31 29 45 28 46 6 55 6 55-13 37c-16 49-54 92-104 118l-41 22-90 4-90 3-53-26zm604-471c-9-8-16-22-16-29v-14l-30-16-29-15h-73l-33 36-33 36-21-7-21-6v-41l38-38 38-38 47-7 48-7 44 17 45 17 20 25c11 15 23 37 26 50l6 23-12 15c-16 19-25 19-44-1zm-267-223c-66-22-99-61-99-119v-29l23-34 22-33 49-30 48-30 88-4 88-4 52 17 52 17 34 31c40 35 64 76 64 110v24l-21 27c-11 14-35 34-52 43l-32 17-145 3-145 2-26-8z"/></g><g fill="#ed478b" transform="matrix(.1 0 0 -.1 0 300)"><path d="M1331 2974c-30-8-81-29-115-46l-61-33-95-95-95-95-61-90c-162-238-253-456-304-723-11-53-29-124-40-157-12-33-28-93-36-133l-14-74v-163l15-63c20-84 54-150 135-257l67-90 7-65c18-162 75-328 163-468l47-77 75-78 75-78 81-54 80-54 80-32 80-33h80l80 1 45 19c25 10 83 39 130 64l85 45 105 105 105 105 37 70 36 70 66 190c36 105 70 209 76 233s26 67 44 95c54 84 125 232 156 326l29 87 10 84 9 85-8 76c-11 100-33 180-75 280-63 151-165 299-239 349l-36 25v35c0 20-7 62-15 94l-15 58-30 43-30 43-61 41c-34 23-67 41-75 41h-13l-19 43-19 43-72 65c-39 35-98 80-131 100l-59 36-57 11c-75 16-156 14-223-4zm310-1310c271-110 390-212 480-410 36-79 79-235 79-286v-37l-64-189c-90-266-133-347-237-449-71-70-131-111-234-164l-86-43-64-4-63-4-64 21c-35 12-99 42-142 67l-79 46-77 77-77 76-48 73c-26 41-63 108-82 149l-35 76-25 96-24 96v90l-1 90 17 75 17 75 38 80 39 80 42 48c56 65 158 141 244 182l70 34 140 39c77 22 147 40 156 41 8 1 44-11 80-25zm149-401c-14-2-35-6-48-9l-23-5-46-42-46-42-18-40-19-40v-90l24-50 23-51 31-26c17-14 52-34 77-43l45-18 60 6 60 5 53 30 52 29 29 41 29 41 5 50c2 27 2 65-2 84l-6 35-40 44-39 45-48 20c-52 22-113 32-153 26zm140-93 41-21 19-32 20-32V982l-27-33-27-32-41-18-40-19h-102l-34 23c-18 12-44 38-56 56l-23 34v88l15 29c16 32 68 75 100 83 11 3 41 4 67 2l47-4 41-21zm-200-115-12-14 6-19c4-10 20-32 37-48l30-29h121l34 38 35 38-3 16c-2 9-11 21-20 27l-18 11-29-33-30-32h-70l-21 30c-24 33-41 38-60 15zm-728 180-53-27-23-32c-13-17-29-48-36-70l-12-38 4-48 5-48 20-38 20-39 42-32 42-32 42-12 42-11 68 5 67 4 47 29 47 30 29 45 28 46 6 55 6 55-13 37c-16 49-54 92-104 118l-41 22-90 4-90 3-53-26zm245-64 42-19 16-33 17-32-4-54-5-54-19-26c-11-15-32-36-47-47l-27-20-64-4-64-4-34 11-34 11-34 35-34 35-3 57-4 58 20 33c12 18 35 41 53 52l33 20h150l42-19zm-230-98c-4-3-7-17-7-31v-24l39-39 39-39h104l35 35 34 34-3 28-3 28-22 3-23 3-11-24c-6-14-21-30-34-37l-23-12-20 6-21 7-21 35-22 34h-17c-10 0-21-3-24-7zm589-309c-9-8-16-22-16-29v-14l-30-16-29-15h-73l-33 36-33 36-21-7-21-6v-41l38-38 38-38 47-7 48-7 44 17 45 17 20 25c11 15 23 37 26 50l6 23-12 15c-16 19-25 19-44-1zm-267-223c-66-22-99-61-99-119v-29l23-34 22-33 49-30 48-30 88-4 88-4 52 17 52 17 34 31c40 35 64 76 64 110v24l-21 27c-11 14-35 34-52 43l-32 17-145 3-145 2-26-8zm316-75 35-15v-16c0-10-9-30-20-45l-20-28-48-19-47-18-65 1h-66l-45 22-46 22-12 24c-7 13-11 32-9 42l3 18 25 13 25 13h256l34-14z"/></g><g fill="#8a487f" transform="matrix(.1 0 0 -.1 0 300)"><path d="M1331 2974c-30-8-81-29-115-46l-61-33-95-95-95-95-61-90c-162-238-253-456-304-723-11-53-29-124-40-157-12-33-28-93-36-133l-14-74v-163l15-63c20-84 54-150 135-257l67-90 7-65c18-162 75-328 163-468l47-77 75-78 75-78 81-54 80-54 80-32 80-33h80l80 1 45 19c25 10 83 39 130 64l85 45 105 105 105 105 37 70 36 70 66 190c36 105 70 209 76 233s26 67 44 95c54 84 125 232 156 326l29 87 10 84 9 85-8 76c-11 100-33 180-75 280-63 151-165 299-239 349l-36 25v35c0 20-7 62-15 94l-15 58-30 43-30 43-61 41c-34 23-67 41-75 41h-13l-19 43-19 43-72 65c-39 35-98 80-131 100l-59 36-57 11c-75 16-156 14-223-4zm689-440 39-42 11-44 12-43-4-80-5-80-27-65-26-65-53-70-52-69-65-53-65-53-85-44-85-44-95-30c-52-17-137-42-187-56l-93-26-72-36c-148-74-281-192-345-305-33-60-69-162-79-227-4-23-10-42-13-42-4 0-30 35-58 78l-51 77-22 65-22 65v110l1 110 21 80c12 43 33 104 48 135l26 55 50 53c106 112 286 220 616 367 118 53 263 121 322 152l107 55 54 49 54 48 13 31 12 30 40-22c22-13 57-41 78-64zm-379-870c271-110 390-212 480-410 36-79 79-235 79-286v-37l-64-189c-90-266-133-347-237-449-71-70-131-111-234-164l-86-43-64-4-63-4-64 21c-35 12-99 42-142 67l-79 46-77 77-77 76-48 73c-26 41-63 108-82 149l-35 76-25 96-24 96v90l-1 90 17 75 17 75 38 80 39 80 42 48c56 65 158 141 244 182l70 34 140 39c77 22 147 40 156 41 8 1 44-11 80-25zm149-401c-14-2-35-6-48-9l-23-5-46-42-46-42-18-40-19-40v-90l24-50 23-51 31-26c17-14 52-34 77-43l45-18 60 6 60 5 53 30 52 29 29 41 29 41 5 50c2 27 2 65-2 84l-6 35-40 44-39 45-48 20c-52 22-113 32-153 26zm140-93 41-21 19-32 20-32V982l-27-33-27-32-41-18-40-19h-102l-34 23c-18 12-44 38-56 56l-23 34v88l15 29c16 32 68 75 100 83 11 3 41 4 67 2l47-4 41-21zm-200-115-12-14 6-19c4-10 20-32 37-48l30-29h121l34 38 35 38-3 16c-2 9-11 21-20 27l-18 11-29-33-30-32h-70l-21 30c-24 33-41 38-60 15zm-728 180-53-27-23-32c-13-17-29-48-36-70l-12-38 4-48 5-48 20-38 20-39 42-32 42-32 42-12 42-11 68 5 67 4 47 29 47 30 29 45 28 46 6 55 6 55-13 37c-16 49-54 92-104 118l-41 22-90 4-90 3-53-26zm245-64 42-19 16-33 17-32-4-54-5-54-19-26c-11-15-32-36-47-47l-27-20-64-4-64-4-34 11-34 11-34 35-34 35-3 57-4 58 20 33c12 18 35 41 53 52l33 20h150l42-19zm-230-98c-4-3-7-17-7-31v-24l39-39 39-39h104l35 35 34 34-3 28-3 28-22 3-23 3-11-24c-6-14-21-30-34-37l-23-12-20 6-21 7-21 35-22 34h-17c-10 0-21-3-24-7zm589-309c-9-8-16-22-16-29v-14l-30-16-29-15h-73l-33 36-33 36-21-7-21-6v-41l38-38 38-38 47-7 48-7 44 17 45 17 20 25c11 15 23 37 26 50l6 23-12 15c-16 19-25 19-44-1zm-267-223c-66-22-99-61-99-119v-29l23-34 22-33 49-30 48-30 88-4 88-4 52 17 52 17 34 31c40 35 64 76 64 110v24l-21 27c-11 14-35 34-52 43l-32 17-145 3-145 2-26-8zm316-75 35-15v-16c0-10-9-30-20-45l-20-28-48-19-47-18-65 1h-66l-45 22-46 22-12 24c-7 13-11 32-9 42l3 18 25 13 25 13h256l34-14z"/></g><g fill="#4c333f" transform="matrix(.1 0 0 -.1 0 300)"><path d="M1331 2974c-30-8-81-29-115-46l-61-33-95-95-95-95-61-90c-162-238-253-456-304-723-11-53-29-124-40-157-12-33-28-93-36-133l-14-74v-163l15-63c20-84 54-150 135-257l67-90 7-65c18-162 75-328 163-468l47-77 75-78 75-78 81-54 80-54 80-32 80-33h80l80 1 45 19c25 10 83 39 130 64l85 45 105 105 105 105 37 70 36 70 66 190c36 105 70 209 76 233s26 67 44 95c54 84 125 232 156 326l29 87 10 84 9 85-8 76c-11 100-33 180-75 280-63 151-165 299-239 349l-36 25v35c0 20-7 62-15 94l-15 58-30 43-30 43-61 41c-34 23-67 41-75 41h-13l-19 43-19 43-72 65c-39 35-98 80-131 100l-59 36-57 11c-75 16-156 14-223-4zm279-83c56-29 174-124 206-166l24-32v-57l-22-33-23-34-67-45c-68-45-224-122-423-209-255-110-474-236-579-332l-46-42v20c0 11 16 70 36 132l36 112 53 111 54 111 80 119c43 65 109 151 144 190l65 70 56 39c30 21 79 46 108 57l53 18 100-3 100-3 45-23zm358-308 53-36 24-42 25-42 10-53 10-53-10-66-10-66-41-83-41-83-65-70-66-69-70-47c-38-26-109-63-157-84l-87-38-132-35c-162-44-233-73-330-133l-76-47-75-76-75-75-38-75-37-75-23-94-23-95-47 66c-26 36-58 90-71 119l-25 54-12 69-12 69 7 78c8 102 37 213 75 288l31 61 54 54 55 54 93 62c106 70 284 162 473 245 209 92 373 175 436 221l57 43 27 45c15 25 30 46 33 46 4 0 31-16 60-37zm259-415 44-53 59-120 60-120 22-80 22-80 1-115v-115l-18-63c-25-93-72-207-119-290l-42-73-13 50c-35 139-106 281-188 376l-44 52-73 50c-67 46-192 111-245 127-24 8-32 26-11 26 6 0 45 20 87 45 178 104 301 247 355 413l18 52 20-15c12-8 41-38 65-67zm-526-527c142-63 208-104 274-167 96-91 163-219 210-400l26-99-11-45c-21-88-133-396-167-461-19-37-59-97-89-133l-55-67-67-49c-83-61-211-126-276-140l-49-11-54 11c-308 64-594 413-643 784l-12 87 12 87c15 107 48 206 92 279l33 55 77 73 77 72 103 52 103 51 120 31c66 16 122 32 124 35 2 2 17 4 33 4h29l110-49zm-651-390c-47-15-87-40-118-75l-31-35-10-38c-14-48-14-78 0-126l10-38 36-40c20-22 55-50 77-62l41-21h80l80-1 40 22c47 25 86 65 111 113l17 35 1 60v60l-22 42-22 43-39 25-38 26-59 9c-68 11-118 12-154 1zm199-80c19-9 43-28 54-42l19-27v-101l-23-42-24-42-40-21-40-21-61 1h-60l-45 25-44 24-23 45-23 45 6 40c11 71 53 119 120 136l30 7 60-5 60-5 34-17zm-226-98c-19-7-16-31 8-70l21-33 28-15c37-19 83-19 119-1l27 14 19 35 18 34-6 17-6 16h-40l-16-29-15-30-20-6c-30-10-56 2-85 40-26 35-30 37-52 28zm707 172c-50-23-89-63-116-120l-24-50v-30c0-16 5-48 11-70l11-40 53-52 53-51 54-12 54-12 57 12 57 12 43 32c23 17 52 46 64 64l21 32 7 40 7 40-7 40-7 41-32 41-31 42-50 25-49 26-71 3-70 2-35-15zm185-64 41-18 26-31 26-31 7-41 7-41-24-47-23-47-49-24-49-25h-105l-40 26-40 27-22 45-22 46 7 40 7 41 26 31c14 17 40 39 57 49l30 19h100l40-19zm-181-125-19-15 16-28c10-15 32-38 49-50l33-23h29c16 0 44 6 63 14l35 15 19 32 19 32-5 13c-2 7-11 15-19 18l-14 5-35-34-34-35h-42l-36 35c-20 19-37 35-38 35 0 0-10-6-21-14zm-139-316c-20-38-43-50-98-50h-44l-32 36-33 35-11-4c-6-2-15-10-20-19l-10-15 22-32c12-17 35-38 51-46l29-15h106l35 18 35 19 18 35 17 35-6 17-6 16h-37l-16-30zm-215-196c-59-11-70-15-99-40l-30-25-7-33-6-34 16-29c8-17 31-44 51-61l35-31 57-17 57-16 68 4 68 5 57 29 58 29 23 34c12 19 25 45 28 57l6 23-14 28-13 28-46 23-46 23-119 4c-66 2-130 2-144-1zm280-77 25-13 3-23 4-23-28-29-28-29-50-15c-59-18-116-19-171-4-99 27-146 106-82 137l22 11h140l140 1 25-13z"/></g><g fill="#040304" transform="matrix(.1 0 0 -.1 0 300)"><path d="M1331 2974c-30-8-81-29-115-46l-61-33-95-95-95-95-61-90c-162-238-253-456-304-723-11-53-29-124-40-157-12-33-28-93-36-133l-14-74v-163l15-63c20-84 54-150 135-257l67-90 7-65c18-162 75-328 163-468l47-77 75-78 75-78 81-54 80-54 80-32 80-33h80l80 1 45 19c25 10 83 39 130 64l85 45 105 105 105 105 37 70 36 70 66 190c36 105 70 209 76 233s26 67 44 95c54 84 125 232 156 326l29 87 10 84 9 85-8 76c-11 100-33 180-75 280-63 151-165 299-239 349l-36 25v35c0 20-7 62-15 94l-15 58-30 43-30 43-61 41c-34 23-67 41-75 41h-13l-19 43-19 43-72 65c-39 35-98 80-131 100l-59 36-57 11c-75 16-156 14-223-4zm273-77 59-27 54-46c79-68 114-104 124-132l10-25-11-33-11-32-43-40-42-39-86-47c-48-26-186-91-307-146-348-156-512-248-629-355l-54-48 8 39c25 143 137 401 241 559 152 230 268 339 411 386l57 19 80-3 80-3 59-27zm339-293c45-23 95-72 118-116l19-38 6-58 6-57-12-60c-7-33-25-88-41-123l-28-62-46-59c-120-153-281-245-565-322l-145-40-64-30c-92-42-188-109-256-177l-59-59-38-64-39-64-24-80c-13-44-27-98-30-120l-7-39-19 24c-48 61-95 140-119 195l-25 60v270l23 78c12 43 34 101 48 129l26 51 51 55 52 54 100 67c113 76 260 153 450 236 72 31 193 87 270 125l140 67 53 43c30 23 68 62 85 86s32 44 34 44 18-7 36-16zm317-474c89-131 161-313 179-454l9-75-9-79c-5-44-18-110-30-148-22-75-136-314-149-314-5 0-16 26-25 58-9 31-30 93-47 137l-32 79-48 72-48 72-56 51c-64 59-156 115-266 162-43 18-78 36-78 39s37 24 83 47l82 42 65 54c106 87 193 207 225 311 9 28 19 57 21 65l5 14 40-39c23-21 58-64 79-94zm-576-479c64-27 149-70 190-95l75-47 56-62 57-62 49-100 48-100 26-95c14-52 25-107 25-122 0-24-86-291-139-430-12-31-44-90-70-130l-48-73-64-61c-68-64-144-114-255-166l-69-33h-150l-95 46-95 46-62 47c-115 87-204 203-279 361l-44 93-21 78-21 79-5 90-5 90 20 95 20 95 24 55c14 30 46 83 73 118l47 62 71 56 70 55 81 39 81 38 135 37c74 20 136 38 139 40 8 9 20 5 135-44zm40-416-51-25-31-44-31-43-9-41-10-41 8-40 7-41 27-40 26-40 41-27 42-28 67-3 68-4 35 11c20 7 54 25 76 41l40 30 20 38c11 21 22 54 26 73l7 36-12 42-11 43-41 44-40 43-54 21-55 20h-95l-50-25zm217-64c19-13 42-34 53-48l19-25 4-42 5-42-15-35-15-36-34-26-33-26-46-12-45-12-36 7c-42 8-93 41-121 78l-20 27-4 48-4 48 23 40 23 39 35 24 35 24 71-4 71-3 34-24zm-204-118c-4-3-7-14-7-23v-16l28-27 29-27 31-9 32-10 32 10 31 9 29 27 28 27v37l-16 6-16 6-28-32-29-31h-63l-26 30c-26 30-42 36-55 23zm-717 186c-13-6-39-21-57-35l-33-25-20-39-20-39V979l20-38c22-45 67-85 119-107l36-16h140l48 22 48 22 28 35c34 41 51 94 51 157v47l-14 32-13 32-36 32-36 32-38 10-38 11-80-1h-80l-25-10zm196-50 45-12 29-29 29-29 7-34 6-35-6-34c-4-19-17-49-29-67l-22-34-45-22-44-23h-41c-22 0-58 5-80 11l-40 11-36 37-37 37-7 37-7 37 6 35 7 35 31 35 30 35 32 9c44 13 120 13 172 0zm-202-134-6-14 20-28c11-15 29-36 40-46l20-19 39-4 38-5 25 13c26 14 70 73 70 93 0 7-8 16-17 20l-18 6-28-35-29-36h-57l-28 35-28 35h-36l-5-15zm585-313-10-30-36-17-35-17-36 7-35 6-26 30-25 29h-36v-45l26-28c32-34 63-47 115-47h40l33 14 33 14 22 28 22 28-3 25-3 26-18 3-17 4-11-30zm-292-223-39-20-13-33-14-33 9-35 10-34 27-27c16-14 51-36 78-48l50-23h150l52 18 51 17 41 44 41 45v76l-27 26c-16 14-43 30-62 37l-34 11h-141l-141-1-38-20zm355-49 28-13 5-18 6-18-22-30-22-30-36-17-36-17-71-5-71-4-37 12c-21 7-53 26-72 42l-34 30v46l15 12c8 7 30 16 48 21l32 8 120-3 120-2 27-14z"/></g></g></svg>