<svg width="24" height="24" viewBox="0 0 24 24" fill="none" xmlns="http://www.w3.org/2000/svg">
<path fill-rule="evenodd" clip-rule="evenodd" d="M21.5132 9.93697C21.3761 9.51659 21.0126 9.21001 20.576 9.14613L15.5708 8.41917L13.3319 3.88433C13.1356 3.48717 12.7326 3.23633 12.2902 3.23633C11.8477 3.23633 11.4448 3.48717 11.2485 3.88433L9.01071 8.41917L4.00555 9.14613C3.56774 9.21001 3.20426 9.51659 3.06839 9.93697C2.93135 10.3574 3.04516 10.8184 3.36219 11.1273L6.98426 14.6576L6.12955 19.643C6.05522 20.0785 6.23406 20.5187 6.59174 20.7788C6.79264 20.9263 7.03187 21.0006 7.27342 21.0006C7.45806 21.0006 7.64387 20.9565 7.81342 20.867L12.2902 18.5131L16.767 20.867C16.9365 20.9565 17.1223 21.0006 17.307 21.0006C17.5474 21.0006 17.7877 20.9263 17.9898 20.7788C18.3475 20.5187 18.5263 20.0785 18.452 19.643L17.5973 14.6576L21.2194 11.1273C21.5352 10.8196 21.649 10.3574 21.5132 9.93697Z" fill="#046A65"/>
</svg>
