<svg width="30" height="30" viewBox="0 0 30 30" fill="none" xmlns="http://www.w3.org/2000/svg">
<path fill-rule="evenodd" clip-rule="evenodd" d="M6.5 21.375H2.25V27.75H6.5V21.375ZM17.125 12.875H12.875V27.75H17.125V12.875ZM27.75 2.25H23.5V27.75H27.75V2.25ZM23.5 0.125C22.9364 0.125 22.3959 0.348883 21.9974 0.747398C21.5989 1.14591 21.375 1.68641 21.375 2.25V27.75C21.375 28.3136 21.5989 28.8541 21.9974 29.2526C22.3959 29.6511 22.9364 29.875 23.5 29.875H27.75C28.3136 29.875 28.8541 29.6511 29.2526 29.2526C29.6511 28.8541 29.875 28.3136 29.875 27.75V2.25C29.875 1.68641 29.6511 1.14591 29.2526 0.747398C28.8541 0.348883 28.3136 0.125 27.75 0.125H23.5ZM10.75 12.875C10.75 12.3114 10.9739 11.7709 11.3724 11.3724C11.7709 10.9739 12.3114 10.75 12.875 10.75H17.125C17.6886 10.75 18.2291 10.9739 18.6276 11.3724C19.0261 11.7709 19.25 12.3114 19.25 12.875V27.75C19.25 28.3136 19.0261 28.8541 18.6276 29.2526C18.2291 29.6511 17.6886 29.875 17.125 29.875H12.875C12.3114 29.875 11.7709 29.6511 11.3724 29.2526C10.9739 28.8541 10.75 28.3136 10.75 27.75V12.875ZM0.125 21.375C0.125 20.8114 0.348883 20.2709 0.747398 19.8724C1.14591 19.4739 1.68641 19.25 2.25 19.25H6.5C7.06359 19.25 7.60409 19.4739 8.0026 19.8724C8.40112 20.2709 8.625 20.8114 8.625 21.375V27.75C8.625 28.3136 8.40112 28.8541 8.0026 29.2526C7.60409 29.6511 7.06359 29.875 6.5 29.875H2.25C1.68641 29.875 1.14591 29.6511 0.747398 29.2526C0.348883 28.8541 0.125 28.3136 0.125 27.75V21.375Z" fill="#AAAAAA"/>
</svg>
