<svg width="87" height="87" viewBox="0 0 87 87" fill="none" xmlns="http://www.w3.org/2000/svg">
<path fill-rule="evenodd" clip-rule="evenodd" d="M43.5 86.625C19.6821 86.625 0.375 67.3179 0.375 43.5C0.375 19.6821 19.6821 0.375 43.5 0.375C67.3179 0.375 86.625 19.6821 86.625 43.5C86.625 67.3179 67.3179 86.625 43.5 86.625ZM57.0671 31.1921C57.9103 30.349 59.2772 30.349 60.1204 31.1921C60.9635 32.0353 60.9635 33.4022 60.1204 34.2454L38.5579 55.8079C38.1533 56.2134 37.6041 56.4414 37.0312 56.4414C36.4584 56.4414 35.9092 56.2134 35.5046 55.8079L26.8796 47.1829C26.0365 46.3397 26.0365 44.9728 26.8796 44.1296C27.7228 43.2865 29.0897 43.2865 29.9329 44.1296L37.0312 51.2323L57.0671 31.1921Z" fill="url(#paint0_linear_383_304)"/>
<defs>
<linearGradient id="paint0_linear_383_304" x1="0.375" y1="43.0813" x2="86.625" y2="43.0813" gradientUnits="userSpaceOnUse">
<stop stop-color="#D5387B"/>
<stop offset="1" stop-color="#F87480"/>
</linearGradient>
</defs>
</svg>
