
<svg width="36" height="36" viewBox="0 0 36 36" fill="none" xmlns="http://www.w3.org/2000/svg">
<g clip-path="url(#clip0_1_491)">
<path d="M5.625 9V27C5.625 27.5967 5.86205 28.169 6.28401 28.591C6.70597 29.0129 7.27826 29.25 7.875 29.25H30.375C30.6734 29.25 30.9595 29.1315 31.1705 28.9205C31.3815 28.7095 31.5 28.4234 31.5 28.125V12.375C31.5 12.0766 31.3815 11.7905 31.1705 11.5795C30.9595 11.3685 30.6734 11.25 30.375 11.25H7.875C7.27826 11.25 6.70597 11.0129 6.28401 10.591C5.86205 10.169 5.625 9.59674 5.625 9ZM5.625 9C5.625 8.40326 5.86205 7.83097 6.28401 7.40901C6.70597 6.98705 7.27826 6.75 7.875 6.75H27" stroke="#AAAAAA" stroke-width="1.6875" stroke-linecap="round" stroke-linejoin="round"/>
<path d="M25.3125 21.9375C26.2445 21.9375 27 21.182 27 20.25C27 19.318 26.2445 18.5625 25.3125 18.5625C24.3805 18.5625 23.625 19.318 23.625 20.25C23.625 21.182 24.3805 21.9375 25.3125 21.9375Z" fill="#AAAAAA"/>
</g>
<defs>
<clipPath id="clip0_1_491">
<rect width="36" height="36" fill="white"/>

<svg width="37" height="36" viewBox="0 0 37 36" fill="none" xmlns="http://www.w3.org/2000/svg">
<g clip-path="url(#clip0_1_2710)">
<path d="M30.875 10.125H8.375C8.07663 10.125 7.79048 10.0065 7.5795 9.7955C7.36853 9.58452 7.25 9.29837 7.25 9C7.25 8.70163 7.36853 8.41548 7.5795 8.2045C7.79048 7.99353 8.07663 7.875 8.375 7.875H27.5C27.7984 7.875 28.0845 7.75647 28.2955 7.54549C28.5065 7.33452 28.625 7.04837 28.625 6.75C28.625 6.45163 28.5065 6.16548 28.2955 5.95451C28.0845 5.74353 27.7984 5.625 27.5 5.625H8.375C7.48103 5.6287 6.62474 5.98547 5.9926 6.6176C5.36047 7.24974 5.0037 8.10603 5 9V27C5.0037 27.894 5.36047 28.7503 5.9926 29.3824C6.62474 30.0145 7.48103 30.3713 8.375 30.375H30.875C31.4717 30.375 32.044 30.1379 32.466 29.716C32.8879 29.294 33.125 28.7217 33.125 28.125V12.375C33.125 11.7783 32.8879 11.206 32.466 10.784C32.044 10.3621 31.4717 10.125 30.875 10.125ZM25.8125 21.9375C25.4787 21.9375 25.1525 21.8385 24.875 21.6531C24.5975 21.4677 24.3812 21.2041 24.2535 20.8958C24.1257 20.5874 24.0923 20.2481 24.1574 19.9208C24.2225 19.5934 24.3833 19.2928 24.6193 19.0568C24.8553 18.8208 25.1559 18.66 25.4833 18.5949C25.8106 18.5298 26.1499 18.5632 26.4583 18.691C26.7666 18.8187 27.0302 19.035 27.2156 19.3125C27.401 19.59 27.5 19.9162 27.5 20.25C27.5 20.6976 27.3222 21.1268 27.0057 21.4432C26.6893 21.7597 26.2601 21.9375 25.8125 21.9375Z" fill="url(#paint0_linear_1_2710)"/>
</g>
<defs>
<linearGradient id="paint0_linear_1_2710" x1="19.0625" y1="5.625" x2="19.0625" y2="30.375" gradientUnits="userSpaceOnUse">
<stop stop-color="#549994"/>
<stop offset="1" stop-color="#408782"/>
</linearGradient>
<clipPath id="clip0_1_2710">
<rect width="36" height="36" fill="white" transform="translate(0.5)"/>

</clipPath>
</defs>
</svg>
