<!DOCTYPE svg PUBLIC "-//W3C//DTD SVG 1.1//EN" "http://www.w3.org/Graphics/SVG/1.1/DTD/svg11.dtd">

<!-- Uploaded to: SVG Repo, www.svgrepo.com, Transformed by: SVG Repo Mixer Tools -->
<svg 
    fill="#E15237" 
    width="64px" 
    height="64px" 
    viewBox="-476.16 -476.16 1464.32 1464.32" 
    id="_x30_1"
    version="1.1" 
    xml:space="preserve" 
    xmlns="http://www.w3.org/2000/svg"
    xmlns:xlink="http://www.w3.org/1999/xlink" 
    data-darkreader-inline-fill=""
    style="--darkreader-inline-fill: #c7543f;"
>

<g id="SVGRepo_bgCarrier" stroke-width="0"/>

<g id="SVGRepo_tracerCarrier" stroke-linecap="round" stroke-linejoin="round"/>

<g id="SVGRepo_iconCarrier">

<path d="M452,120h-76C376,53.726,322.274,0,256,0h0c-66.274,0-120,53.726-120,120H60c-33.137,0-60,26.863-60,60v272 c0,33.137,26.863,60,60,60h392c33.137,0,60-26.863,60-60V180C512,146.863,485.137,120,452,120z M256,60c33.137,0,60,26.863,60,60 H196C196,86.863,222.863,60,256,60z M402,260v20c0,16.569-13.431,30-30,30h0c-16.569,0-30-13.431-30-30v-20H170v20 c0,16.569-13.431,30-30,30h0c-16.569,0-30-13.431-30-30v-20c-16.569,0-30-13.431-30-30s13.431-30,30-30h292 c16.569,0,30,13.431,30,30S418.569,260,402,260z"/>

</g>

</svg>